<svg width="1096" height="721" viewBox="0 0 1096 721" fill="none" xmlns="http://www.w3.org/2000/svg">
<path opacity="0.1" d="M338.422 37.7901C375.609 4.63308 433.979 -2.12451 487.11 0.516734C653.995 8.8128 804.64 89.4283 934.947 180.614C982.12 213.624 1028.56 249.199 1059.19 294.657C1121.52 387.195 1103.03 515.391 1016.35 591.626C986.863 617.563 951.113 637.447 914.412 655.073C849.156 686.413 778.747 711.572 704.682 718.733C651.866 723.839 598.401 719.688 545.894 712.563C399.193 692.656 255.196 648.637 134.506 573.324C81.5714 540.293 31.6779 499.227 9.85933 445.79C-11.9593 392.353 2.00433 324.638 56.0557 293.008C78.4108 279.927 105.139 274.018 131.307 268.471C169.825 260.305 208.961 252.255 243.721 235.654C279.623 218.507 322.135 185.348 315.026 147.395C307.399 106.673 301.279 70.9083 338.422 37.7901Z" fill="#6C63FF"/>
<path d="M574.5 682C838.216 682 1052 671.255 1052 658C1052 644.745 838.216 634 574.5 634C310.784 634 97 644.745 97 658C97 671.255 310.784 682 574.5 682Z" fill="#3F3D56"/>
<path d="M700 396.023H688V403.023H700V396.023Z" fill="#3F3D56"/>
<path d="M724 396.023H712V403.023H724V396.023Z" fill="#3F3D56"/>
<path d="M748 396.023H736V403.023H748V396.023Z" fill="#3F3D56"/>
<path d="M772 396.023H760V403.023H772V396.023Z" fill="#3F3D56"/>
<path d="M796 396.023H784V403.023H796V396.023Z" fill="#3F3D56"/>
<path d="M820 396.023H808V403.023H820V396.023Z" fill="#3F3D56"/>
<path d="M844 396.023H832V403.023H844V396.023Z" fill="#3F3D56"/>
<path d="M868 396.023H856V403.023H868V396.023Z" fill="#3F3D56"/>
<path d="M892 396.023H880V403.023H892V396.023Z" fill="#3F3D56"/>
<path d="M916 396.023H904V403.023H916V396.023Z" fill="#3F3D56"/>
<path d="M940 396.023H928V403.023H940V396.023Z" fill="#3F3D56"/>
<path d="M967.5 400.523C967.5 438.714 952.329 475.341 925.323 502.347C898.318 529.352 861.691 544.523 823.5 544.523C785.309 544.523 748.682 529.352 721.677 502.347C694.671 475.341 679.5 438.714 679.5 400.523H967.5Z" fill="#3F3D56"/>
<path d="M960.54 401.443L868.94 128.403C886.867 122.375 905.807 119.941 924.676 121.239C943.545 122.537 961.973 127.542 978.906 135.968C995.84 144.393 1010.95 156.075 1023.36 170.343C1035.78 184.612 1045.26 201.188 1051.26 219.123C1052.23 222.013 1053.11 224.923 1053.89 227.833C1063.32 263.216 1058.91 300.862 1041.57 333.113C1024.23 365.363 995.256 389.797 960.54 401.443Z" fill="#3F3D56"/>
<path d="M964 423.023C973.941 423.023 982 414.964 982 405.023C982 395.082 973.941 387.023 964 387.023C954.059 387.023 946 395.082 946 405.023C946 414.964 954.059 423.023 964 423.023Z" fill="#3F3D56"/>
<path d="M781 438.023C779.674 438.023 778.403 438.55 777.465 439.488C776.527 440.425 776 441.697 776 443.023C776 444.349 776.527 445.621 777.465 446.559C778.403 447.497 779.674 448.023 781 448.023H867C868.327 448.023 869.598 447.497 870.536 446.559C871.474 445.621 872 444.349 872 443.023C872 441.697 871.474 440.425 870.536 439.488C869.598 438.55 868.327 438.023 867 438.023H781Z" fill="#FF8A68"/>
<path d="M943 661.023L925.094 661.685L860.584 522.95L876.906 515.361L943 661.023Z" fill="#3F3D56"/>
<path d="M704 661.023L721.906 661.685L786.416 522.95L770.094 515.361L704 661.023Z" fill="#3F3D56"/>
<path d="M898 581.023H750V591.023H898V581.023Z" fill="#3F3D56"/>
<path d="M872.601 123.306C871.898 123.306 871.205 123.471 870.577 123.788C869.949 124.104 869.404 124.564 868.985 125.129C868.567 125.694 868.287 126.35 868.168 127.043C868.048 127.736 868.093 128.447 868.298 129.12L872.092 141.554C872.442 142.694 873.229 143.65 874.282 144.21C875.336 144.77 876.568 144.889 877.709 144.541C878.85 144.193 879.806 143.406 880.367 142.353C880.928 141.301 881.049 140.068 880.702 138.927L876.908 126.493C876.625 125.571 876.054 124.764 875.279 124.19C874.504 123.617 873.565 123.307 872.601 123.306Z" fill="#FF8A68"/>
<path d="M673.5 403.023C672.307 403.023 671.162 403.497 670.318 404.341C669.474 405.185 669 406.33 669 407.523C669 408.717 669.474 409.861 670.318 410.705C671.162 411.549 672.307 412.023 673.5 412.023H686.5C687.693 412.023 688.838 411.549 689.682 410.705C690.526 409.861 691 408.717 691 407.523C691 406.33 690.526 405.185 689.682 404.341C688.838 403.497 687.693 403.023 686.5 403.023H673.5Z" fill="#FF8A68"/>
<path d="M781 370.023H727C726.66 370.023 726.33 370.033 726 370.063C722.472 370.315 719.17 371.893 716.758 374.481C714.347 377.068 713.004 380.472 713 384.009C712.996 387.546 714.332 390.954 716.738 393.546C719.144 396.138 722.443 397.724 725.97 397.983C726.31 398.013 726.65 398.023 727 398.023H781C784.713 398.023 788.274 396.548 790.9 393.923C793.525 391.297 795 387.736 795 384.023C795 380.31 793.525 376.749 790.9 374.124C788.274 371.498 784.713 370.023 781 370.023Z" fill="#FF6584"/>
<path opacity="0.2" d="M721.56 396.913C730.76 395.733 738 384.123 738 370.023H736C736 383.813 728.82 395.023 720 395.023V396.143L721.56 396.913Z" fill="black"/>
<path opacity="0.2" d="M741 397.023V395.023C749.822 395.023 757 383.808 757 370.023H759C759 384.911 750.925 397.023 741 397.023Z" fill="black"/>
<path opacity="0.2" d="M762 397.023V395.023C770.822 395.023 778 383.808 778 370.023H780C780 384.911 771.925 397.023 762 397.023Z" fill="black"/>
<path d="M879 370.023H825C824.66 370.023 824.33 370.033 824 370.063C820.472 370.315 817.17 371.893 814.758 374.481C812.347 377.068 811.004 380.472 811 384.009C810.996 387.546 812.332 390.954 814.738 393.546C817.144 396.138 820.443 397.724 823.97 397.983C824.31 398.013 824.65 398.023 825 398.023H879C882.713 398.023 886.274 396.548 888.9 393.923C891.525 391.297 893 387.736 893 384.023C893 380.31 891.525 376.749 888.9 374.124C886.274 371.498 882.713 370.023 879 370.023Z" fill="#FF6584"/>
<path opacity="0.2" d="M819.56 396.913C828.76 395.733 836 384.123 836 370.023H834C834 383.813 826.82 395.023 818 395.023V396.143L819.56 396.913Z" fill="black"/>
<path opacity="0.2" d="M839 397.023V395.023C847.822 395.023 855 383.808 855 370.023H857C857 384.911 848.925 397.023 839 397.023Z" fill="black"/>
<path opacity="0.2" d="M860 397.023V395.023C868.822 395.023 876 383.808 876 370.023H878C878 384.911 869.925 397.023 860 397.023Z" fill="black"/>
<path d="M777.048 235.58C769.971 231.756 761.222 235.926 757.695 242.694C753.406 250.926 756.961 260.822 761.963 267.858C767.161 275.17 774.216 281.205 777.686 289.654C781.005 297.605 781.399 306.476 778.797 314.69C776.194 322.905 770.765 329.931 763.473 334.521C760.218 336.58 763.225 341.774 766.501 339.702C773.653 335.234 779.311 328.736 782.754 321.038C786.196 313.339 787.266 304.79 785.827 296.48C785.096 292.171 783.704 288.001 781.698 284.118C779.523 280.155 776.904 276.453 773.89 273.083C768.685 266.923 762.132 260.131 761.806 251.56C761.746 250.448 761.823 249.333 762.036 248.24C762.192 247.477 762.424 246.731 762.729 246.014C763.457 244.474 764.536 243.126 765.881 242.081C767.127 241.086 768.602 240.419 770.172 240.138C771.488 239.943 772.833 240.16 774.02 240.761C777.417 242.596 780.45 237.418 777.048 235.58Z" fill="#E6E6E6"/>
<path d="M867.332 271.874C864.318 270.905 861.099 270.772 858.015 271.489C854.932 272.205 852.101 273.745 849.824 275.943C848.647 277.153 847.775 278.627 847.28 280.241C846.786 281.856 846.683 283.565 846.98 285.227C847.552 288.863 849.847 292.092 852.338 294.695C857.211 299.787 864.031 303.079 868.117 308.925C869.929 311.416 871.066 314.334 871.417 317.394C871.628 320.143 871.123 322.901 869.954 325.398C866.906 331.594 860.855 335.808 854.473 338.521C852.981 339.155 852.653 341.353 853.397 342.625C853.812 343.297 854.47 343.783 855.234 343.983C855.998 344.183 856.81 344.083 857.501 343.702C869.245 338.709 880.11 327.527 876.871 313.789C875.167 306.563 869.945 301.463 864.321 297.029C861.528 294.981 858.89 292.73 856.429 290.294C854.484 288.228 852.464 285.408 852.821 282.609C852.964 281.635 853.441 280.742 854.169 280.08C855.052 279.273 856.055 278.607 857.141 278.105C858.474 277.467 859.919 277.099 861.394 277.022C862.87 276.945 864.346 277.162 865.737 277.659C866.504 277.863 867.32 277.758 868.01 277.366C868.7 276.974 869.209 276.327 869.427 275.564C869.622 274.797 869.513 273.985 869.122 273.297C868.732 272.609 868.09 272.099 867.332 271.874V271.874Z" fill="#E6E6E6"/>
<path d="M821.655 186.524C819.867 184.997 817.61 184.128 815.26 184.062C813.031 184.103 810.864 184.804 809.032 186.075C804.895 189.081 801.968 193.466 800.779 198.44C797.748 210.053 801.702 222.57 807.197 232.798C809.975 237.969 813.21 242.877 816.007 248.037C818.703 252.972 820.773 258.225 822.168 263.673C825.015 274.843 825.269 286.517 822.911 297.8C820.51 309.032 815.459 320.153 806.866 327.902C806.303 328.464 805.987 329.228 805.987 330.023C805.987 330.819 806.303 331.582 806.866 332.144C807.428 332.707 808.191 333.023 808.987 333.023C809.783 333.023 810.546 332.707 811.108 332.145C818.735 325.266 823.836 315.832 826.915 306.13C830.312 295.173 831.306 283.612 829.828 272.235C829.16 266.57 827.87 260.996 825.982 255.613C823.936 250.191 821.38 244.975 818.35 240.034C812.71 230.499 806.707 220.856 805.891 209.503C805.489 203.92 806.188 198.1 809.642 193.611C809.453 193.856 809.793 193.432 809.795 193.43C810.004 193.179 810.221 192.935 810.446 192.698C810.875 192.238 811.335 191.809 811.824 191.415C811.72 191.497 811.455 191.674 811.938 191.339C812.179 191.173 812.424 191.013 812.676 190.864C812.881 190.744 813.092 190.637 813.302 190.526C813.427 190.462 813.553 190.402 813.681 190.346C813.389 190.472 813.406 190.473 813.731 190.349C813.965 190.276 815.128 190.025 814.483 190.106C814.698 190.08 814.914 190.066 815.131 190.064C815.222 190.062 816.032 190.104 815.636 190.061C815.174 190.01 816.002 190.143 816.008 190.144C816.267 190.207 816.521 190.288 816.769 190.385C816.145 190.136 817.793 191.063 817.413 190.767C817.987 191.306 818.746 191.607 819.534 191.607C820.322 191.607 821.081 191.306 821.655 190.767C822.69 189.732 822.942 187.524 821.655 186.524L821.655 186.524Z" fill="#E6E6E6"/>
<path d="M641.761 250.894C640.35 248.163 632.892 231.192 632.892 231.192L620.395 198.81C620.395 198.81 611.526 185.155 611.526 182.619C611.526 180.083 595.401 169.939 595.401 169.939C595.401 169.939 582.299 166.038 581.291 165.648C580.284 165.257 564.763 160.123 564.763 160.123C564.763 160.123 558.652 152.086 557.781 154.185L557.78 154.19C557.748 154.137 557.716 154.091 557.684 154.037C556.436 151.704 555.645 149.153 555.354 146.523C555.321 146.289 555.293 146.042 555.263 145.799C559.288 143.07 562.588 139.401 564.876 135.11C567.163 130.819 568.37 126.034 568.391 121.171C568.388 119.891 568.302 118.612 568.133 117.343C568.244 117.274 568.36 117.213 568.48 117.16C568.731 117.051 568.667 116.963 568.483 116.87C568.546 116.837 568.609 116.802 568.673 116.775C569.006 116.63 568.784 116.52 568.461 116.39L568.48 116.38C568.935 116.183 568.36 116.052 567.898 115.843C567.873 115.708 567.85 115.572 567.823 115.438C567.925 115.181 567.988 114.91 568.008 114.634C568.049 114.655 568.087 114.677 568.13 114.695C568.242 114.193 568.239 113.671 568.122 113.17C568.093 113.271 568.058 113.372 568.017 113.469C568.046 113.015 567.952 112.561 567.746 112.154C567.539 111.748 567.228 111.405 566.843 111.16C566.82 111.14 566.795 111.118 566.771 111.098L567.626 102.346C580.231 101.751 582.442 80.3062 579.567 79.1149C576.693 77.9235 579.567 75.3422 579.567 70.1797C579.567 65.0171 570.058 59.2589 570.058 59.2589C570.058 59.2589 566.078 61.2445 559.886 51.3165C553.695 41.3886 530.918 39.8001 529.37 42.3813C527.822 44.9626 517.65 48.3382 504.382 52.1108C491.114 55.8834 493.546 71.5696 495.758 74.9451C497.579 77.7358 498.646 80.9513 498.854 84.2774C498.854 86.263 503.055 94.6024 503.055 94.6024C501.73 97.4922 505.102 113.323 506.101 117.822C506.085 117.961 506.069 118.098 506.055 118.237C506.047 118.251 506.035 118.262 506.027 118.276C505.979 118.349 505.936 118.425 505.898 118.503C505.684 118.969 505.613 119.488 505.694 119.995C505.621 120.549 505.699 121.112 505.918 121.626C505.994 125.865 506.975 130.038 508.795 133.867C510.615 137.696 513.232 141.092 516.471 143.828C516.486 144.099 516.502 144.371 516.517 144.65C516.702 148.325 516.807 152.671 516.613 156.83C516.603 157.043 516.587 157.251 516.576 157.463C515.844 157.611 515.158 157.929 514.572 158.391C513.986 158.853 513.517 159.446 513.203 160.123C511.953 162.526 504.697 166.233 504.697 166.233C504.697 166.233 491.998 166.818 490.789 169.159C489.579 171.5 471.237 179.303 471.237 179.303C471.237 179.303 461.562 184.96 462.973 191.397C463.71 194.761 461.64 199.986 459.496 204.212C455.011 202.511 450.34 201.346 445.581 200.742L455.857 210.573C455.642 210.909 455.515 211.099 455.515 211.099L449.67 231.777C449.67 231.777 447.654 238.995 445.638 240.75C443.623 242.506 447.452 258.502 447.452 258.502C447.452 258.502 445.235 269.816 443.421 272.742C441.607 275.668 446.243 282.886 446.243 282.886L455.515 303.954L480.106 310.196C480.106 310.196 481.745 310.543 484.393 311.11C484.309 311.613 484.224 312.115 484.137 312.615C482.952 319.325 481.396 325.497 479.501 327.167C474.865 331.264 475.067 349.6 475.067 349.6L475.268 375.545C475.268 375.545 476.881 407.537 476.074 408.707C475.566 409.446 476.587 410.651 479.281 411.733C479.204 412.215 479.129 412.703 479.058 413.202C478.3 418.508 477.961 424.563 479.703 427.239C480.459 428.686 480.873 430.288 480.912 431.921C480.912 434.457 484.742 439.724 484.742 439.724C484.742 439.724 481.718 461.377 486.757 468.789C491.797 476.202 496.029 489.662 493.611 492.783C493.611 492.783 489.378 501.952 491.393 506.048C493.409 510.144 491.393 512.485 488.773 513.461C486.153 514.436 486.379 522.434 486.379 522.434L491.192 560.473C491.192 560.473 493.812 568.276 491.595 571.007C489.378 573.738 489.378 587.393 492.804 592.075C496.231 596.756 487.967 605.34 487.967 605.34C487.967 605.34 482.928 612.557 490.99 614.898C490.99 614.898 492.603 615.288 489.579 618.409C486.556 621.531 485.951 625.432 487.967 626.797C488.385 627.048 488.822 627.265 489.274 627.447C489.199 627.909 489.118 628.388 489.023 628.896C488.249 632.969 486.79 638.275 484.137 640.843C478.996 646.11 474.56 652.022 470.939 658.43C468.173 663.674 466.964 668.582 470.028 670.884C477.284 676.346 486.556 678.101 491.998 675.956C497.44 673.81 505.1 667.177 505.1 667.177L506.914 659.57C506.914 659.57 505.705 654.888 511.751 653.132C517.798 651.377 523.442 645.134 523.442 645.134V635.022C524.906 634.185 526.32 633.263 527.675 632.26C527.675 632.26 530.497 622.311 527.675 618.995C524.853 615.678 523.845 614.508 527.474 612.362C531.102 610.216 531.594 605.535 528.933 601.438C526.264 597.342 522.031 591.295 525.66 582.711C529.288 574.128 530.618 547.793 530.618 547.793C530.618 547.793 528.925 529.847 530.618 525.75C532.311 521.654 528.683 513.461 528.683 513.461C528.683 513.461 529.892 503.317 532.11 498.635C534.327 493.954 536.141 469.18 536.141 469.18C536.141 469.18 540.172 458.646 540.172 451.818C540.172 444.991 533.924 428.605 543.196 424.313C543.196 424.313 547.227 427.824 545.614 441.869C545.614 441.869 550.25 458.255 550.25 463.327C550.25 468.399 553.677 486.736 553.677 486.736C553.677 486.736 554.08 492.588 555.491 494.734C556.902 496.88 555.491 502.732 555.491 502.732C555.491 502.732 560.732 507.609 559.321 510.73C557.91 513.851 559.563 520.889 559.563 520.889L558.313 564.57C558.313 564.57 554.685 583.297 563.151 594.611C563.151 594.611 560.127 611.192 558.313 612.362C556.499 613.533 564.965 623.677 564.965 623.677C564.965 623.677 562.618 630.248 567.384 630.57V641.428C569.038 644.351 571.307 646.881 574.035 648.841C578.47 651.962 576.655 662.691 576.655 662.691C576.655 662.691 582.299 676.346 597.215 673.42C612.131 670.494 614.147 669.128 613.34 664.251C613.05 662.472 612.405 659.297 611.478 655.692C609.873 649.426 607.414 641.865 604.471 638.135C599.835 632.26 596.006 619.97 596.006 619.97C596.006 619.97 594.192 615.874 596.006 614.508C597.82 613.143 597.014 610.607 597.014 610.607C597.014 610.607 598.779 605.535 597.191 602.414C595.603 599.293 600.239 592.855 600.239 592.855L598.828 562.814L600.239 519.118C600.239 519.118 593.99 511.9 596.61 507.609C599.231 503.317 593.587 497.27 593.587 497.27C593.587 497.27 592.982 497.075 594.595 492.198C595.56 489.324 595.416 486.193 594.192 483.42C594.192 483.42 590.765 471.325 596.812 462.157C596.812 462.157 599.432 450.063 600.239 443.82C600.795 439.482 604.278 423.275 606.35 413.795C606.467 413.259 606.58 412.746 606.687 412.256C609.672 412.419 611.929 412.609 611.929 412.609C611.929 412.609 607.293 380.422 611.929 373.789C616.565 367.157 608.301 316.438 608.301 316.438C608.301 316.438 606.326 307.574 605.108 298.531C605.039 298.015 604.976 297.501 604.911 296.986C608.654 296.687 612.41 296.603 616.162 296.736C625.837 297.321 635.311 293.615 635.512 289.909C635.714 286.202 640.955 271.572 641.761 268.256C642.567 264.939 643.172 253.625 641.761 250.894Z" fill="url(#paint0_linear)"/>
<path d="M524.148 627.21V645.273C524.148 645.273 518.71 651.488 512.883 653.236C507.056 654.984 508.222 659.645 508.222 659.645L506.474 667.22C506.474 667.22 499.093 673.823 493.849 675.96C488.605 678.096 479.671 676.348 472.679 670.91C469.727 668.618 470.892 663.732 473.557 658.511C477.029 652.153 481.303 646.268 486.275 641C488.831 638.444 490.237 633.161 490.983 629.106C491.534 626.068 491.713 623.714 491.713 623.714L524.148 627.21Z" fill="#4C495A"/>
<path opacity="0.1" d="M524.148 640.689V645.273C524.148 645.273 518.71 651.488 512.883 653.236C507.056 654.984 508.222 659.645 508.222 659.645L506.474 667.22C506.474 667.22 499.093 673.823 493.849 675.96C488.605 678.096 479.671 676.348 472.679 670.91C469.727 668.618 470.892 663.731 473.557 658.511C473.433 663.996 475.056 670.156 482.973 669.939C491.517 669.668 499.751 666.673 506.474 661.393C506.474 661.393 506.279 648.574 515.214 645.661C518.479 644.583 521.511 642.896 524.148 640.689Z" fill="black"/>
<path d="M595.233 673.435C580.861 676.348 575.422 662.753 575.422 662.753C575.422 662.753 577.17 652.07 572.898 648.963C570.255 646.992 568.069 644.475 566.488 641.582V623.714L583.968 611.284L593.431 619.659L594.068 620.218C594.068 620.218 597.758 632.454 602.225 638.304C605.061 642.017 607.43 649.545 608.976 655.784C609.87 659.373 610.491 662.535 610.771 664.306C611.548 669.162 609.605 670.521 595.233 673.435Z" fill="#4C495A"/>
<path opacity="0.1" d="M595.233 673.435C580.861 676.348 575.422 662.753 575.422 662.753C575.422 662.753 577.17 652.07 572.898 648.963C570.255 646.992 568.069 644.475 566.488 641.582V634.66C569.262 637.589 574.49 643.26 575.617 645.661C577.17 648.963 577.365 661.005 584.551 663.141C591.737 665.277 605.721 667.22 606.886 661.781C607.371 659.715 608.071 657.704 608.976 655.784C609.87 659.373 610.491 662.535 610.771 664.306C611.548 669.162 609.605 670.521 595.233 673.435Z" fill="black"/>
<path opacity="0.1" d="M491.713 623.714L524.148 627.21V636.758C520.489 638.925 515.245 641.225 512.3 638.863C507.95 635.383 495.014 630.962 490.982 629.106C491.534 626.068 491.713 623.714 491.713 623.714Z" fill="black"/>
<path opacity="0.1" d="M594.068 621.772C589.601 620.218 581.638 627.016 571.15 631.289C569.692 631.975 568.1 632.331 566.488 632.33V623.714L583.968 611.284L593.431 619.659C593.577 620.381 593.79 621.089 594.068 621.772Z" fill="black"/>
<path d="M605.526 407.934C605.526 407.934 604.913 410.793 604.035 414.941C602.038 424.381 598.682 440.517 598.146 444.836C597.369 451.051 594.844 463.093 594.844 463.093C589.018 472.221 592.319 484.263 592.319 484.263C593.5 487.034 593.638 490.138 592.708 493.003C591.154 497.859 591.737 498.053 591.737 498.053C591.737 498.053 597.175 504.074 594.65 508.346C592.125 512.619 598.146 519.806 598.146 519.806L596.786 563.311L598.146 593.221C598.146 593.221 593.679 599.631 595.209 602.738C596.74 605.846 595.038 610.895 595.038 610.895C595.038 610.895 595.815 613.42 594.067 614.78C592.319 616.139 594.067 620.218 594.067 620.218C589.6 618.664 581.637 625.462 571.149 629.735C560.661 634.008 564.157 623.908 564.157 623.908C564.157 623.908 556 613.809 557.748 612.643C559.496 611.478 562.409 594.969 562.409 594.969C554.252 583.704 557.748 565.059 557.748 565.059L558.952 521.569C558.952 521.569 557.359 514.562 558.719 511.454C560.079 508.347 555.029 503.491 555.029 503.491C555.029 503.491 556.388 497.664 555.029 495.528C553.669 493.391 553.281 487.565 553.281 487.565C553.281 487.565 549.979 469.308 549.979 464.258C549.979 459.208 545.512 442.894 545.512 442.894C547.066 428.91 543.181 425.414 543.181 425.414C534.247 429.687 540.268 446.001 540.268 452.799C540.268 459.597 536.384 470.085 536.384 470.085C536.384 470.085 534.636 494.751 532.499 499.412C530.363 504.074 529.197 514.173 529.197 514.173C529.197 514.173 532.693 522.33 531.062 526.409C529.43 530.488 531.062 548.356 531.062 548.356C531.062 548.356 529.78 574.576 526.284 583.122C522.788 591.668 526.867 597.688 529.438 601.767C532.002 605.846 531.528 610.507 528.032 612.643C524.536 614.78 525.507 615.945 528.226 619.247C530.945 622.549 528.226 632.454 528.226 632.454C528.226 632.454 517.156 641.194 512.3 637.31C507.445 633.425 491.907 628.375 489.965 627.016C488.022 625.656 488.605 621.772 491.518 618.664C494.432 615.557 492.878 615.168 492.878 615.168C485.109 612.838 489.965 605.651 489.965 605.651C489.965 605.651 497.928 597.106 494.626 592.444C491.324 587.783 491.324 574.188 493.461 571.469C495.597 568.749 493.072 560.98 493.072 560.98L488.434 523.107C488.434 523.107 488.217 515.144 490.741 514.173C493.266 513.202 495.209 510.871 493.266 506.793C491.324 502.714 495.403 493.586 495.403 493.586C497.733 490.478 493.655 477.077 488.799 469.696C483.944 462.316 486.857 440.757 486.857 440.757C486.857 440.757 483.167 435.513 483.167 432.989C483.131 431.367 482.732 429.775 482.001 428.327C480.323 425.663 480.65 419.634 481.38 414.351C482.087 409.239 483.167 404.826 483.167 404.826L605.526 407.934Z" fill="#5F5D7E"/>
<path d="M567.459 187.881L529.198 196.815C529.198 196.815 510.358 180.889 515.019 172.343C516.62 169.407 517.327 164.396 517.568 159.097C517.754 154.957 517.653 150.629 517.474 146.97C517.202 141.68 516.767 137.772 516.767 137.772C516.767 137.772 556 115.631 554.641 137.772C554.364 141.459 554.45 145.164 554.897 148.835C555.174 151.446 555.936 153.983 557.142 156.316C559.24 160.053 561.827 160.107 561.827 160.107L567.459 187.881Z" fill="#FDC2CC"/>
<path opacity="0.1" d="M554.897 148.835C549.368 152.801 542.657 154.776 535.86 154.438C529.064 154.099 522.582 151.467 517.474 146.97C517.203 141.68 516.768 137.772 516.768 137.772C516.768 137.772 556 115.631 554.641 137.772C554.364 141.459 554.45 145.164 554.897 148.835Z" fill="black"/>
<path d="M537.355 153.698C553.981 153.698 567.459 140.22 567.459 123.594C567.459 106.968 553.981 93.4895 537.355 93.4895C520.729 93.4895 507.25 106.968 507.25 123.594C507.25 140.22 520.729 153.698 537.355 153.698Z" fill="#FDC2CC"/>
<path opacity="0.1" d="M567.459 187.881L529.198 196.815C529.198 196.815 510.358 180.889 515.019 172.343C516.62 169.407 517.327 164.396 517.568 159.097C518.412 163.705 520.886 167.855 524.536 170.79C533.276 176.616 531.917 183.802 531.917 183.802L547.649 183.22C546.677 176.81 552.504 173.314 554.446 172.538C556.389 171.761 555.417 168.265 555.417 168.265L557.142 156.316C559.24 160.053 561.827 160.107 561.827 160.107L567.459 187.881Z" fill="black"/>
<path opacity="0.1" d="M605.527 407.934C605.527 407.934 604.913 410.793 604.035 414.941C599.809 414.716 594.223 414.553 591.737 415.12C587.464 416.091 570.373 416.48 570.373 416.48L528.032 417.979V416.674C523.162 416.713 518.298 417.037 513.466 417.645C506.28 418.616 495.015 417.257 487.829 416.091C485.617 415.774 483.451 415.19 481.38 414.351C482.087 409.239 483.167 404.826 483.167 404.826L605.527 407.934Z" fill="black"/>
<path d="M602.225 284.603C601.611 288.231 602.062 294.244 602.839 300.18C604.012 309.184 605.915 318.009 605.915 318.009C605.915 318.009 613.878 368.507 609.411 375.111C604.944 381.714 609.411 413.761 609.411 413.761C609.411 413.761 596.01 412.595 591.737 413.566C587.464 414.538 570.373 414.926 570.373 414.926L528.032 416.425V415.12C523.162 415.159 518.298 415.484 513.466 416.091C506.28 417.062 495.015 415.703 487.829 414.537C480.642 413.372 477.729 411.041 478.506 409.876C479.283 408.711 477.729 376.859 477.729 376.859L477.535 351.027C477.535 351.027 477.341 332.77 481.808 328.692C483.633 327.029 485.133 320.884 486.275 314.203C487.914 304.53 488.8 293.732 488.8 293.732L459.278 214.684L458.695 213.13C458.695 213.13 467.241 199.923 465.882 193.513C464.522 187.104 473.845 181.472 473.845 181.472C473.845 181.472 491.519 173.703 492.684 171.372C493.849 169.042 506.085 168.459 506.085 168.459C506.085 168.459 513.077 164.769 514.282 162.376C514.575 161.708 515.023 161.119 515.589 160.658C516.155 160.197 516.823 159.878 517.537 159.727C518.36 164.391 520.847 168.597 524.536 171.567C533.276 177.393 531.917 184.579 531.917 184.579L547.649 183.997C546.678 177.587 552.504 174.091 554.447 173.314C556.389 172.538 555.418 169.042 555.418 169.042L557.236 156.464C558.074 154.374 563.963 162.376 563.963 162.376C563.963 162.376 578.918 167.488 579.889 167.876C580.861 168.265 593.485 172.149 593.485 172.149C593.485 172.149 609.023 182.249 609.023 184.774C609.023 187.298 617.568 200.894 617.568 200.894C617.568 200.894 617.467 201.438 617.281 202.432C615.308 213.138 603.647 276.252 602.225 284.603Z" fill="#5F3973"/>
<path d="M540.074 253.139C540.074 253.139 506.474 244.205 503.172 242.069C499.87 239.932 480.448 252.362 504.143 269.26C504.143 269.26 533.117 275.281 540.869 269.26C548.62 263.239 540.074 253.139 540.074 253.139Z" fill="#FDC2CC"/>
<path opacity="0.1" d="M612.713 199.923L616.791 200.117L628.833 232.358C628.833 232.358 636.019 249.255 637.379 251.974C638.738 254.693 638.156 265.958 637.379 269.26C636.602 272.562 631.552 287.128 631.358 290.818C631.164 294.509 622.035 298.199 612.713 297.616C603.39 297.034 581.637 299.947 581.637 299.947C581.637 299.947 558.406 297.519 544.153 304.802C544.153 304.802 535.024 285.963 535.995 250.809C535.995 250.809 552.116 249.838 556.194 251.392C560.273 252.945 580.083 257.412 582.608 255.082C585.133 252.751 596.592 259.355 596.592 259.355C597.175 258.074 597.477 256.683 597.477 255.276C597.477 253.869 597.175 252.478 596.592 251.197C594.65 246.536 591.348 231.969 595.621 227.308C599.894 222.647 612.713 199.923 612.713 199.923Z" fill="black"/>
<path opacity="0.1" d="M602.838 300.18C593.197 300.832 582.414 302.277 582.414 302.277C582.414 302.277 559.185 299.846 544.929 307.133C544.929 307.133 535.801 288.294 536.772 253.139C536.772 253.139 552.892 252.168 556.971 253.722C561.05 255.276 580.86 259.743 583.385 257.412C585.91 255.082 597.369 261.685 597.369 261.685C597.952 260.405 598.254 259.014 598.254 257.607C598.254 256.199 597.952 254.809 597.369 253.528C595.427 248.867 592.125 234.3 596.398 229.639C600.671 224.977 613.489 202.253 613.489 202.253L617.281 202.432C615.307 213.138 603.646 276.252 602.225 284.603C601.611 288.231 602.062 294.244 602.838 300.18Z" fill="black"/>
<path d="M613.49 200.7L617.568 200.894L629.61 233.135C629.61 233.135 636.796 250.032 638.156 252.751C639.515 255.47 638.933 266.735 638.156 270.037C637.379 273.339 632.329 287.905 632.135 291.595C631.941 295.286 622.812 298.976 613.49 298.393C604.167 297.81 582.414 300.724 582.414 300.724C582.414 300.724 559.183 298.296 544.929 305.579C544.929 305.579 535.801 286.74 536.772 251.586C536.772 251.586 552.892 250.615 556.971 252.168C561.05 253.722 580.86 258.189 583.385 255.859C585.91 253.528 597.369 260.131 597.369 260.131C597.952 258.851 598.254 257.46 598.254 256.053C598.254 254.646 597.952 253.255 597.369 251.974C595.427 247.313 592.125 232.746 596.398 228.085C600.671 223.424 613.49 200.7 613.49 200.7Z" fill="#5F3973"/>
<path d="M572.456 272.04L577.302 275.04L604.309 231.424L599.462 228.424L572.456 272.04Z" fill="#DFE6F5"/>
<path d="M618.156 225.518C622.929 217.809 622.416 208.847 617.009 205.499C611.603 202.151 603.35 205.686 598.578 213.395C593.805 221.103 594.318 230.066 599.725 233.413C605.131 236.761 613.383 233.226 618.156 225.518Z" fill="#DFE6F5"/>
<path opacity="0.1" d="M615.394 223.807C618.82 218.274 618.451 211.841 614.571 209.438C610.69 207.035 604.766 209.572 601.34 215.105C597.914 220.638 598.283 227.072 602.164 229.474C606.045 231.877 611.968 229.34 615.394 223.807Z" fill="black"/>
<path d="M558.653 294.332L563.499 297.333L580.303 270.194L575.457 267.193L558.653 294.332Z" fill="#53526B"/>
<path d="M530.169 296.257L542.016 292.955C542.016 292.955 600.477 294.509 580.861 270.425C580.861 270.425 570.567 260.52 549.008 268.483C527.45 276.446 521.429 277.417 521.429 277.417L530.169 296.257Z" fill="#FDC2CC"/>
<path opacity="0.1" d="M521.429 194.679C522.716 194.679 523.759 193.635 523.759 192.348C523.759 191.061 522.716 190.018 521.429 190.018C520.142 190.018 519.098 191.061 519.098 192.348C519.098 193.635 520.142 194.679 521.429 194.679Z" fill="black"/>
<path opacity="0.1" d="M561.439 193.319C562.726 193.319 563.769 192.276 563.769 190.989C563.769 189.701 562.726 188.658 561.439 188.658C560.151 188.658 559.108 189.701 559.108 190.989C559.108 192.276 560.151 193.319 561.439 193.319Z" fill="black"/>
<path d="M521.429 193.902C522.716 193.902 523.759 192.859 523.759 191.571C523.759 190.284 522.716 189.241 521.429 189.241C520.142 189.241 519.098 190.284 519.098 191.571C519.098 192.859 520.142 193.902 521.429 193.902Z" fill="white"/>
<path opacity="0.1" d="M524.731 226.92C526.018 226.92 527.061 225.876 527.061 224.589C527.061 223.302 526.018 222.258 524.731 222.258C523.443 222.258 522.4 223.302 522.4 224.589C522.4 225.876 523.443 226.92 524.731 226.92Z" fill="black"/>
<path opacity="0.1" d="M562.604 224.589C563.891 224.589 564.934 223.546 564.934 222.258C564.934 220.971 563.891 219.928 562.604 219.928C561.316 219.928 560.273 220.971 560.273 222.258C560.273 223.546 561.316 224.589 562.604 224.589Z" fill="black"/>
<path d="M524.731 226.143C526.018 226.143 527.061 225.099 527.061 223.812C527.061 222.525 526.018 221.481 524.731 221.481C523.443 221.481 522.4 222.525 522.4 223.812C522.4 225.099 523.443 226.143 524.731 226.143Z" fill="white"/>
<path opacity="0.1" d="M561.632 337.056C562.92 337.056 563.963 336.013 563.963 334.726C563.963 333.438 562.92 332.395 561.632 332.395C560.345 332.395 559.302 333.438 559.302 334.726C559.302 336.013 560.345 337.056 561.632 337.056Z" fill="black"/>
<path opacity="0.1" d="M530.959 337.056C532.246 337.056 533.29 336.013 533.29 334.726C533.29 333.438 532.246 332.395 530.959 332.395C529.672 332.395 528.628 333.438 528.628 334.726C528.628 336.013 529.672 337.056 530.959 337.056Z" fill="black"/>
<path d="M561.632 336.279C562.92 336.279 563.963 335.236 563.963 333.949C563.963 332.662 562.92 331.618 561.632 331.618C560.345 331.618 559.302 332.662 559.302 333.949C559.302 335.236 560.345 336.279 561.632 336.279Z" fill="white"/>
<path opacity="0.1" d="M533.29 376.082C534.577 376.082 535.62 375.038 535.62 373.751C535.62 372.464 534.577 371.42 533.29 371.42C532.002 371.42 530.959 372.464 530.959 373.751C530.959 375.038 532.002 376.082 533.29 376.082Z" fill="black"/>
<path opacity="0.1" d="M562.604 373.751C563.891 373.751 564.934 372.708 564.934 371.42C564.934 370.133 563.891 369.09 562.604 369.09C561.316 369.09 560.273 370.133 560.273 371.42C560.273 372.708 561.316 373.751 562.604 373.751Z" fill="black"/>
<path d="M533.29 375.305C534.577 375.305 535.62 374.261 535.62 372.974C535.62 371.687 534.577 370.643 533.29 370.643C532.002 370.643 530.959 371.687 530.959 372.974C530.959 374.261 532.002 375.305 533.29 375.305Z" fill="white"/>
<path d="M530.959 336.279C532.246 336.279 533.29 335.236 533.29 333.949C533.29 332.662 532.246 331.618 530.959 331.618C529.672 331.618 528.628 332.662 528.628 333.949C528.628 335.236 529.672 336.279 530.959 336.279Z" fill="white"/>
<path d="M562.604 372.974C563.891 372.974 564.934 371.931 564.934 370.643C564.934 369.356 563.891 368.313 562.604 368.313C561.316 368.313 560.273 369.356 560.273 370.643C560.273 371.931 561.316 372.974 562.604 372.974Z" fill="white"/>
<path d="M561.439 192.542C562.726 192.542 563.769 191.499 563.769 190.212C563.769 188.925 562.726 187.881 561.439 187.881C560.151 187.881 559.108 188.925 559.108 190.212C559.108 191.499 560.151 192.542 561.439 192.542Z" fill="white"/>
<path d="M562.604 223.812C563.891 223.812 564.934 222.768 564.934 221.481C564.934 220.194 563.891 219.151 562.604 219.151C561.316 219.151 560.273 220.194 560.273 221.481C560.273 222.768 561.316 223.812 562.604 223.812Z" fill="white"/>
<path opacity="0.1" d="M566.1 303.249C566.1 303.249 566.488 356.465 567.653 365.982C567.653 365.982 568.076 305.757 566.1 303.249Z" fill="black"/>
<path opacity="0.1" d="M576.005 327.915C575.204 327.915 591.931 390.26 592.708 394.727C593.485 399.194 580.666 327.915 576.005 327.915Z" fill="black"/>
<path opacity="0.1" d="M589.212 317.815C589.212 318.398 598.535 351.61 603.196 353.358C607.857 355.106 589.212 317.815 589.212 317.815Z" fill="black"/>
<path opacity="0.1" d="M625.92 253.139C625.92 253.139 606.109 254.022 605.527 256.883C604.944 259.743 625.92 253.139 625.92 253.139Z" fill="black"/>
<path opacity="0.1" d="M590.96 506.404C590.96 506.404 576.782 512.425 578.919 512.814C581.055 513.202 590.96 506.404 590.96 506.404Z" fill="black"/>
<path opacity="0.1" d="M561.633 497.47C561.081 496.228 571.15 502.52 571.15 503.297C571.15 504.074 562.41 499.218 561.633 497.47Z" fill="black"/>
<path opacity="0.1" d="M574.84 517.863C574.84 517.863 585.91 517.305 586.687 521.566C587.464 525.826 574.84 517.863 574.84 517.863Z" fill="black"/>
<path opacity="0.1" d="M495.209 517.839C495.209 517.839 507.251 515.485 508.222 517.839C509.193 520.194 495.209 517.839 495.209 517.839Z" fill="black"/>
<path opacity="0.1" d="M499.676 591.085C499.676 591.085 500.466 600.99 497.546 603.321C494.626 605.651 499.676 591.085 499.676 591.085Z" fill="black"/>
<path opacity="0.1" d="M498.205 612.061C502.006 612.449 522.011 608.953 521.817 612.061C521.623 615.168 498.205 612.061 498.205 612.061Z" fill="black"/>
<path opacity="0.1" d="M589.989 600.019C589.989 600.019 583.166 598.97 584.83 603.573L589.989 600.019Z" fill="black"/>
<path opacity="0.1" d="M463.162 212.353H459.472L453.84 232.941C453.84 232.941 451.897 240.127 449.955 241.875C448.013 243.623 451.703 259.549 451.703 259.549C451.703 259.549 449.567 270.814 447.819 273.727C446.071 276.64 450.538 283.827 450.538 283.827L459.472 304.802L483.167 311.018C483.167 311.018 524.925 320.146 526.867 321.506C528.809 322.865 530.557 320.923 531.917 308.299C533.276 295.674 536.966 271.202 539.88 270.037C539.88 270.037 516.573 272.562 514.631 272.173C512.689 271.785 503.366 272.368 503.366 272.368C503.366 272.368 491.13 271.591 489.188 272.756C487.246 273.921 491.713 267.115 491.713 267.115C492.531 263.998 492.531 260.723 491.713 257.607C490.353 252.363 489.576 192.931 463.162 212.353Z" fill="black"/>
<path opacity="0.1" d="M539.103 272.367C536.19 273.533 532.499 298.005 531.14 310.629C529.78 323.253 528.032 325.196 526.09 323.836C524.513 322.733 496.677 316.502 486.275 314.203C487.914 304.53 488.799 293.732 488.799 293.732L459.278 214.684H462.385C488.799 195.261 489.576 254.693 490.936 259.937C491.754 263.054 491.754 266.329 490.936 269.446C490.936 269.446 486.469 276.252 488.411 275.087C490.353 273.921 502.589 274.698 502.589 274.698C502.589 274.698 511.912 274.115 513.854 274.504C515.796 274.892 539.103 272.367 539.103 272.367Z" fill="black"/>
<path d="M462.385 213.13H458.695L453.063 233.717C453.063 233.717 451.121 240.904 449.178 242.652C447.236 244.4 450.926 260.326 450.926 260.326C450.926 260.326 448.79 271.591 447.042 274.504C445.294 277.417 449.761 284.603 449.761 284.603L458.695 305.579L482.39 311.794C482.39 311.794 524.148 320.923 526.09 322.282C528.032 323.642 529.78 321.7 531.14 309.075C532.499 296.451 536.19 271.979 539.103 270.814C539.103 270.814 515.796 273.339 513.854 272.95C511.912 272.562 502.589 273.144 502.589 273.144C502.589 273.144 490.353 272.368 488.411 273.533C486.469 274.698 490.936 267.892 490.936 267.892C491.754 264.775 491.754 261.5 490.936 258.384C489.576 253.14 488.8 193.708 462.385 213.13Z" fill="#5F3973"/>
<path opacity="0.1" d="M475.01 283.438C475.01 283.438 464.328 303.637 462.385 301.306C460.443 298.976 475.01 283.438 475.01 283.438Z" fill="black"/>
<path opacity="0.1" d="M463.939 271.936C463.939 271.936 454.034 280.136 458.695 282.273C463.356 284.409 463.939 271.936 463.939 271.936Z" fill="black"/>
<path opacity="0.1" d="M473.262 261.879C474.039 262.074 487.634 264.774 487.828 265.949C488.023 267.123 473.262 261.879 473.262 261.879Z" fill="black"/>
<path opacity="0.1" d="M567.545 119.601C567.122 119.749 566.762 120.035 566.521 120.412C566.28 120.79 566.173 121.237 566.216 121.683C565.424 122.382 564.313 121.558 563.668 120.665C563.015 119.779 562.277 118.684 561.291 118.808C560.822 118.958 560.367 119.147 559.931 119.375C558.377 119.872 557.064 118.047 556.194 116.446C554.679 113.642 553.164 110.84 551.649 108.041C548.612 109.804 545.023 107.955 542.008 106.129C538.994 104.304 535.405 102.447 532.359 104.21C527.892 106.79 527.729 115.39 523.099 117.511C521.607 118.194 519.875 118.047 518.492 118.987C517.125 119.919 516.387 121.714 515.773 123.431C515.546 124.408 515.012 125.287 514.25 125.94C513.766 126.193 513.227 126.324 512.681 126.321C511.308 126.554 509.897 126.356 508.641 125.754C507.983 125.34 507.486 124.714 507.231 123.98C506.977 123.245 506.981 122.446 507.243 121.714C507.279 121.636 507.321 121.561 507.367 121.488C507.865 120.887 508.312 120.245 508.703 119.57C509.169 118.334 508.501 116.897 508.649 115.561C508.89 113.277 511.306 112.073 511.718 109.827C511.888 108.949 511.71 108.009 511.873 107.124C511.896 107.008 511.927 106.894 511.966 106.782L510.544 107.761C512.137 105.904 512.937 103.325 514.103 101.072C515.397 98.6051 517.179 96.4265 519.339 94.6679C521.5 92.9092 523.994 91.6071 526.673 90.8402C531.738 89.3642 537.091 89.7681 542.203 91.0189C547.064 92.23 551.72 94.1486 556.023 96.7135C557.561 97.5379 558.926 98.648 560.048 99.9842C560.987 101.37 561.786 102.845 562.433 104.389C563.94 107.512 568.057 110.402 564.779 110.837C562.052 111.202 564.538 113.114 565.968 114.403C566.29 114.656 566.568 114.961 566.791 115.304C567.028 115.796 567.137 116.339 567.107 116.884C567.077 117.429 566.91 117.957 566.62 118.42C566.068 119.119 568.306 119.259 567.545 119.601Z" fill="black"/>
<path d="M567.545 118.824C567.122 118.972 566.762 119.258 566.521 119.636C566.28 120.013 566.173 120.46 566.216 120.906C565.424 121.605 564.313 120.782 563.668 119.888C563.015 119.002 562.277 117.907 561.291 118.031C560.822 118.181 560.367 118.371 559.931 118.598C558.377 119.096 557.064 117.27 556.194 115.67C554.679 112.865 553.164 110.063 551.649 107.264C548.612 109.027 545.023 107.178 542.008 105.353C538.994 103.527 535.405 101.67 532.359 103.434C527.892 106.013 527.729 114.613 523.099 116.734C521.607 117.418 519.875 117.27 518.492 118.21C517.125 119.142 516.387 120.937 515.773 122.654C515.546 123.631 515.012 124.51 514.25 125.163C513.766 125.416 513.227 125.547 512.681 125.544C511.308 125.777 509.897 125.579 508.641 124.977C507.983 124.563 507.486 123.937 507.231 123.203C506.977 122.468 506.981 121.669 507.243 120.937C507.279 120.859 507.321 120.784 507.367 120.712C507.865 120.11 508.312 119.468 508.703 118.793C509.169 117.557 508.501 116.12 508.649 114.784C508.89 112.5 511.306 111.296 511.718 109.051C511.888 108.173 511.71 107.233 511.873 106.347C511.896 106.231 511.927 106.117 511.966 106.005L510.544 106.984C512.137 105.127 512.937 102.548 514.103 100.295C515.397 97.8282 517.179 95.6497 519.339 93.891C521.5 92.1324 523.994 90.8303 526.673 90.0634C531.738 88.5873 537.091 88.9913 542.203 90.2421C547.064 91.4531 551.72 93.3718 556.023 95.9367C557.561 96.7611 558.926 97.8711 560.048 99.2074C560.987 100.593 561.786 102.068 562.433 103.612C563.94 106.735 568.057 109.625 564.779 110.06C562.052 110.426 564.538 112.337 565.968 113.626C566.29 113.879 566.568 114.184 566.791 114.528C567.028 115.019 567.137 115.562 567.107 116.107C567.077 116.652 566.91 117.18 566.62 117.643C566.068 118.342 568.306 118.482 567.545 118.824Z" fill="#FF8A68"/>
<path opacity="0.1" d="M565.968 113.626L565.657 116.897C565.657 116.897 533.059 75.5823 507.701 122.234C507.701 122.234 507.577 121.667 507.367 120.712C507.865 120.11 508.312 119.468 508.703 118.793C509.17 117.557 508.501 116.12 508.649 114.784C508.89 112.5 511.306 111.296 511.718 109.051C511.889 108.173 511.71 107.233 511.873 106.347C511.896 106.231 511.927 106.117 511.966 106.005L510.545 106.984C512.137 105.127 512.938 102.548 514.103 100.295C515.397 97.8282 517.179 95.6497 519.339 93.891C521.5 92.1324 523.995 90.8303 526.673 90.0634C531.738 88.5873 537.091 88.9913 542.203 90.2421C547.064 91.4531 551.72 93.3718 556.024 95.9367C557.561 96.7611 558.927 97.8711 560.048 99.2074C560.987 100.593 561.786 102.068 562.433 103.612C563.94 106.735 568.058 109.625 564.779 110.06C562.052 110.426 564.538 112.337 565.968 113.626Z" fill="black"/>
<g opacity="0.1">
<path opacity="0.1" d="M566.771 118.401C566.611 118.581 566.494 118.797 566.429 119.03C566.365 119.263 566.356 119.508 566.402 119.745C565.609 120.445 564.498 119.621 563.854 118.728C563.201 117.842 562.463 116.747 561.476 116.871C561.008 117.02 560.553 117.21 560.117 117.438C558.563 117.935 557.25 116.11 556.38 114.509C554.865 111.705 553.35 108.903 551.835 106.103C548.797 107.867 545.208 106.018 542.194 104.192C539.18 102.366 535.59 100.51 532.545 102.273C528.078 104.852 527.915 113.453 523.285 115.573C521.793 116.257 520.06 116.109 518.678 117.05C517.31 117.982 516.572 119.776 515.958 121.493C515.731 122.471 515.198 123.35 514.436 124.003C513.952 124.256 513.413 124.387 512.866 124.383C511.494 124.617 510.082 124.418 508.827 123.816C508.074 123.317 507.535 122.556 507.313 121.681C507.158 122.377 507.221 123.103 507.491 123.763C507.762 124.422 508.228 124.983 508.827 125.37C510.082 125.972 511.494 126.17 512.866 125.937C513.413 125.94 513.952 125.81 514.436 125.556C515.198 124.904 515.731 124.024 515.958 123.047C516.572 121.33 517.31 119.536 518.678 118.603C520.06 117.663 521.793 117.811 523.285 117.127C527.915 115.006 528.078 106.406 532.545 103.827C535.59 102.063 539.18 103.92 542.194 105.746C545.208 107.571 548.797 109.421 551.835 107.657C553.35 110.454 554.865 113.256 556.38 116.063C557.25 117.663 558.563 119.489 560.117 118.992C560.553 118.764 561.008 118.574 561.476 118.425C562.463 118.3 563.201 119.396 563.854 120.281C564.498 121.175 565.609 121.998 566.402 121.299C566.359 120.854 566.466 120.406 566.707 120.029C566.948 119.651 567.308 119.366 567.73 119.217C568.336 118.945 567.048 118.8 566.771 118.401Z" fill="black"/>
<path opacity="0.1" d="M564.231 110.639C564.466 110.544 564.713 110.482 564.964 110.454C566.41 110.262 566.416 109.592 565.843 108.636C565.571 108.783 565.272 108.873 564.964 108.9C563.405 109.109 563.553 109.824 564.231 110.639Z" fill="black"/>
<path opacity="0.1" d="M567.207 117.146C567.316 116.645 567.313 116.127 567.199 115.627C567.13 115.937 566.996 116.228 566.806 116.482C566.562 116.791 566.862 116.99 567.207 117.146Z" fill="black"/>
<path opacity="0.1" d="M508.879 114.909C508.863 114.997 508.844 115.085 508.834 115.177C508.803 115.877 508.854 116.578 508.986 117.266C509.078 116.479 509.042 115.683 508.879 114.909Z" fill="black"/>
<path opacity="0.1" d="M512.033 105.43C511.668 106.123 511.231 106.775 510.73 107.377L511.984 106.514C511.978 106.152 511.994 105.79 512.033 105.43Z" fill="black"/>
</g>
<path d="M507.7 121.457C507.7 121.457 503.012 100.502 504.503 97.1411C504.503 97.1411 500.455 88.8379 500.455 86.861C500.259 83.5621 499.232 80.3661 497.472 77.5694C495.341 74.2086 492.997 58.5907 505.782 54.8346C518.566 51.0784 528.368 47.7176 529.86 45.1476C531.351 42.5776 553.298 44.1591 559.264 54.0438C565.23 63.9285 569.066 61.9515 569.066 61.9515C569.066 61.9515 578.228 67.6847 578.228 72.8247C578.228 77.9648 575.458 80.5348 578.228 81.7209C580.998 82.9071 578.867 104.258 566.722 104.851L565.656 116.12C565.656 116.12 533.056 74.8016 507.7 121.457Z" fill="#5F3973"/>
<path opacity="0.1" d="M509.096 58.918C509.096 58.918 506.279 75.4268 511.426 80.9621L509.096 58.918Z" fill="black"/>
<path opacity="0.1" d="M522.303 55.1306C522.303 55.1306 515.116 72.8048 516.864 76.2036L522.303 55.1306Z" fill="black"/>
<path opacity="0.1" d="M528.518 49.4983C528.518 49.4983 523.662 72.5135 525.993 74.3586L528.518 49.4983Z" fill="black"/>
<path opacity="0.1" d="M536.869 55.7134C536.869 55.7134 530.848 70.4742 533.276 72.5135L536.869 55.7134Z" fill="black"/>
<path opacity="0.1" d="M548.232 57.4614C548.232 57.4614 541.142 69.5032 542.599 71.6396L548.232 57.4614Z" fill="black"/>
<path opacity="0.1" d="M562.798 69.2117C562.798 69.2117 555.223 71.251 556.777 73.6788L562.798 69.2117Z" fill="black"/>
<path opacity="0.1" d="M569.984 81.739C569.984 81.739 563.186 85.0408 564.449 86.7888L569.984 81.739Z" fill="black"/>
<path opacity="0.1" d="M504.503 97.1409C504.503 97.1409 547.922 79.5047 566.722 104.851C566.722 104.851 543.902 85.4489 504.503 97.1409Z" fill="black"/>
<path d="M488.813 242.052L494.863 235.932L511.968 252.84L505.918 258.961L490.187 243.411L488.813 242.052Z" fill="#53526B"/>
<path d="M449.124 202.818C449.124 202.818 475.603 205.071 500.248 232.811L489.976 243.202L449.124 202.818Z" fill="#DFE6F5"/>
<path d="M528.547 252.417C528.547 252.417 503.096 243.139 500.595 240.921C498.094 238.702 483.383 251.61 501.331 269.157C501.331 269.157 523.277 275.409 529.148 269.157C535.02 262.905 528.547 252.417 528.547 252.417Z" fill="#FDC2CC"/>
<path d="M363.684 207.684C400.512 186.421 413.131 139.329 391.868 102.5C370.605 65.6716 323.512 53.0532 286.684 74.3162C249.855 95.5791 237.237 142.672 258.5 179.5C279.763 216.329 326.855 228.947 363.684 207.684Z" fill="url(#paint1_linear)"/>
<path d="M362.644 205.885C398.479 185.196 410.757 139.374 390.068 103.54C369.379 67.7051 323.557 55.4273 287.723 76.1164C251.888 96.8054 239.61 142.627 260.299 178.461C280.988 214.296 326.81 226.574 362.644 205.885Z" fill="#FF8A68"/>
<path d="M355.62 193.717C384.735 176.908 394.711 139.679 377.901 110.564C361.092 81.4486 323.862 71.473 294.747 88.2826C265.632 105.092 255.657 142.321 272.466 171.436C289.276 200.552 326.505 210.527 355.62 193.717Z" fill="white"/>
<path d="M327.004 144.153C328.745 143.148 329.342 140.921 328.336 139.18C327.331 137.439 325.105 136.843 323.364 137.848C321.623 138.853 321.026 141.079 322.032 142.82C323.037 144.561 325.263 145.158 327.004 144.153Z" fill="url(#paint2_linear)"/>
<path d="M326.598 140.702L324.277 141.171L318.133 90.1327L320.604 89.924L326.598 140.702Z" fill="url(#paint3_linear)"/>
<path d="M318.558 90.389L324.849 140.826L326.399 140.632L320.108 90.1956L318.558 90.389Z" fill="#2196F3"/>
<path d="M348.659 156.471L325.267 141.988L326.373 140.313L349.929 154.182L348.659 156.471Z" fill="url(#paint4_linear)"/>
<path d="M326.304 140.541L325.488 141.873L348.72 156.098L349.535 154.766L326.304 140.541Z" fill="#2196F3"/>
<path d="M375.86 115.35C376.607 114.918 376.863 113.963 376.432 113.216C376 112.469 375.045 112.213 374.298 112.644C373.551 113.076 373.295 114.031 373.726 114.778C374.158 115.525 375.113 115.781 375.86 115.35Z" fill="#6C63FF"/>
<path d="M270.885 141.137C270.885 140.016 269.976 139.108 268.856 139.108C267.735 139.108 266.827 140.016 266.827 141.137C266.827 142.257 267.735 143.166 268.856 143.166C269.976 143.166 270.885 142.257 270.885 141.137Z" fill="url(#paint5_linear)"/>
<path d="M299.937 191.904C300.497 190.934 300.164 189.693 299.194 189.133C298.224 188.573 296.983 188.905 296.423 189.876C295.862 190.846 296.195 192.087 297.165 192.647C298.136 193.207 299.376 192.875 299.937 191.904Z" fill="url(#paint6_linear)"/>
<path d="M277.869 172.464C278.84 171.903 279.172 170.663 278.612 169.692C278.052 168.722 276.811 168.389 275.84 168.95C274.87 169.51 274.538 170.751 275.098 171.721C275.658 172.691 276.899 173.024 277.869 172.464Z" fill="url(#paint7_linear)"/>
<path d="M278.138 113.777C278.698 112.807 278.366 111.566 277.395 111.006C276.425 110.445 275.184 110.778 274.624 111.748C274.064 112.719 274.396 113.959 275.366 114.52C276.337 115.08 277.578 114.747 278.138 113.777Z" fill="url(#paint8_linear)"/>
<path d="M298.829 93.4232C299.389 92.4528 299.057 91.212 298.087 90.6518C297.116 90.0915 295.875 90.424 295.315 91.3944C294.755 92.3647 295.087 93.6055 296.058 94.1658C297.028 94.726 298.269 94.3935 298.829 93.4232Z" fill="url(#paint9_linear)"/>
<path d="M326.801 85.6837C327.362 84.7133 327.029 83.4726 326.059 82.9123C325.088 82.3521 323.848 82.6845 323.287 83.6549C322.727 84.6253 323.06 85.8661 324.03 86.4263C325 86.9865 326.241 86.6541 326.801 85.6837Z" fill="url(#paint10_linear)"/>
<path d="M355.23 93.3019C355.79 92.3316 355.458 91.0908 354.487 90.5305C353.517 89.9703 352.276 90.3027 351.716 91.2731C351.156 92.2435 351.488 93.4843 352.459 94.0445C353.429 94.6047 354.67 94.2723 355.23 93.3019Z" fill="url(#paint11_linear)"/>
<path d="M383.656 143.574C384.217 142.604 383.884 141.363 382.914 140.803C381.943 140.243 380.703 140.575 380.142 141.546C379.582 142.516 379.915 143.757 380.885 144.317C381.855 144.877 383.096 144.545 383.656 143.574Z" fill="url(#paint12_linear)"/>
<path d="M375.325 171.812C375.885 170.842 375.553 169.601 374.583 169.041C373.612 168.481 372.372 168.813 371.811 169.783C371.251 170.754 371.584 171.995 372.554 172.555C373.524 173.115 374.765 172.783 375.325 171.812Z" fill="url(#paint13_linear)"/>
<path d="M355.018 190.749C355.578 189.779 355.245 188.538 354.275 187.978C353.305 187.418 352.064 187.75 351.504 188.721C350.943 189.691 351.276 190.932 352.246 191.492C353.217 192.052 354.457 191.72 355.018 190.749Z" fill="url(#paint14_linear)"/>
<path d="M328.468 198.868C329.028 197.898 328.696 196.657 327.725 196.097C326.755 195.536 325.514 195.869 324.954 196.839C324.394 197.81 324.726 199.05 325.696 199.611C326.667 200.171 327.908 199.838 328.468 198.868Z" fill="url(#paint15_linear)"/>
<path d="M297.869 93.6897C298.616 93.2584 298.872 92.3031 298.441 91.556C298.01 90.8089 297.054 90.5529 296.307 90.9842C295.56 91.4156 295.304 92.3709 295.736 93.118C296.167 93.865 297.122 94.121 297.869 93.6897Z" fill="#69F0AE"/>
<path d="M326.745 84.8076C326.745 83.945 326.046 83.2456 325.183 83.2456C324.32 83.2456 323.621 83.945 323.621 84.8076C323.621 85.6703 324.32 86.3696 325.183 86.3696C326.046 86.3696 326.745 85.6703 326.745 84.8076Z" fill="#69F0AE"/>
<path d="M354.63 93.1198C355.062 92.3727 354.806 91.4174 354.059 90.9861C353.312 90.5548 352.356 90.8108 351.925 91.5579C351.494 92.3049 351.75 93.2602 352.497 93.6916C353.244 94.1229 354.199 93.8669 354.63 93.1198Z" fill="#69F0AE"/>
<path d="M383.458 142.558C383.458 141.695 382.759 140.996 381.896 140.996C381.033 140.996 380.334 141.695 380.334 142.558C380.334 143.42 381.033 144.12 381.896 144.12C382.759 144.12 383.458 143.42 383.458 142.558Z" fill="#69F0AE"/>
<path d="M374.868 171.486C375.299 170.739 375.043 169.784 374.296 169.353C373.549 168.921 372.594 169.177 372.162 169.924C371.731 170.671 371.987 171.627 372.734 172.058C373.481 172.489 374.436 172.233 374.868 171.486Z" fill="#69F0AE"/>
<path d="M277.874 113.689C278.305 112.942 278.05 111.987 277.302 111.555C276.555 111.124 275.6 111.38 275.169 112.127C274.737 112.874 274.993 113.829 275.74 114.261C276.488 114.692 277.443 114.436 277.874 113.689Z" fill="#69F0AE"/>
<path d="M270.559 140.999C270.559 140.137 269.859 139.437 268.997 139.437C268.134 139.437 267.435 140.137 267.435 140.999C267.435 141.862 268.134 142.561 268.997 142.561C269.859 142.561 270.559 141.862 270.559 140.999Z" fill="#69F0AE"/>
<path d="M376.82 115.082C377.381 114.111 377.048 112.871 376.078 112.31C375.107 111.75 373.867 112.083 373.306 113.053C372.746 114.023 373.079 115.264 374.049 115.824C375.019 116.385 376.26 116.052 376.82 115.082Z" fill="#69F0AE"/>
<path d="M299.533 191.671C299.964 190.924 299.708 189.969 298.961 189.537C298.214 189.106 297.259 189.362 296.827 190.109C296.396 190.856 296.652 191.811 297.399 192.243C298.146 192.674 299.102 192.418 299.533 191.671Z" fill="#69F0AE"/>
<path d="M328.306 197.711C328.306 196.848 327.607 196.149 326.744 196.149C325.881 196.149 325.182 196.848 325.182 197.711C325.182 198.573 325.881 199.273 326.744 199.273C327.607 199.273 328.306 198.573 328.306 197.711Z" fill="#69F0AE"/>
<path d="M277.636 172.059C278.383 171.628 278.639 170.673 278.208 169.926C277.776 169.179 276.821 168.923 276.074 169.354C275.327 169.785 275.071 170.741 275.502 171.488C275.934 172.235 276.889 172.491 277.636 172.059Z" fill="#69F0AE"/>
<path d="M354.058 191.012C354.805 190.581 355.061 189.625 354.63 188.878C354.199 188.131 353.243 187.875 352.496 188.307C351.749 188.738 351.493 189.693 351.925 190.44C352.356 191.187 353.311 191.443 354.058 191.012Z" fill="#69F0AE"/>
<path d="M326.485 143.255C327.73 142.536 328.157 140.944 327.438 139.699C326.719 138.453 325.127 138.027 323.882 138.746C322.637 139.465 322.21 141.057 322.929 142.302C323.648 143.547 325.24 143.974 326.485 143.255Z" fill="#69F0AE"/>
<path opacity="0.1" d="M208.254 665.783C256.111 665.783 294.907 662.35 294.907 658.116C294.907 653.882 256.111 650.45 208.254 650.45C160.397 650.45 121.601 653.882 121.601 658.116C121.601 662.35 160.397 665.783 208.254 665.783Z" fill="#6C63FF"/>
<path d="M214.663 412.794H209.488V529.229H214.663V412.794Z" fill="#535461"/>
<path d="M247.165 528.876L246.837 534.12L246.38 541.52L246.191 544.608L245.733 552.016L245.535 555.104L245.078 562.504L239.86 646.692C239.636 650.314 238.039 653.714 235.395 656.199C232.75 658.685 229.258 660.069 225.629 660.069H198.521C194.893 660.069 191.402 658.684 188.759 656.199C186.116 653.713 184.521 650.313 184.299 646.692L179.072 562.504L178.615 555.104L178.425 552.016L177.959 544.608L177.769 541.52L177.312 534.12L176.985 528.876C176.923 527.869 177.068 526.861 177.41 525.913C177.753 524.964 178.286 524.096 178.977 523.362C179.668 522.627 180.502 522.042 181.427 521.642C182.353 521.242 183.35 521.036 184.359 521.036H239.8C240.807 521.036 241.805 521.242 242.73 521.642C243.655 522.042 244.488 522.628 245.178 523.362C245.868 524.097 246.401 524.965 246.742 525.913C247.084 526.862 247.228 527.87 247.165 528.876Z" fill="#FF8A68"/>
<path d="M246.837 534.12L246.38 541.52H177.769L177.312 534.12H246.837Z" fill="#3F3D56"/>
<path d="M246.19 544.608L245.733 552.017H178.425L177.959 544.608H246.19Z" fill="#3F3D56"/>
<path d="M245.535 555.104L245.078 562.504H179.072L178.615 555.104H245.535Z" fill="#3F3D56"/>
<path d="M169.414 456.436C199.534 478.224 212.075 512.305 212.075 512.305C212.075 512.305 175.781 511.061 145.661 489.273C115.541 467.485 103 433.404 103 433.404C103 433.404 139.294 434.648 169.414 456.436Z" fill="#00703F"/>
<path d="M103 433.404C103 433.404 140.671 454.315 152.756 471.626C164.841 488.938 212.075 512.305 212.075 512.305" stroke="#535461" stroke-width="2" stroke-miterlimit="10"/>
<path d="M188.855 412.536C205.249 424.395 212.075 442.945 212.075 442.945C212.075 442.945 192.32 442.268 175.926 430.409C159.532 418.55 152.706 400 152.706 400C152.706 400 172.46 400.677 188.855 412.536Z" fill="#00703F"/>
<path d="M152.706 400C152.706 400 173.21 411.382 179.788 420.804C186.365 430.227 212.075 442.945 212.075 442.945" stroke="#535461" stroke-width="2" stroke-miterlimit="10"/>
<path d="M235.898 442.001C217.068 462.698 213.084 489.74 213.084 489.74C213.084 489.74 239.631 483.227 258.461 462.53C277.292 441.833 281.275 414.791 281.275 414.791C281.275 414.791 254.728 421.305 235.898 442.001Z" fill="#00703F"/>
<path d="M281.275 414.791C281.275 414.791 256.747 436.006 250.513 450.623C244.279 465.241 213.084 489.74 213.084 489.74" stroke="#535461" stroke-width="2" stroke-miterlimit="10"/>
<defs>
<linearGradient id="paint0_linear" x1="542.804" y1="676.845" x2="542.804" y2="41.2844" gradientUnits="userSpaceOnUse">
<stop stop-color="#808080" stop-opacity="0.25"/>
<stop offset="0.53514" stop-color="#808080" stop-opacity="0.12"/>
<stop offset="1" stop-color="#808080" stop-opacity="0.1"/>
</linearGradient>
<linearGradient id="paint1_linear" x1="73923.1" y1="74932.9" x2="47504.4" y2="29174.4" gradientUnits="userSpaceOnUse">
<stop stop-color="#808080" stop-opacity="0.25"/>
<stop offset="0.54" stop-color="#808080" stop-opacity="0.12"/>
<stop offset="1" stop-color="#808080" stop-opacity="0.1"/>
</linearGradient>
<linearGradient id="paint2_linear" x1="3209.56" y1="2646.29" x2="3150.48" y2="2543.96" gradientUnits="userSpaceOnUse">
<stop stop-color="#808080" stop-opacity="0.25"/>
<stop offset="0.54" stop-color="#808080" stop-opacity="0.12"/>
<stop offset="1" stop-color="#808080" stop-opacity="0.1"/>
</linearGradient>
<linearGradient id="paint3_linear" x1="15837.6" y1="18276" x2="13268.2" y2="13825.6" gradientUnits="userSpaceOnUse">
<stop stop-color="#808080" stop-opacity="0.25"/>
<stop offset="0.54" stop-color="#808080" stop-opacity="0.12"/>
<stop offset="1" stop-color="#808080" stop-opacity="0.1"/>
</linearGradient>
<linearGradient id="paint4_linear" x1="9647.47" y1="10562.3" x2="8943.68" y2="9343.33" gradientUnits="userSpaceOnUse">
<stop stop-color="#808080" stop-opacity="0.25"/>
<stop offset="0.54" stop-color="#808080" stop-opacity="0.12"/>
<stop offset="1" stop-color="#808080" stop-opacity="0.1"/>
</linearGradient>
<linearGradient id="paint5_linear" x1="426.826" y1="3760.92" x2="445.146" y2="3729.19" gradientUnits="userSpaceOnUse">
<stop stop-color="#808080" stop-opacity="0.25"/>
<stop offset="0.54" stop-color="#808080" stop-opacity="0.12"/>
<stop offset="1" stop-color="#808080" stop-opacity="0.1"/>
</linearGradient>
<linearGradient id="paint6_linear" x1="2537.98" y1="2077.5" x2="2519.66" y2="2045.77" gradientUnits="userSpaceOnUse">
<stop stop-color="#808080" stop-opacity="0.25"/>
<stop offset="0.54" stop-color="#808080" stop-opacity="0.12"/>
<stop offset="1" stop-color="#808080" stop-opacity="0.1"/>
</linearGradient>
<linearGradient id="paint7_linear" x1="1610.29" y1="3155.94" x2="1610.29" y2="3119.26" gradientUnits="userSpaceOnUse">
<stop stop-color="#808080" stop-opacity="0.25"/>
<stop offset="0.54" stop-color="#808080" stop-opacity="0.12"/>
<stop offset="1" stop-color="#808080" stop-opacity="0.1"/>
</linearGradient>
<linearGradient id="paint8_linear" x1="-940.747" y1="3645.99" x2="-908.981" y2="3627.65" gradientUnits="userSpaceOnUse">
<stop stop-color="#808080" stop-opacity="0.25"/>
<stop offset="0.54" stop-color="#808080" stop-opacity="0.12"/>
<stop offset="1" stop-color="#808080" stop-opacity="0.1"/>
</linearGradient>
<linearGradient id="paint9_linear" x1="-733.365" y1="3482.7" x2="-701.599" y2="3464.36" gradientUnits="userSpaceOnUse">
<stop stop-color="#808080" stop-opacity="0.25"/>
<stop offset="0.54" stop-color="#808080" stop-opacity="0.12"/>
<stop offset="1" stop-color="#808080" stop-opacity="0.1"/>
</linearGradient>
<linearGradient id="paint10_linear" x1="-472.735" y1="3440.67" x2="-441.003" y2="3422.35" gradientUnits="userSpaceOnUse">
<stop stop-color="#808080" stop-opacity="0.25"/>
<stop offset="0.54" stop-color="#808080" stop-opacity="0.12"/>
<stop offset="1" stop-color="#808080" stop-opacity="0.1"/>
</linearGradient>
<linearGradient id="paint11_linear" x1="-223.361" y1="3537.98" x2="-191.595" y2="3519.64" gradientUnits="userSpaceOnUse">
<stop stop-color="#808080" stop-opacity="0.25"/>
<stop offset="0.54" stop-color="#808080" stop-opacity="0.12"/>
<stop offset="1" stop-color="#808080" stop-opacity="0.1"/>
</linearGradient>
<linearGradient id="paint12_linear" x1="-16.6992" y1="4020.87" x2="15.0672" y2="4002.53" gradientUnits="userSpaceOnUse">
<stop stop-color="#808080" stop-opacity="0.25"/>
<stop offset="0.54" stop-color="#808080" stop-opacity="0.12"/>
<stop offset="1" stop-color="#808080" stop-opacity="0.1"/>
</linearGradient>
<linearGradient id="paint13_linear" x1="-120.189" y1="4267.81" x2="-88.4574" y2="4249.49" gradientUnits="userSpaceOnUse">
<stop stop-color="#808080" stop-opacity="0.25"/>
<stop offset="0.54" stop-color="#808080" stop-opacity="0.12"/>
<stop offset="1" stop-color="#808080" stop-opacity="0.1"/>
</linearGradient>
<linearGradient id="paint14_linear" x1="-322.74" y1="4418.68" x2="-290.974" y2="4400.34" gradientUnits="userSpaceOnUse">
<stop stop-color="#808080" stop-opacity="0.25"/>
<stop offset="0.54" stop-color="#808080" stop-opacity="0.12"/>
<stop offset="1" stop-color="#808080" stop-opacity="0.1"/>
</linearGradient>
<linearGradient id="paint15_linear" x1="-570.856" y1="4465.54" x2="-539.125" y2="4447.22" gradientUnits="userSpaceOnUse">
<stop stop-color="#808080" stop-opacity="0.25"/>
<stop offset="0.54" stop-color="#808080" stop-opacity="0.12"/>
<stop offset="1" stop-color="#808080" stop-opacity="0.1"/>
</linearGradient>
</defs>
</svg>
