<svg width="1353" height="890" viewBox="0 0 1353 890" fill="none" xmlns="http://www.w3.org/2000/svg">
<path opacity="0.1" d="M1353 534.396C1353.02 556.939 1350.3 579.4 1344.88 601.283C1343.06 608.656 1340.94 615.876 1338.53 622.943C1335.57 631.666 1332.15 640.223 1328.28 648.577C1326.33 652.803 1324.26 656.946 1322.09 661.003C1322.12 684.12 1317.36 706.993 1308.11 728.178C1291.38 766.185 1261.54 796.917 1224.05 814.772C1200.6 825.957 1174.98 831.838 1149 832H256.864C217.171 832.084 178.163 821.659 143.807 801.783L143.279 801.485C138.385 798.621 133.614 795.589 128.966 792.389C118.507 785.165 108.681 777.066 99.5934 768.179C87.2934 756.162 76.455 742.735 67.3031 728.178C45.8083 694.054 34.4215 654.541 34.4614 614.215C12.6933 576.028 0 530.284 0 481.13C0 419.112 20.1714 362.539 53.3118 319.712C60.2209 310.765 67.789 302.346 75.9529 294.526C84.0081 286.788 92.666 279.702 101.845 273.337C109.189 268.238 116.864 263.634 124.819 259.555C128.139 257.867 131.47 256.27 134.859 254.789C137.834 253.468 140.844 252.239 143.888 251.079C147.541 249.694 151.24 248.419 154.984 247.255C158.729 246.091 162.424 245.073 166.069 244.2C171.43 242.891 176.883 241.827 182.427 241.007C187.022 240.33 191.617 239.859 196.212 239.503C199.865 239.227 203.552 239.078 207.262 239.032H209.272C213.362 239.032 217.428 239.193 221.46 239.468C221.885 238.618 222.345 237.757 222.77 236.919C224.378 233.852 226.044 230.797 227.721 227.811C227.717 227.785 227.717 227.758 227.721 227.731C228.008 227.203 228.295 226.686 228.594 226.181C229.949 223.734 231.362 221.311 232.81 218.911C233.476 217.762 234.131 216.683 234.808 215.603C234.952 215.335 235.109 215.074 235.279 214.822C235.969 213.674 236.669 212.525 237.381 211.377C240.927 205.711 244.615 200.145 248.444 194.678L249.42 193.277C250.017 192.427 250.569 191.6 251.235 190.75C252.82 188.534 254.451 186.306 256.094 184.123C257.243 182.562 258.391 181.011 259.632 179.53C262.619 175.701 265.682 171.873 268.822 168.045C271.962 164.217 275.224 160.438 278.609 156.709C279.068 156.193 279.528 155.687 280.01 155.182L284.915 149.83C285.156 149.577 285.363 149.348 285.593 149.118C286.179 148.486 286.742 147.855 287.373 147.246C290.004 144.455 292.703 141.722 295.414 139C309.211 125.261 323.909 112.458 339.41 100.676C340.019 100.193 340.639 99.7338 341.248 99.2744C344.166 97.0808 347.129 94.9102 350.093 92.774C366.395 81.082 383.435 70.4556 401.107 60.9614C402.325 60.2608 403.566 59.6062 404.818 58.963C420.662 50.5828 436.956 43.0833 453.627 36.4989C462.713 32.9042 472.006 29.5277 481.357 26.4383C487.583 24.394 493.832 22.4531 500.161 20.627C510.055 17.7788 520.018 15.2254 530.05 12.9667C559.606 6.33642 589.673 2.24064 619.926 0.724002C629.115 0.256957 638.409 0.015781 647.805 0.000468007C693.145 -0.0595442 738.308 5.65217 782.204 16.9978C782.658 17.6836 783.279 18.2426 784.008 18.6224C784.738 19.0021 785.552 19.19 786.374 19.1685H790.234C791.911 19.6278 793.577 20.0872 795.254 20.5696C804.62 23.2647 813.851 26.2086 822.949 29.4013L825.247 30.2283C847.701 38.2112 869.549 47.8068 890.62 58.94C909.614 68.9519 927.901 80.2485 945.356 92.7511C948.044 94.6805 950.694 96.6252 953.305 98.5853C956.476 96.5563 959.7 94.6116 962.977 92.7511C975.635 85.5437 989.079 79.8135 1003.04 75.6733C1032.24 67.0347 1063.14 65.8267 1092.92 72.159C1131.11 80.2557 1165.69 100.354 1193.62 128.939C1204.99 140.635 1215.11 153.483 1223.82 167.275C1224.45 168.263 1225.08 169.262 1225.69 170.273C1233.17 182.48 1239.61 195.301 1244.92 208.597C1245.11 209.091 1245.31 209.551 1245.48 210.033C1250.38 222.484 1254.34 235.287 1257.31 248.335C1257.45 249.001 1257.61 249.655 1257.75 250.321C1260.53 262.948 1262.42 275.754 1263.4 288.646C1263.4 289.105 1263.4 289.576 1263.49 290.059C1263.97 296.727 1264.22 303.465 1264.23 310.272C1264.23 316.359 1264.02 322.4 1263.64 328.395C1263.64 329.049 1263.55 329.727 1263.49 330.404C1263.39 332.139 1263.24 333.85 1263.09 335.595C1271.86 342.671 1280.07 350.415 1287.65 358.76C1291 362.412 1294.24 366.202 1297.37 370.13C1306.91 382.085 1315.29 394.917 1322.41 408.455C1341.83 445.114 1353 488.239 1353 534.396Z" fill="#6C63FF"/>
<rect x="432" y="161" width="842" height="569" rx="37" fill="#CCCCCC"/>
<path d="M853.5 312.856H853.5C869.587 312.856 885.516 316.025 900.379 322.181C915.241 328.337 928.745 337.36 940.121 348.735C951.496 360.111 960.519 373.615 966.675 388.477C972.831 403.34 976 419.269 976 435.356V728.856H731V435.356C731 419.269 734.169 403.34 740.325 388.477C746.481 373.615 755.504 360.111 766.879 348.735C778.255 337.36 791.759 328.337 806.621 322.181C821.484 316.025 837.413 312.856 853.5 312.856Z" fill="#FF8A68"/>
<path d="M811 460.134H789V533.134H811V460.134Z" fill="white"/>
<path d="M890 539.134H817V605.134H890V539.134Z" fill="white"/>
<path d="M890 460.134H817V533.134H890V460.134Z" fill="white"/>
<path d="M896 454.134H918V452.634C918.008 443.448 916.049 434.367 912.254 426.002C908.459 417.637 902.917 410.182 896 404.137V454.134Z" fill="white"/>
<path d="M817 454.134H890V399.46C879.266 392.066 866.534 388.116 853.5 388.134C840.466 388.116 827.734 392.066 817 399.46V454.134Z" fill="white"/>
<path d="M811 539.134H789V589.134C789 593.377 790.686 597.447 793.686 600.447C796.687 603.448 800.757 605.134 805 605.134H811V539.134Z" fill="white"/>
<path d="M896 539.134V605.134H902C906.243 605.134 910.313 603.448 913.314 600.447C916.314 597.447 918 593.377 918 589.134V539.134H896Z" fill="white"/>
<path d="M811 454.134V404.137C804.083 410.182 798.541 417.637 794.746 426.002C790.951 434.367 788.992 443.448 789 452.634V454.134H811Z" fill="white"/>
<path d="M918 460.134H896V533.134H918V460.134Z" fill="white"/>
<path d="M958.5 557.134C965.68 557.134 971.5 551.313 971.5 544.134C971.5 536.954 965.68 531.134 958.5 531.134C951.32 531.134 945.5 536.954 945.5 544.134C945.5 551.313 951.32 557.134 958.5 557.134Z" fill="#3F3D56"/>
<path d="M561.065 429.214H550V465.931H561.065V429.214Z" fill="white"/>
<path d="M600.8 429.214H564.083V465.931H600.8V429.214Z" fill="white"/>
<path d="M614.883 429.214H603.817V465.931H614.883V429.214Z" fill="white"/>
<path d="M603.817 426.196H614.883V425.441C614.887 420.821 613.901 416.254 611.993 412.047C610.084 407.839 607.296 404.089 603.817 401.049V426.196Z" fill="white"/>
<path d="M600.8 468.948H564.083V502.144H600.8V468.948Z" fill="white"/>
<path d="M561.065 468.948H550V494.096C550 496.231 550.848 498.278 552.357 499.787C553.866 501.296 555.913 502.144 558.047 502.144H561.065L561.065 468.948Z" fill="white"/>
<path d="M603.817 468.948V502.144H606.835C607.892 502.144 608.938 501.936 609.915 501.531C610.891 501.127 611.778 500.534 612.526 499.787C613.273 499.04 613.866 498.152 614.27 497.176C614.675 496.2 614.883 495.153 614.883 494.096V468.948H603.817Z" fill="white"/>
<path d="M561.065 426.196V401.049C557.586 404.089 554.799 407.839 552.89 412.047C550.982 416.254 549.996 420.821 550 425.441V426.196H561.065Z" fill="white"/>
<path d="M564.083 426.196H600.8V398.697C595.401 394.978 588.997 392.991 582.441 393C575.885 392.991 569.482 394.978 564.083 398.697V426.196Z" fill="white"/>
<path d="M655.19 539.435H509.203C508.267 539.434 507.369 539.061 506.707 538.399C506.045 537.737 505.672 536.839 505.671 535.903V526.484C505.672 525.548 506.045 524.65 506.707 523.988C507.369 523.326 508.267 522.953 509.203 522.952H655.19C656.127 522.953 657.025 523.326 657.687 523.988C658.349 524.65 658.721 525.548 658.722 526.484V535.903C658.721 536.839 658.349 537.737 657.687 538.399C657.025 539.061 656.127 539.434 655.19 539.435Z" fill="white"/>
<path d="M1198.19 539.435H1052.2C1051.27 539.434 1050.37 539.061 1049.71 538.399C1049.04 537.737 1048.67 536.839 1048.67 535.903V526.484C1048.67 525.548 1049.04 524.65 1049.71 523.988C1050.37 523.326 1051.27 522.953 1052.2 522.952H1198.19C1199.13 522.953 1200.02 523.326 1200.69 523.988C1201.35 524.65 1201.72 525.548 1201.72 526.484V535.903C1201.72 536.839 1201.35 537.737 1200.69 538.399C1200.02 539.061 1199.13 539.434 1198.19 539.435Z" fill="white"/>
<path d="M1241.5 729.856H465.5C456.751 729.846 448.363 726.366 442.176 720.18C435.99 713.993 432.51 705.605 432.5 696.856V193.856C432.51 185.107 435.99 176.719 442.176 170.532C448.363 164.346 456.751 160.866 465.5 160.856H1241.5C1250.25 160.866 1258.64 164.346 1264.82 170.532C1271.01 176.719 1274.49 185.107 1274.5 193.856V696.856C1274.49 705.605 1271.01 713.993 1264.82 720.18C1258.64 726.366 1250.25 729.846 1241.5 729.856ZM465.5 162.856C457.281 162.865 449.402 166.134 443.59 171.946C437.778 177.758 434.509 185.637 434.5 193.856V696.856C434.509 705.075 437.778 712.955 443.59 718.766C449.402 724.578 457.281 727.847 465.5 727.856H1241.5C1249.72 727.847 1257.6 724.578 1263.41 718.766C1269.22 712.955 1272.49 705.075 1272.5 696.856V193.856C1272.49 185.637 1269.22 177.758 1263.41 171.946C1257.6 166.134 1249.72 162.865 1241.5 162.856H465.5Z" fill="#CCCCCC"/>
<path d="M445.048 226.626C436.741 226.619 428.74 223.487 422.637 217.851C416.533 212.216 412.774 204.49 412.107 196.209C411.44 187.929 413.913 179.7 419.035 173.16C424.157 166.619 431.553 162.246 439.752 160.909L845.306 27.6583C850.576 26.7872 855.953 26.7806 861.225 27.6388L1267.32 160.931C1275.97 162.358 1283.69 167.159 1288.8 174.28C1293.91 181.401 1295.98 190.259 1294.57 198.907C1293.15 207.556 1288.36 215.288 1281.24 220.404C1274.12 225.521 1265.27 227.603 1256.62 226.193C1252.24 225.568 857.096 169.147 853.492 168.999C849.902 169.147 454.37 225.624 450.375 226.194C448.614 226.481 446.833 226.626 445.048 226.626Z" fill="#FF8A68"/>
<path d="M1027.44 650.406C1028.27 649.32 1028.86 648.064 1029.16 646.726C1029.46 645.388 1029.46 644.001 1029.16 642.662C1028.87 641.323 1028.28 640.066 1027.45 638.978C1026.61 637.89 1025.55 636.998 1024.34 636.366L1026.19 615.018L1013.49 610.728L1011.3 640.911C1010.37 643.025 1010.25 645.405 1010.96 647.601C1011.67 649.797 1013.16 651.656 1015.15 652.827C1017.14 653.997 1019.49 654.397 1021.75 653.951C1024.02 653.505 1026.04 652.243 1027.44 650.406Z" fill="#FFB8B8"/>
<path d="M1090.8 816.38L1079.37 816.379L1073.94 772.283L1090.81 772.284L1090.8 816.38Z" fill="#FFB8B8"/>
<path d="M1071.21 813.112H1093.25V826.994H1057.32C1057.32 825.171 1057.68 823.366 1058.38 821.682C1059.08 819.998 1060.1 818.467 1061.39 817.178C1062.68 815.889 1064.21 814.867 1065.89 814.169C1067.58 813.471 1069.38 813.112 1071.21 813.112Z" fill="#2F2E41"/>
<path d="M1064.85 787.12L1053.75 789.848L1037.95 748.325L1054.33 744.299L1064.85 787.12Z" fill="#FFB8B8"/>
<path d="M1045.04 788.625L1066.45 783.364L1069.76 796.845L1034.87 805.419C1034.44 803.648 1034.36 801.81 1034.63 800.008C1034.91 798.206 1035.54 796.475 1036.48 794.916C1037.42 793.357 1038.67 791.998 1040.13 790.919C1041.6 789.84 1043.27 789.06 1045.04 788.625Z" fill="#2F2E41"/>
<path d="M1077.42 802.322C1076.38 802.324 1075.37 801.939 1074.6 801.24C1073.82 800.542 1073.33 799.581 1073.23 798.543L1060.07 675.99L1048.62 713.465L1064.84 771.998C1065.12 773.002 1065.01 774.073 1064.55 775.006C1064.09 775.939 1063.3 776.669 1062.33 777.055L1049.44 782.211C1048.91 782.423 1048.34 782.525 1047.77 782.512C1047.2 782.499 1046.64 782.37 1046.12 782.133C1045.6 781.896 1045.13 781.556 1044.75 781.133C1044.36 780.711 1044.07 780.215 1043.88 779.675L1024.01 722.666C1021.83 716.442 1020.87 709.858 1021.17 703.271L1023.94 641.748L1096.99 644.841L1095.85 797.055C1095.83 798.114 1095.42 799.131 1094.7 799.905C1093.98 800.68 1092.99 801.156 1091.93 801.241L1077.75 802.31C1077.64 802.318 1077.53 802.322 1077.42 802.322Z" fill="#2F2E41"/>
<path d="M1065.33 505.592C1078.89 505.592 1089.89 494.596 1089.89 481.031C1089.89 467.467 1078.89 456.47 1065.33 456.47C1051.76 456.47 1040.77 467.467 1040.77 481.031C1040.77 494.596 1051.76 505.592 1065.33 505.592Z" fill="#FFB8B8"/>
<path d="M1083.39 648.843C1076.92 648.843 1068.88 648.314 1060.57 647.767C1049.21 647.019 1037.46 646.247 1028.7 646.754C1027.51 646.871 1026.32 646.684 1025.23 646.209C1024.14 645.733 1023.18 644.987 1022.46 644.04C1013.42 632.466 1027.37 587.333 1027.97 585.417L1039.31 534.949L1039.8 535.059L1039.31 534.949C1041.81 523.849 1049.78 515.661 1060.12 513.581C1069.8 511.636 1079.17 515.512 1085.17 523.956C1085.49 524.404 1085.81 524.863 1086.13 525.335C1105.68 554.291 1094.62 626.231 1093.88 630.874C1094.91 632.111 1100.5 639.106 1098.96 643.965C1098.34 645.941 1096.64 647.288 1093.92 647.968C1090.45 648.655 1086.92 648.948 1083.39 648.843Z" fill="#5F3973"/>
<path d="M1029.09 648.866C1026.87 648.866 1023.87 648.045 1019.82 646.361C1018.08 645.637 1012.79 643.435 1019.21 587.289C1022.37 559.709 1026.89 532.321 1026.94 532.048L1026.98 531.784L1027.22 531.674C1027.34 531.621 1038.88 526.328 1040.89 519.528C1040.96 519.292 1041.04 519.064 1041.13 518.843C1041.68 517.331 1042.79 516.091 1044.24 515.382C1045.68 514.672 1047.35 514.548 1048.88 515.035C1050.5 515.422 1051.91 516.411 1052.83 517.802C1053.75 519.193 1054.1 520.881 1053.82 522.523C1053.12 526.959 1051.78 531.268 1049.83 535.315C1044.4 546.525 1040.72 576.242 1040.68 576.541C1040.47 579.079 1035.54 639.213 1034.59 643.777C1034.26 645.37 1033.65 647.321 1031.86 648.267C1031 648.69 1030.05 648.896 1029.09 648.866Z" fill="#2F2E41"/>
<path d="M1055.92 646.561C1055.47 646.561 1055.04 646.411 1054.68 646.136C1047.46 640.645 1059.15 574.084 1066.09 551.12C1067.48 546.522 1068.71 542.583 1069.77 539.414C1071.68 533.727 1073.02 527.862 1073.75 521.907C1074.14 518.682 1074.97 516.839 1076.29 516.275C1077.21 515.882 1078.3 516.149 1079.51 517.068C1085.92 516.753 1092.14 519.37 1097.91 522.249L1103.1 524.84L1108.93 627.989C1108.77 634.571 1095.79 639.219 1090.13 639.516C1081.04 639.992 1064.72 641.472 1057.53 646.025C1057.05 646.353 1056.5 646.54 1055.92 646.561Z" fill="#2F2E41"/>
<path d="M1023.47 627.208C1023.38 627.208 1023.29 627.205 1023.21 627.2L1011.44 626.476C1010.85 626.44 1010.28 626.282 1009.76 626.013C1009.24 625.744 1008.78 625.369 1008.41 624.913C1008.04 624.456 1007.77 623.928 1007.62 623.361C1007.46 622.795 1007.43 622.203 1007.52 621.622L1012.84 586.344L1022.87 536.846C1023.11 535.627 1023.61 534.473 1024.34 533.46C1025.06 532.446 1025.98 531.595 1027.05 530.963C1028.13 530.33 1029.32 529.93 1030.55 529.788C1031.79 529.645 1033.04 529.764 1034.23 530.137C1036.26 530.784 1037.99 532.136 1039.11 533.948C1040.23 535.759 1040.66 537.912 1040.34 540.016L1032.37 589.613L1027.66 623.56C1027.51 624.569 1027.01 625.494 1026.24 626.163C1025.47 626.833 1024.49 627.204 1023.47 627.208Z" fill="#2F2E41"/>
<path d="M1069.81 504.989C1073.51 505.068 1077.18 504.365 1080.59 502.925C1083.99 501.485 1087.05 499.34 1089.57 496.632C1092.09 493.924 1094 490.714 1095.19 487.213C1096.38 483.712 1096.82 479.999 1096.47 476.318C1096.12 472.637 1094.99 469.072 1093.17 465.856C1091.34 462.64 1088.86 459.847 1085.88 457.66C1082.9 455.473 1079.49 453.942 1075.87 453.167C1072.26 452.392 1068.52 452.391 1064.9 453.163C1059.5 449.884 1053.22 447.677 1046.93 448.238C1040.63 448.799 1034.41 452.536 1032.06 458.4C1029.7 464.264 1032.23 471.994 1038.08 474.378C1041.83 475.905 1046.07 475.165 1050.08 474.548C1054.08 473.932 1058.45 473.53 1061.93 475.596C1065.42 477.662 1066.98 483.202 1063.86 485.784C1062.21 487.208 1061.03 489.102 1060.48 491.213C1059.92 493.325 1060.03 495.555 1060.78 497.605C1062.35 501.661 1066.63 504.92 1069.81 504.989Z" fill="#2F2E41"/>
<path d="M1063.67 588.592C1064.39 587.424 1065.35 586.428 1066.5 585.673C1067.64 584.919 1068.94 584.424 1070.29 584.225C1071.65 584.025 1073.03 584.125 1074.35 584.518C1075.66 584.911 1076.87 585.588 1077.89 586.499L1097.19 577.179L1105.71 587.523L1078.28 600.302C1076.63 601.921 1074.45 602.879 1072.15 602.996C1069.84 603.113 1067.57 602.38 1065.77 600.937C1063.97 599.493 1062.76 597.44 1062.38 595.164C1061.99 592.889 1062.45 590.551 1063.67 588.592Z" fill="#FFB8B8"/>
<path d="M1090.47 598.602C1089.52 598.602 1088.6 598.282 1087.85 597.694C1087.11 597.106 1086.58 596.284 1086.36 595.361L1083.55 583.711C1083.34 582.834 1083.41 581.913 1083.76 581.081C1084.11 580.249 1084.72 579.552 1085.49 579.091L1102.4 568.976L1093.76 537.341C1093.15 535.093 1093.28 532.708 1094.14 530.541H1094.14C1094.95 528.486 1096.38 526.733 1098.23 525.52C1100.08 524.307 1102.25 523.692 1104.46 523.76C1106.67 523.828 1108.8 524.575 1110.57 525.899C1112.34 527.223 1113.66 529.061 1114.35 531.161L1123.89 560.286C1125.06 563.837 1125.07 567.668 1123.92 571.224C1122.76 574.78 1120.5 577.875 1117.47 580.06L1092.95 597.798C1092.23 598.32 1091.36 598.601 1090.47 598.602Z" fill="#2F2E41"/>
<path d="M1118.4 827.856H1016.4C1016.14 827.856 1015.88 827.751 1015.69 827.563C1015.51 827.376 1015.4 827.121 1015.4 826.856C1015.4 826.591 1015.51 826.336 1015.69 826.149C1015.88 825.961 1016.14 825.856 1016.4 825.856H1118.4C1118.67 825.856 1118.92 825.961 1119.11 826.149C1119.3 826.336 1119.4 826.591 1119.4 826.856C1119.4 827.121 1119.3 827.376 1119.11 827.563C1118.92 827.751 1118.67 827.856 1118.4 827.856Z" fill="#CCCCCC"/>
<path d="M303.63 765.389C300.78 787.719 290.3 808.149 279.119 827.829C278.75 828.499 278.369 829.159 277.98 829.829H161.78C159.429 829.219 157.11 828.549 154.8 827.829C141.675 823.833 129.285 817.738 118.11 809.779C75.3596 778.979 58.9094 720.779 66.3396 668.629C70.9597 636.229 85.1795 603.149 112.869 585.699C127.49 576.469 146.269 573.469 163.099 576.899C163.54 576.979 163.98 577.079 164.429 577.169C178.91 580.429 191.809 588.529 199.15 601.579C212.349 625.029 204.49 654.079 198 680.179C191.53 706.279 188.019 737.519 206.8 756.769C200.599 738.519 206.72 716.749 221.53 704.409C232.72 695.099 248.3 691.609 262.51 694.499C263.869 694.789 265.21 695.119 266.53 695.519C269.72 696.453 272.796 697.741 275.7 699.359C297.849 711.729 306.82 740.219 303.63 765.389Z" fill="#00703F"/>
<path d="M234.73 827.829C237.949 828.579 241.179 829.239 244.429 829.829H226.86C224.559 829.209 222.269 828.549 220 827.829C215.01 826.269 210.096 824.479 205.26 822.459C185.86 814.319 167.99 802.099 154.47 785.839C147.857 777.961 142.458 769.141 138.45 759.669C134.103 748.964 131.341 737.682 130.25 726.179C127.8 702.579 130.3 678.329 134.97 655.149C139.789 631.124 147.568 607.79 158.13 585.679C159.4 583.029 160.713 580.396 162.07 577.779C162.163 577.564 162.304 577.372 162.483 577.22C162.661 577.067 162.872 576.958 163.099 576.899C163.561 576.81 164.039 576.907 164.43 577.169C164.898 577.438 165.245 577.876 165.4 578.393C165.554 578.911 165.504 579.468 165.26 579.949C154.37 601.185 146.116 623.671 140.68 646.909C135.36 669.579 132.34 693.299 133.369 716.609C134.349 738.389 140.04 759.809 152.95 777.619C164.74 793.879 181.019 806.699 199.03 815.429C210.429 820.883 222.404 825.042 234.73 827.829Z" fill="white"/>
<path d="M273.29 829.829H268.11C267.53 829.169 266.97 828.499 266.42 827.829C254.621 813.493 246.628 796.413 243.18 778.169C238.992 755.401 242.25 731.89 252.47 711.119C255.321 705.295 258.681 699.733 262.51 694.499C263.87 694.789 265.21 695.119 266.53 695.519C256.458 708.863 249.684 724.399 246.76 740.859C244.151 756.283 245.018 772.095 249.298 787.141C253.579 802.187 261.164 816.088 271.5 827.829C272.08 828.499 272.68 829.169 273.29 829.829Z" fill="white"/>
<path d="M739.93 812.822C740.682 818.716 743.448 824.107 746.398 829.301C746.496 829.478 746.596 829.652 746.699 829.829H777.367C777.987 829.668 778.599 829.491 779.209 829.301C782.672 828.247 785.942 826.638 788.892 824.538C800.174 816.409 804.516 801.049 802.555 787.285C801.335 778.735 797.583 770.004 790.275 765.399C786.306 762.982 781.572 762.152 777.018 763.076C776.902 763.097 776.786 763.124 776.667 763.147C774.772 763.514 772.975 764.277 771.396 765.388C769.817 766.498 768.49 767.93 767.504 769.59C764.02 775.779 766.095 783.445 767.807 790.334C769.515 797.222 770.441 805.467 765.485 810.547C766.211 808.423 766.359 806.143 765.912 803.942C765.466 801.742 764.441 799.7 762.944 798.026C761.447 796.353 759.531 795.108 757.394 794.421C755.256 793.733 752.974 793.627 750.782 794.113C750.423 794.19 750.069 794.277 749.721 794.382C748.879 794.629 748.067 794.969 747.301 795.396C741.455 798.66 739.088 806.179 739.93 812.822Z" fill="#00703F"/>
<path d="M758.114 829.301C757.264 829.499 756.411 829.673 755.554 829.829H760.191C760.798 829.665 761.402 829.491 762.001 829.301C763.318 828.89 764.615 828.417 765.891 827.884C771.069 825.782 775.666 822.467 779.296 818.219C781.041 816.14 782.466 813.812 783.524 811.313C784.671 808.487 785.4 805.51 785.688 802.474C786.214 796.198 785.794 789.879 784.442 783.728C783.17 777.387 781.117 771.229 778.33 765.393C777.995 764.694 777.648 763.999 777.29 763.308C777.265 763.252 777.228 763.201 777.181 763.161C777.134 763.121 777.078 763.092 777.018 763.076C776.896 763.053 776.77 763.078 776.667 763.147C776.544 763.218 776.452 763.334 776.411 763.471C776.37 763.607 776.384 763.754 776.448 763.881C779.322 769.486 781.501 775.42 782.935 781.553C784.413 787.568 785.062 793.757 784.865 799.948C784.759 805.706 782.962 811.306 779.697 816.05C776.522 820.322 772.346 823.749 767.536 826.029C764.527 827.468 761.367 828.566 758.114 829.301Z" fill="white"/>
<path d="M747.937 829.829H749.304C749.457 829.655 749.605 829.478 749.75 829.301C752.864 825.518 754.973 821.01 755.883 816.195C756.988 810.186 756.129 803.981 753.431 798.499C752.679 796.962 751.792 795.494 750.782 794.113C750.423 794.19 750.069 794.277 749.721 794.382C752.379 797.904 754.167 802.004 754.938 806.348C755.627 810.419 755.398 814.592 754.268 818.563C753.139 822.534 751.137 826.202 748.409 829.301C748.256 829.478 748.098 829.655 747.937 829.829Z" fill="white"/>
<path d="M463.51 677.508H367.529L366.511 647.998C366.467 646.718 366.701 645.445 367.196 644.264C367.691 643.084 368.437 642.025 369.38 641.16C370.324 640.296 371.444 639.646 372.663 639.255C373.882 638.865 375.171 638.743 376.442 638.899L432.297 645.738H432.303C440.584 645.761 448.518 649.064 454.367 654.926C460.217 660.787 463.504 668.728 463.51 677.008V677.508Z" fill="#6C63FF"/>
<path d="M420.731 572.829H353.789C352.898 572.829 352.017 573.004 351.194 573.345C350.372 573.685 349.624 574.184 348.995 574.814C348.365 575.443 347.866 576.191 347.525 577.013C347.185 577.836 347.01 578.718 347.01 579.608V646.55C347.01 647.44 347.185 648.322 347.525 649.145C347.866 649.967 348.365 650.714 348.995 651.344C349.624 651.974 350.372 652.473 351.194 652.813C352.017 653.154 352.898 653.329 353.789 653.329H420.731C421.621 653.329 422.503 653.154 423.325 652.813C424.148 652.473 424.895 651.974 425.525 651.344C426.154 650.714 426.654 649.967 426.994 649.145C427.335 648.322 427.51 647.44 427.51 646.55V579.608C427.51 578.718 427.335 577.836 426.994 577.013C426.654 576.191 426.154 575.443 425.525 574.814C424.895 574.184 424.148 573.685 423.325 573.345C422.503 573.004 421.621 572.829 420.731 572.829Z" fill="#CCCCCC"/>
<path d="M405.654 622.886L374.048 629.041C372.173 629.404 370.231 629.008 368.648 627.941C367.064 626.873 365.969 625.222 365.602 623.348L363.172 610.871C362.809 608.997 363.205 607.054 364.272 605.471C365.339 603.887 366.991 602.792 368.865 602.425L400.471 596.27C402.346 595.907 404.288 596.303 405.872 597.37C407.455 598.437 408.551 600.089 408.918 601.963L411.348 614.439C411.71 616.314 411.315 618.256 410.248 619.84C409.18 621.423 407.528 622.519 405.654 622.886Z" fill="#3F3D56"/>
<path d="M399.331 608.146L375.21 612.844C374.769 612.93 374.312 612.837 373.939 612.585C373.566 612.334 373.309 611.945 373.223 611.504C373.137 611.063 373.23 610.606 373.481 610.233C373.732 609.86 374.121 609.603 374.562 609.517L398.683 604.819C399.124 604.734 399.581 604.826 399.954 605.078C400.327 605.329 400.584 605.718 400.67 606.159C400.756 606.6 400.663 607.057 400.412 607.43C400.161 607.803 399.772 608.061 399.331 608.146Z" fill="white"/>
<path d="M394.642 615.102L382.166 617.532C381.725 617.618 381.268 617.525 380.895 617.274C380.522 617.023 380.265 616.634 380.179 616.192C380.093 615.751 380.186 615.294 380.437 614.921C380.688 614.549 381.077 614.291 381.518 614.205L393.994 611.775C394.213 611.733 394.438 611.734 394.656 611.778C394.874 611.822 395.081 611.909 395.266 612.034C395.45 612.158 395.608 612.317 395.731 612.503C395.854 612.689 395.939 612.896 395.982 613.115C396.024 613.333 396.024 613.558 395.979 613.776C395.935 613.994 395.848 614.202 395.724 614.386C395.599 614.571 395.44 614.729 395.254 614.852C395.069 614.975 394.861 615.06 394.642 615.102Z" fill="white"/>
<path d="M427.51 579.608V588.505H347.01V579.608C347.01 578.718 347.185 577.836 347.525 577.013C347.866 576.191 348.365 575.443 348.995 574.814C349.624 574.184 350.372 573.685 351.194 573.345C352.017 573.004 352.898 572.829 353.789 572.829H420.731C421.621 572.829 422.503 573.004 423.325 573.345C424.148 573.685 424.895 574.184 425.525 574.814C426.154 575.443 426.654 576.191 426.994 577.013C427.335 577.836 427.51 578.718 427.51 579.608Z" fill="#B3B3B3"/>
<path d="M588.26 591.292C587.796 589.791 587.007 588.411 585.952 587.249C584.896 586.086 583.598 585.169 582.15 584.562C580.701 583.955 579.137 583.673 577.568 583.736C575.999 583.799 574.462 584.206 573.067 584.927L480.97 551.884L476.914 574.891L568.717 600.137C570.084 602.4 572.234 604.084 574.759 604.869C577.284 605.653 580.009 605.485 582.418 604.394C584.826 603.304 586.752 601.368 587.829 598.953C588.905 596.538 589.059 593.812 588.26 591.292Z" fill="#FFB8B8"/>
<path opacity="0.2" d="M588.26 591.292C587.796 589.791 587.007 588.411 585.952 587.249C584.896 586.086 583.598 585.169 582.15 584.562C580.701 583.955 579.137 583.673 577.568 583.736C575.999 583.799 574.462 584.206 573.067 584.927L480.97 551.884L476.914 574.891L568.717 600.137C570.084 602.4 572.234 604.084 574.759 604.869C577.284 605.653 580.009 605.485 582.418 604.394C584.826 603.304 586.752 601.368 587.829 598.953C588.905 596.538 589.059 593.812 588.26 591.292Z" fill="black"/>
<path d="M497.317 556.076L488.62 578.797C488.373 579.443 487.989 580.029 487.495 580.513C487.001 580.998 486.408 581.371 485.757 581.606C485.106 581.84 484.412 581.932 483.722 581.875C483.032 581.817 482.363 581.612 481.76 581.272L460.623 569.376C457.323 568.091 454.668 565.55 453.238 562.31C451.809 559.07 451.723 555.395 452.998 552.092C454.274 548.788 456.807 546.125 460.043 544.687C463.279 543.248 466.954 543.151 470.261 544.418L493.863 549.652C494.539 549.802 495.174 550.096 495.726 550.514C496.278 550.932 496.733 551.464 497.061 552.073C497.389 552.683 497.581 553.356 497.626 554.047C497.67 554.738 497.565 555.43 497.317 556.076Z" fill="#5F3973"/>
<path d="M595.51 612.329L562.51 627.329L566.842 643.64C575.209 675.138 577.429 707.952 573.382 740.29L597.51 745.329L617.51 694.329L610.51 636.329L595.51 612.329Z" fill="#5F3973"/>
<path d="M660.26 687.829C638.578 687.829 620.908 703.591 620.051 723.329H700.469C699.611 703.591 681.942 687.829 660.26 687.829Z" fill="#3F3D56"/>
<path d="M327 612C334.18 612 340 606.18 340 599C340 591.82 334.18 586 327 586C319.82 586 314 591.82 314 599C314 606.18 319.82 612 327 612Z" fill="#3F3D56"/>
<path d="M340.73 530C336.292 530.003 332.037 531.768 328.899 534.907C325.762 538.046 324 542.302 324 546.74C324 551.178 325.762 555.435 328.899 558.574C332.036 561.713 336.292 563.478 340.73 563.481L340.73 563.481C345.168 563.478 349.423 561.713 352.56 558.574C355.697 555.435 357.459 551.178 357.459 546.74C357.459 542.302 355.697 538.046 352.56 534.907C349.423 531.768 345.168 530.003 340.73 530Z" fill="#5F3973"/>
<path d="M339.142 553.693C338.701 553.694 338.272 553.551 337.919 553.287L337.897 553.27L333.294 549.749C333.081 549.585 332.902 549.381 332.767 549.149C332.633 548.916 332.545 548.659 332.51 548.393C332.475 548.127 332.493 547.856 332.562 547.597C332.632 547.337 332.751 547.094 332.915 546.88C333.078 546.667 333.282 546.488 333.515 546.354C333.747 546.219 334.004 546.132 334.271 546.097C334.537 546.062 334.808 546.079 335.067 546.149C335.327 546.218 335.57 546.338 335.783 546.502L338.765 548.788L345.811 539.596C345.975 539.382 346.179 539.204 346.411 539.069C346.644 538.935 346.9 538.848 347.167 538.812C347.433 538.777 347.703 538.795 347.963 538.864C348.222 538.934 348.465 539.053 348.679 539.217L348.679 539.217L348.635 539.278L348.68 539.217C349.11 539.548 349.392 540.035 349.462 540.573C349.533 541.111 349.388 541.654 349.059 542.085L340.771 552.893C340.579 553.142 340.332 553.343 340.05 553.482C339.768 553.62 339.458 553.692 339.143 553.691L339.142 553.693Z" fill="white"/>
<path d="M421.734 555.955H336.989C335.862 555.954 334.746 556.176 333.704 556.607C332.663 557.038 331.717 557.671 330.92 558.468C330.123 559.264 329.491 560.211 329.06 561.252C328.629 562.293 328.407 563.409 328.407 564.536V649.281C328.407 650.408 328.629 651.524 329.06 652.565C329.491 653.607 330.123 654.553 330.92 655.35C331.717 656.147 332.663 656.779 333.704 657.21C334.746 657.641 335.862 657.863 336.989 657.863H421.734C422.861 657.863 423.977 657.641 425.018 657.21C426.059 656.779 427.005 656.147 427.802 655.35C428.599 654.553 429.231 653.607 429.663 652.565C430.094 651.524 430.316 650.408 430.315 649.281V564.536C430.316 563.409 430.094 562.293 429.663 561.252C429.231 560.211 428.599 559.264 427.802 558.468C427.005 557.671 426.059 557.038 425.018 556.607C423.977 556.176 422.861 555.954 421.734 555.955Z" fill="#5F3973"/>
<path d="M402.648 619.324L362.636 627.115C360.263 627.575 357.804 627.074 355.799 625.723C353.795 624.372 352.408 622.281 351.943 619.908L348.868 604.114C348.408 601.741 348.909 599.282 350.26 597.277C351.611 595.273 353.702 593.886 356.075 593.421L396.086 585.63C398.46 585.17 400.918 585.671 402.923 587.022C404.928 588.373 406.314 590.464 406.779 592.837L409.855 608.631C410.314 611.004 409.813 613.463 408.462 615.467C407.111 617.472 405.02 618.859 402.648 619.324Z" fill="white"/>
<path d="M394.643 600.664L364.108 606.611C363.549 606.719 362.97 606.602 362.499 606.284C362.027 605.966 361.701 605.473 361.592 604.915C361.483 604.356 361.601 603.777 361.919 603.306C362.237 602.834 362.729 602.508 363.288 602.399L393.823 596.453C394.099 596.398 394.384 596.399 394.66 596.455C394.937 596.511 395.199 596.621 395.433 596.778C395.667 596.936 395.867 597.138 396.023 597.373C396.179 597.608 396.287 597.871 396.341 598.148C396.394 598.425 396.393 598.709 396.337 598.985C396.281 599.262 396.171 599.524 396.013 599.758C395.856 599.992 395.653 600.192 395.418 600.347C395.183 600.503 394.92 600.611 394.643 600.664Z" fill="#6C63FF"/>
<path d="M388.707 609.47L372.913 612.546C372.637 612.6 372.352 612.599 372.076 612.543C371.8 612.486 371.538 612.377 371.304 612.219C371.071 612.062 370.87 611.86 370.715 611.625C370.559 611.39 370.451 611.127 370.397 610.85C370.344 610.574 370.345 610.289 370.401 610.013C370.457 609.737 370.567 609.475 370.724 609.241C370.882 609.007 371.084 608.807 371.319 608.651C371.553 608.496 371.817 608.388 372.093 608.334L387.887 605.258C388.446 605.15 389.025 605.267 389.496 605.585C389.968 605.903 390.295 606.396 390.403 606.954C390.512 607.513 390.394 608.092 390.076 608.563C389.758 609.035 389.266 609.361 388.707 609.47H388.707Z" fill="#6C63FF"/>
<path d="M430.315 564.536V575.8H328.407V564.536C328.407 563.409 328.629 562.293 329.06 561.252C329.491 560.211 330.123 559.264 330.92 558.468C331.717 557.671 332.663 557.038 333.705 556.607C334.746 556.176 335.862 555.954 336.989 555.955H421.734C422.861 555.954 423.977 556.176 425.018 556.607C426.059 557.038 427.005 557.671 427.802 558.468C428.599 559.264 429.231 560.211 429.663 561.252C430.094 562.293 430.316 563.409 430.315 564.536Z" fill="#3F3D56"/>
<path d="M643.381 691.231C642.253 602.132 591.51 610.329 591.51 610.329C591.51 610.329 592.459 638.062 592.915 638.925C625.25 700.104 571.885 771.829 503.955 758.634C502.674 758.385 501.444 758.133 500.264 757.877C491.656 756.08 484.057 751.071 479.011 743.871C473.965 736.67 471.852 727.817 473.1 719.114C479.792 665.378 446.51 666.329 446.51 666.329H397.843L372.57 643.583C371.678 642.78 370.603 642.208 369.438 641.917C368.274 641.626 367.056 641.624 365.891 641.912C364.726 642.2 363.649 642.77 362.755 643.57C361.861 644.371 361.176 645.378 360.761 646.504L357.51 655.329C357.51 655.329 309.51 660.329 313.51 707.329H328.35C328.314 708.665 328.367 710.001 328.51 711.329L439.261 710.429C445.753 710.376 451.483 715.636 451.51 722.128C451.516 723.709 451.204 725.275 450.592 726.732C449.979 728.189 449.079 729.507 447.946 730.609C446.812 731.71 445.468 732.571 443.993 733.141C442.519 733.71 440.945 733.977 439.365 733.924L421.51 733.329C416.01 757.829 429.51 774.329 444.385 784.704C458.39 794.331 475.008 799.435 492.002 799.329H540.51C603.51 799.329 614.51 746.329 614.51 746.329C647.51 732.329 643.381 691.231 643.381 691.231Z" fill="#3F3D56"/>
<path d="M657.26 828.329C688.326 828.329 713.51 803.145 713.51 772.079C713.51 741.013 688.326 715.829 657.26 715.829C626.194 715.829 601.01 741.013 601.01 772.079C601.01 803.145 626.194 828.329 657.26 828.329Z" fill="#3F3D56"/>
<path d="M657.26 785.866C664.874 785.866 671.047 779.693 671.047 772.079C671.047 764.465 664.874 758.292 657.26 758.292C649.646 758.292 643.473 764.465 643.473 772.079C643.473 779.693 649.646 785.866 657.26 785.866Z" fill="white"/>
<path d="M373.26 828.329C409.02 828.329 438.01 799.34 438.01 763.579C438.01 727.819 409.02 698.829 373.26 698.829C337.499 698.829 308.51 727.819 308.51 763.579C308.51 799.34 337.499 828.329 373.26 828.329Z" fill="#3F3D56"/>
<path d="M373.26 779.449C382.025 779.449 389.13 772.344 389.13 763.579C389.13 754.814 382.025 747.709 373.26 747.709C364.495 747.709 357.39 754.814 357.39 763.579C357.39 772.344 364.495 779.449 373.26 779.449Z" fill="white"/>
<path d="M562.604 631.761L550.73 599.512C550.111 597.831 549.83 596.045 549.901 594.255C549.973 592.465 550.396 590.707 551.147 589.081C551.898 587.455 552.962 585.993 554.278 584.778C555.594 583.563 557.136 582.62 558.817 582.001L592.857 569.47C595.814 568.381 598.957 567.885 602.106 568.01C605.255 568.136 608.348 568.881 611.209 570.202C614.071 571.523 616.644 573.395 618.781 575.71C620.919 578.026 622.58 580.739 623.669 583.697C624.651 586.351 625.152 589.159 625.15 591.989C625.137 595.583 624.324 599.128 622.769 602.368C621.215 605.608 618.957 608.461 616.162 610.719C614.143 612.339 611.873 613.619 609.442 614.508L562.604 631.761Z" fill="#3F3D56"/>
<path d="M624.65 591.989C624.647 595.509 623.855 598.984 622.332 602.158C620.809 605.332 618.594 608.124 615.85 610.329C611.639 609.218 607.721 607.204 604.368 604.426C601.014 601.648 598.306 598.173 596.431 594.243C594.556 590.313 593.56 586.021 593.512 581.667C593.463 577.313 594.363 573 596.15 569.029C599.58 568.283 603.133 568.315 606.549 569.122C609.965 569.929 613.157 571.491 615.891 573.693C618.624 575.895 620.83 578.682 622.346 581.848C623.861 585.014 624.649 588.479 624.65 591.989Z" fill="#5F3973"/>
<path d="M322.01 713.829C329.742 713.829 336.01 706.218 336.01 696.829C336.01 687.44 329.742 679.829 322.01 679.829C314.278 679.829 308.01 687.44 308.01 696.829C308.01 706.218 314.278 713.829 322.01 713.829Z" fill="#5F3973"/>
<path d="M507.071 757.005H519.331L525.164 725.208L507.069 725.209L507.071 757.005Z" fill="#FFB8B8"/>
<path d="M503.943 753.003L528.087 753.001H528.088C530.109 753.001 532.11 753.399 533.976 754.173C535.843 754.946 537.539 756.079 538.968 757.508C540.397 758.937 541.53 760.633 542.303 762.5C543.077 764.366 543.475 766.367 543.475 768.388V768.888L503.944 768.889L503.943 753.003Z" fill="#2F2E41"/>
<path d="M521.301 743.954C521.158 743.954 521.015 743.948 520.871 743.934L503.904 742.699C503.218 742.635 502.556 742.415 501.968 742.054C501.381 741.694 500.884 741.204 500.516 740.621C500.148 740.039 499.918 739.38 499.845 738.694C499.772 738.009 499.858 737.316 500.095 736.669L522.802 685.655C522.964 685.2 523.03 684.716 522.996 684.235C522.963 683.753 522.829 683.284 522.605 682.856C522.382 682.423 522.069 682.043 521.688 681.739C521.307 681.436 520.866 681.217 520.394 681.096C509.717 678.305 482.322 670.873 458.608 662.178C448.448 658.453 442.049 653.069 439.589 646.176C436.346 637.089 441.144 628.802 441.349 628.454L441.51 628.182L463.825 630.21L488.016 632.268L541.03 660.696C545.472 663.098 548.846 667.085 550.48 671.864C552.114 676.642 551.889 681.86 549.848 686.48L525.407 741.287C525.054 742.081 524.478 742.756 523.749 743.229C523.02 743.702 522.17 743.954 521.301 743.954Z" fill="#2F2E41"/>
<path d="M467.706 529.281C481.27 529.281 492.267 518.285 492.267 504.72C492.267 491.156 481.27 480.159 467.706 480.159C454.141 480.159 443.145 491.156 443.145 504.72C443.145 518.285 454.141 529.281 467.706 529.281Z" fill="#FFB8B8"/>
<path d="M500.071 760.005H512.331L518.164 728.208L500.069 728.209L500.071 760.005Z" fill="#FFB8B8"/>
<path d="M496.943 756.003L521.087 756.001H521.088C523.109 756.001 525.11 756.399 526.976 757.173C528.843 757.946 530.539 759.079 531.968 760.508C533.397 761.937 534.53 763.633 535.303 765.5C536.077 767.366 536.475 769.367 536.475 771.388V771.888L496.944 771.889L496.943 756.003Z" fill="#2F2E41"/>
<path d="M514.301 746.954C514.158 746.954 514.015 746.948 513.871 746.934L496.904 745.699C496.218 745.635 495.556 745.415 494.968 745.054C494.381 744.694 493.884 744.204 493.516 743.621C493.148 743.039 492.918 742.38 492.845 741.694C492.772 741.009 492.858 740.316 493.095 739.669L515.802 688.655C515.964 688.2 516.03 687.716 515.996 687.235C515.963 686.753 515.829 686.284 515.605 685.856C515.382 685.423 515.069 685.043 514.688 684.739C514.307 684.436 513.866 684.217 513.394 684.096C502.717 681.305 475.322 673.873 451.608 665.178C441.448 661.453 435.049 656.069 432.589 649.176C429.346 640.089 434.144 631.802 434.349 631.454L434.51 631.182L456.825 633.21L481.016 635.268L534.03 663.696C538.472 666.098 541.846 670.085 543.48 674.864C545.114 679.642 544.889 684.86 542.848 689.48L518.407 744.287C518.054 745.081 517.478 745.756 516.749 746.229C516.02 746.702 515.17 746.954 514.301 746.954Z" fill="#2F2E41"/>
<path d="M475.28 543.208L449.28 534.208C449.28 534.208 432.958 546.748 440.799 577.857C444.893 593.91 443.7 610.855 437.399 626.177C436.64 628.073 435.766 629.92 434.78 631.708C434.78 631.708 463.78 666.708 490.78 640.708L480.28 590.208C480.28 590.208 496.78 556.708 475.28 543.208Z" fill="#5F3973"/>
<path d="M470.755 530.117C467.259 524.884 464.5 517.629 468.349 512.651C472.148 507.736 479.641 508.46 485.46 506.286C493.564 503.257 498.264 493.737 496.798 485.21C495.332 476.684 488.488 469.616 480.334 466.724C472.18 463.832 462.985 464.772 455.001 468.103C445.171 472.202 436.74 480.133 433.204 490.179C429.668 500.225 431.558 512.287 438.893 520.009C446.757 528.287 459.099 530.493 470.516 530.359" fill="#2F2E41"/>
<path d="M447.908 485.484C443.503 489.07 436.783 487.477 432.055 484.33C427.326 481.183 423.489 476.702 418.373 474.234C409.354 469.884 398.45 472.776 389.672 477.595C380.894 482.413 373.113 489.069 363.841 492.851C354.568 496.632 342.737 496.819 335.716 489.679C333.988 494.685 333.847 500.102 335.311 505.191C336.776 510.28 339.775 514.793 343.899 518.115C348.023 521.437 353.072 523.405 358.356 523.751C363.641 524.098 368.903 522.805 373.426 520.05C383.585 513.862 389.197 500.887 400.592 497.471C406.897 495.581 413.668 497.103 420.041 498.752C426.414 500.401 433.059 502.183 439.49 500.779C445.921 499.375 451.937 493.596 451.119 487.064L447.908 485.484Z" fill="#2F2E41"/>
<path d="M587.038 590.291C586.392 588.86 585.44 587.588 584.249 586.564C583.058 585.541 581.656 584.791 580.144 584.367C578.632 583.944 577.045 583.857 575.495 584.113C573.946 584.369 572.472 584.962 571.176 585.85L475.706 564.422L474.52 587.754L568.736 601.48C570.372 603.558 572.713 604.963 575.315 605.431C577.918 605.898 580.601 605.394 582.857 604.015C585.113 602.636 586.785 600.477 587.555 597.948C588.326 595.418 588.142 592.694 587.038 590.291Z" fill="#FFB8B8"/>
<path d="M492.445 566.566L486.618 590.186C486.452 590.858 486.144 591.486 485.713 592.028C485.283 592.57 484.74 593.013 484.123 593.326C483.506 593.64 482.829 593.817 482.137 593.845C481.445 593.873 480.756 593.751 480.115 593.489L457.673 584.291C454.237 583.425 451.285 581.232 449.465 578.192C447.645 575.153 447.105 571.515 447.964 568.078C448.823 564.64 451.01 561.684 454.046 559.857C457.081 558.031 460.718 557.483 464.157 558.334L488.225 560.617C488.914 560.683 489.581 560.896 490.18 561.242C490.779 561.589 491.297 562.06 491.697 562.625C492.098 563.19 492.372 563.834 492.501 564.514C492.63 565.194 492.611 565.894 492.445 566.566V566.566Z" fill="#5F3973"/>
<path d="M576.01 608.829C579.876 608.829 583.01 605.695 583.01 601.829C583.01 597.963 579.876 594.829 576.01 594.829C572.144 594.829 569.01 597.963 569.01 601.829C569.01 605.695 572.144 608.829 576.01 608.829Z" fill="#5F3973"/>
<path d="M1274 829C1274 829.265 1273.84 829.519 1273.57 829.706C1273.29 829.894 1272.92 829.999 1272.53 830H58.468C58.0787 830 57.7053 829.895 57.43 829.707C57.1547 829.52 57 829.265 57 829C57 828.735 57.1547 828.48 57.43 828.293C57.7053 828.105 58.0787 828 58.468 828H1272.53C1272.92 828.001 1273.29 828.106 1273.57 828.294C1273.84 828.481 1274 828.735 1274 829Z" fill="#3F3D56"/>
<path d="M1104.07 429.214H1093V465.931H1104.07V429.214Z" fill="white"/>
<path d="M1143.72 429H1107V465.717H1143.72V429Z" fill="white"/>
<path d="M1157.88 429.214H1146.82V465.931H1157.88V429.214Z" fill="white"/>
<path d="M1146.82 426.196H1157.88V425.441C1157.89 420.821 1156.9 416.254 1154.99 412.047C1153.08 407.839 1150.3 404.089 1146.82 401.049V426.196Z" fill="white"/>
<path d="M1143.8 468.948H1107.08V502.144H1143.8V468.948Z" fill="white"/>
<path d="M1104.07 468.948H1093V494.096C1093 496.231 1093.85 498.278 1095.36 499.787C1096.87 501.296 1098.91 502.144 1101.05 502.144H1104.07L1104.07 468.948Z" fill="white"/>
<path d="M1146.82 468.948V502.144H1149.84C1150.89 502.144 1151.94 501.936 1152.91 501.531C1153.89 501.127 1154.78 500.534 1155.53 499.787C1156.27 499.04 1156.87 498.152 1157.27 497.176C1157.67 496.2 1157.88 495.153 1157.88 494.096V468.948H1146.82Z" fill="white"/>
<path d="M1104.07 426.196V401.049C1100.59 404.089 1097.8 407.839 1095.89 412.047C1093.98 416.254 1093 420.821 1093 425.441V426.196H1104.07Z" fill="white"/>
<path d="M1107.08 426.196H1143.8V398.697C1138.4 394.978 1132 392.991 1125.44 393C1118.89 392.991 1112.48 394.978 1107.08 398.697V426.196Z" fill="white"/>
</svg>
