<svg width="282" height="131" viewBox="0 0 282 131" fill="none" xmlns="http://www.w3.org/2000/svg">
<path fill-rule="evenodd" clip-rule="evenodd" d="M225.744 87.0314C235.632 83.6885 265.437 73.6115 271.901 80.8797C273.12 82.6337 271.43 83.2662 271.082 82.7774C271.045 82.6574 271.026 82.5596 271.028 82.4925C271.032 82.4702 271.037 82.4469 271.044 82.4229C271.034 82.4397 271.029 82.4632 271.028 82.4925C271.009 82.6113 271.031 82.7062 271.082 82.7774C271.524 84.2089 274.567 88.7943 275.332 81.9085C275.618 78.8222 274.76 76.2504 273.331 74.7073C266.517 66.6919 237.361 76.3963 226.382 80.0507C225.384 80.3831 224.536 80.6654 223.868 80.8797L222.439 81.3941C217.292 83.4516 214.433 81.9085 213.004 79.3366C212.146 77.7935 211.86 75.736 212.146 73.1642V72.6497C216.435 72.1354 220.723 69.0492 221.295 63.9054C221.295 62.3623 221.009 61.3336 220.723 60.3048C220.152 59.2762 219.58 58.7619 219.008 58.2475L219.008 58.2474C216.435 56.7043 213.861 59.2761 211.86 63.9054C211.288 65.4486 210.716 66.9917 210.145 69.0492H210.144C209.001 69.0492 207.857 69.0492 207 68.5348C205.856 68.0205 204.712 67.506 204.426 66.4773C204.14 65.4486 204.14 64.4198 204.712 62.8767C204.712 62.6195 204.784 62.3623 204.855 62.1051C204.927 61.8479 204.998 61.5908 204.998 61.3336C205.284 57.733 204.426 57.7329 202.711 59.7904C202.139 60.3048 201.567 61.3336 200.995 62.3623C198.708 66.4773 194.991 73.6786 193.276 78.8223C193.276 76.6961 193.199 73.6088 193.126 70.6244C193.057 67.8328 192.99 65.1313 192.99 63.3911V61.3336C192.704 59.7905 192.418 59.2761 191.56 59.2761C190.703 59.7905 189.845 61.3336 188.415 64.4198C185.556 70.5923 180.124 81.3941 176.121 81.3941C174.692 81.3941 173.548 80.3654 172.976 78.8223C172.816 78.5334 172.745 78.0824 172.664 77.5602C172.6 77.1525 172.53 76.7015 172.404 76.2504C172.976 75.736 173.548 75.2217 173.834 74.7073C176.693 71.1067 178.408 67.5061 179.266 64.4198C179.552 62.8768 179.552 61.8481 179.552 60.8194V60.8192C179.266 59.2761 178.98 58.2474 178.408 57.733C177.837 57.2186 176.979 56.7042 176.121 57.2186H175.835C172.976 59.2761 170.975 63.3911 170.117 68.0204C169.545 69.5635 169.545 71.6211 169.545 73.6786L166.114 76.7647C164.113 78.8222 162.112 79.851 160.396 80.3653C158.681 80.8797 157.537 80.3654 156.965 78.8223C156.679 78.8223 156.679 78.3079 156.679 78.3079C156.393 77.2792 156.393 76.2506 156.393 74.7078V74.7073C156.393 73.1355 156.727 71.5637 157.012 70.2212C157.1 69.8064 157.184 69.4134 157.251 69.0492C157.376 68.5981 157.447 68.1471 157.51 67.7394C157.592 67.2172 157.662 66.7661 157.823 66.4773L157.887 66.2075C158.694 62.8247 158.93 61.8349 157.537 61.3336C156.965 61.3336 156.679 61.848 156.107 62.8767C155.536 63.391 154.964 64.4197 154.106 65.9626L154.106 65.963C150.103 72.1354 146.958 76.2504 144.671 78.8223C142.67 80.8798 140.954 81.9085 139.81 81.9085H139.239C138.667 81.3941 138.381 80.8797 138.095 79.3366C137.809 77.2793 137.809 75.2221 137.809 72.6506V72.6497V72.6492C137.809 71.1062 137.809 69.049 138.095 66.9917C142.384 58.7617 146.672 46.9311 149.817 31.5C151.247 24.2987 151.819 17.612 151.819 14.5257C151.819 12.9826 151.533 11.4394 150.961 10.9251C150.389 9.89631 149.531 9.89635 148.674 11.4395C147.816 12.9826 146.101 17.6119 144.099 25.8419C143.544 28.507 142.868 31.172 142.228 33.6973C141.88 35.0713 141.542 36.4038 141.24 37.6725C140.478 40.4157 139.969 42.7018 139.63 44.2258C139.461 44.9879 139.334 45.5595 139.239 45.9024C137.809 52.0749 136.665 58.7617 136.094 64.4198L135.522 65.4486C132.091 71.621 128.374 75.736 125.515 77.7935C122.656 79.851 120.654 80.3654 119.511 79.851C118.367 77.7935 118.081 74.1929 118.653 70.5923V70.0779C122.656 68.5348 124.943 66.9917 126.373 63.9054C127.23 62.3623 127.802 59.2761 128.088 56.7043C128.374 54.6468 128.088 52.0749 127.23 50.5318C126.373 48.9887 125.229 48.9886 124.085 50.0174C123.828 50.4798 123.456 51.0461 123.046 51.6697C122.543 52.4334 121.984 53.2829 121.512 54.1324C119.797 57.733 118.081 62.3624 117.224 66.9917C116.037 67.6014 114.751 68.0305 113.364 68.493C112.41 68.8109 111.41 69.1445 110.362 69.5636C110.083 69.647 109.797 69.7305 109.504 69.8162C107.989 70.2585 106.274 70.7593 104.358 71.621V70.0779C101.498 42.8161 58.6118 50.5317 56.8963 51.0461H56.0385C56.386 50.8377 56.7335 50.5449 57.1 50.2361C57.6382 49.7827 58.2173 49.2947 58.8977 48.9887C64.9018 44.8737 74.6228 38.1868 79.1974 27.8994C81.4846 22.7556 82.3424 16.5832 82.0565 11.4395C81.7706 8.8676 81.4846 6.29572 80.6269 4.7526C79.7692 2.69511 78.9114 1.15198 77.4819 0.637609C75.4805 -0.391136 72.9073 0.637672 69.4764 4.23828C68.0468 5.7814 66.6173 7.32451 65.4736 9.382C63.4722 11.9539 62.0427 14.5257 61.185 16.0688C55.1808 26.8706 49.4626 41.7874 44.888 56.1898C43.7445 60.3045 42.6009 63.9048 41.4574 67.5051L41.4571 67.506C40.8853 61.8479 39.7416 55.1611 38.3121 48.4743C37.1684 43.3305 35.7389 39.2156 33.7375 35.6149C31.1643 30.9856 27.7334 27.8994 23.4447 26.8706C19.442 25.8419 15.7251 26.3563 12.2942 26.8706C8.86325 27.8994 5.71823 28.9282 3.71685 29.9569C3.38189 29.9569 3.14503 30.1334 2.94881 30.2796C2.81006 30.383 2.69163 30.4712 2.5732 30.4712C0.857737 31.5 0 32.0144 0 33.5575C0 35.1006 0.571822 35.615 1.42955 36.1294C2.00138 36.1294 2.57321 36.6437 3.43094 37.6725C6.57597 40.7587 10.0069 46.4168 13.1519 52.0749C19.4419 62.8767 25.4461 73.1642 30.3066 66.9917C31.1643 65.963 31.7361 64.9342 32.022 63.3911C34.8812 51.5605 20.0138 36.1294 13.1519 38.7012C17.1547 39.2156 34.5952 53.618 28.877 63.9054C25.4461 68.0204 20.0138 58.7617 14.5815 49.503L14.5815 49.503C14.0374 48.6058 13.5005 47.7085 12.9686 46.8195C10.1459 42.1022 7.46145 37.6159 4.57457 34.5862H4.28866C6.29004 33.5575 9.14916 32.5287 12.2942 32.0144C15.7251 30.9856 19.156 30.9856 22.8729 32.0144C26.8756 33.0431 29.7348 35.615 32.022 39.7299C34.3093 43.3306 36.0248 48.9886 37.1684 55.1611C38.598 62.3623 39.4557 68.5348 40.0275 74.7073C36.5966 87.5666 34.0234 99.9115 32.5939 108.142C31.7361 113.285 31.7361 116.886 32.022 118.943C32.308 120.486 32.8798 121.001 33.4516 121.515C34.0234 122.03 34.8811 121.515 35.453 121.001C36.5966 119.972 38.3121 116.886 39.4557 112.771C41.4571 106.084 43.1726 96.3109 42.8867 83.4516V83.4515C42.8867 80.8797 42.8867 78.3078 42.6007 75.736C44.0303 70.5923 45.7458 64.9342 47.4612 59.7904C52.0358 45.388 57.4681 31.5 63.4723 20.6982C64.2507 18.8308 65.5002 16.9635 67.0069 14.7116C67.1603 14.4823 67.3164 14.249 67.475 14.0113C68.6186 12.4682 69.7623 10.9251 71.1918 9.382C74.0509 6.29577 76.0523 5.78137 77.4819 6.29574C78.0537 6.29574 78.6255 7.32445 79.1974 8.3532C79.7692 9.89631 80.0551 11.4395 80.0551 12.9826C80.341 17.6119 79.4833 22.7556 77.7678 26.3562C73.4791 35.6149 64.33 42.3018 58.6118 46.4168C57.4681 47.4455 56.3245 48.4743 55.4667 48.9887L53.7513 50.5318C52.8935 51.5605 52.6076 52.5892 52.6076 53.618C52.8935 55.1611 53.4654 55.6755 54.609 56.1898C55.4667 56.7042 56.3245 56.7043 57.754 56.7043C57.754 56.7043 100.355 47.9599 102.642 72.1354V73.6786C102.305 73.8 101.935 73.9214 101.545 74.0496C100.283 74.4645 98.8061 74.9501 97.4956 75.736C84.3437 81.3941 74.051 88.0809 66.3314 94.7678C54.0372 105.57 47.7471 115.857 45.1739 121.515C44.0303 123.573 43.4585 125.116 43.4585 125.116L43.1726 126.145C43.1726 127.688 43.7444 129.231 44.6021 129.745C45.4598 130.26 46.3176 130.26 47.1753 130.26C52.0358 130.26 61.4709 124.601 62.0427 124.087C62.0734 124.032 62.5523 123.733 63.3867 123.214C70.3242 118.892 101.836 99.263 104.643 76.7647C106.931 75.736 109.218 74.7073 111.219 74.1929C112.58 73.8869 113.738 73.3989 114.815 72.9454C115.548 72.6366 116.243 72.3438 116.938 72.1354C116.652 76.7648 116.938 80.8798 118.653 83.966C118.796 84.2232 119.01 84.3518 119.225 84.4804C119.439 84.609 119.654 84.7376 119.797 84.9947C121.226 86.0235 123.799 85.5091 127.23 82.9372C129.804 80.8797 133.235 77.2792 136.38 72.1354V73.1642C136.094 76.2504 136.38 79.3367 136.665 81.3941C137.237 83.966 137.809 85.5091 139.239 86.5379C139.525 87.0522 139.81 87.0522 140.382 87.0522H140.382C142.098 87.5666 144.099 86.5378 146.672 83.4516C148.823 81.0337 151.226 77.7065 154.594 73.0426C154.809 72.7457 155.027 72.4433 155.25 72.1354C155.25 72.6498 155.178 73.1642 155.107 73.6785C155.035 74.1929 154.964 74.7072 154.964 75.2216V75.2218C154.964 77.2792 154.964 79.3367 155.536 81.3941C155.536 81.9085 155.536 81.9085 155.821 82.4227L155.822 82.4229C156.965 85.5091 158.967 86.5378 161.254 86.0235C163.541 85.5091 165.828 83.966 167.83 82.4229C168.688 81.9085 169.831 80.8798 170.689 79.851L171.547 82.9372C172.404 85.5091 174.12 87.0522 176.407 87.0522C181.553 87.0522 187.272 75.2217 190.417 68.5348C190.526 68.3384 190.635 68.2169 190.728 68.1132C190.879 67.9454 190.989 67.8239 190.989 67.506C191.019 68.2859 191.05 69.1261 191.083 70.0058C191.35 77.2484 191.715 87.1636 192.99 88.0809C193.848 88.5953 194.705 88.0809 194.991 85.5091C195.563 81.3941 199.566 73.1642 202.425 68.5348C202.568 68.792 202.639 69.1778 202.711 69.5635C202.782 69.9493 202.854 70.3351 202.997 70.5923C203.569 72.1354 204.998 73.6785 206.714 74.1929C207.571 74.7073 208.715 74.7073 209.859 74.7073C209.573 78.3079 209.859 81.9085 211.288 84.4803C213.004 88.0809 216.721 90.1384 222.725 88.0809C222.843 88.0809 223.011 87.9927 223.207 87.8893C223.484 87.7431 223.819 87.5666 224.154 87.5666C224.602 87.4175 225.135 87.2372 225.744 87.0314ZM277.334 87.0522C277.334 87.0522 277.334 77.2791 280.479 80.3653C283.91 83.4516 277.334 87.0522 277.334 87.0522ZM164.685 44.3593C164.685 46.9311 164.399 48.9886 163.827 49.503C162.969 51.0461 161.254 51.0461 160.396 48.4743C158.967 44.8737 160.11 42.3018 162.112 41.2731C162.397 41.2731 162.683 40.7588 163.255 39.7303L163.255 39.7299L163.255 39.7296C163.827 38.7009 164.685 37.1578 165.828 34.5862L165.828 34.586C166.972 32.5286 168.116 30.4712 169.259 29.4425C170.403 28.4138 171.261 27.8994 172.404 27.385C172.816 27.385 173.03 27.385 173.047 27.4419C173.064 27.5036 172.85 27.6319 172.404 27.8994C171.547 28.4137 170.403 29.4425 169.259 30.9856C168.116 32.0144 166.972 34.0718 166.114 36.6437C165.257 39.2155 164.685 41.7874 164.685 44.3593ZM213.004 70.592C213.29 69.5634 213.576 68.5348 213.861 68.0204C215.291 64.9342 217.006 62.8767 218.436 63.9054L219.008 64.9342V65.4486C218.722 68.0204 216.149 69.5635 213.004 70.5923L213.004 70.592ZM172.584 71.7824C172.641 71.5328 172.69 71.3198 172.69 71.1067C173.548 67.5061 174.978 64.4199 176.979 63.3911H177.551C177.551 63.3911 177.265 63.9055 177.265 64.4198C176.693 66.4773 175.263 69.5635 172.69 72.6497L172.404 73.1642C172.404 72.5615 172.502 72.1354 172.584 71.7824ZM140.852 54.9961C141.287 52.9018 141.746 50.688 142.098 48.4743C142.384 47.4455 142.955 44.8737 143.813 40.2444C144.063 39.1948 144.313 38.1015 144.57 36.9773C145.195 34.2447 145.862 31.3293 146.672 28.4138C148.388 22.2413 149.531 18.6407 150.389 16.5832C150.389 19.6694 149.531 24.8132 148.388 30.9856C146.101 42.3018 143.241 51.5605 140.096 58.7617C140.317 57.573 140.579 56.308 140.852 54.9961ZM120.369 66.9917C121.226 63.9055 122.37 60.3049 123.514 58.2474C124.057 57.2691 124.601 56.4975 124.999 55.9327C125.229 55.6066 125.41 55.3494 125.515 55.1611C125.801 54.6467 126.087 54.6467 126.087 54.6467C126.373 54.6467 126.373 56.1898 126.373 57.2186C126.087 59.2761 125.801 61.3336 125.229 62.3623C124.371 64.4198 122.942 65.963 120.369 66.9917ZM98.0675 79.851L102.356 78.3079C98.0675 99.9115 61.4709 120.486 61.7568 119.972C61.7568 119.972 52.3217 126.145 47.4612 126.145H46.0317L47.1753 124.087C49.4626 118.943 55.7526 108.656 67.475 98.3684C75.1946 91.6815 85.2015 84.9947 98.0675 79.851ZM35.1671 110.199C36.3107 103.512 38.3121 93.7391 40.8853 83.4516V84.4803C41.1712 96.3109 39.7416 105.57 37.7403 111.742C36.5966 114.828 35.453 117.4 34.5952 118.429C34.3093 116.886 34.5952 114.314 35.1671 110.199ZM101.212 119.458L100.354 118.943H100.64V105.57C100.64 105.055 100.926 105.055 100.926 105.055H104.071C105.215 105.055 106.359 106.598 106.359 109.17C106.359 111.228 105.501 112.771 104.643 113.285L106.073 118.429C106.073 118.429 106.073 118.943 105.787 118.943H104.929H104.643L103.214 113.8H101.498V118.943C101.498 119.458 101.212 119.458 101.212 119.458ZM101.498 107.113V111.742V112.257H103.5C104.357 112.257 104.929 111.228 104.929 109.685C104.929 108.142 104.071 107.113 103.5 107.113H101.498ZM116.937 119.458L112.363 118.943V105.57C112.363 105.055 112.649 105.055 112.649 105.055H116.937C117.223 105.055 117.223 105.57 117.223 105.57V106.598C117.223 107.113 116.937 107.113 116.937 107.113H113.506V111.228H116.366C116.651 111.228 116.651 111.742 116.651 111.742V112.771C116.651 113.285 116.366 113.285 116.366 113.285H113.506V117.4H116.937C117.223 117.4 117.223 117.915 117.223 117.915V118.943C117.223 119.458 116.937 119.458 116.937 119.458ZM125.801 119.458C124.657 119.458 123.799 118.429 123.513 117.915C123.38 117.675 123.309 117.547 123.329 117.531C123.352 117.512 123.494 117.64 123.799 117.915C123.799 117.657 123.871 117.529 123.942 117.4C124.014 117.272 124.085 117.143 124.085 116.886H124.371C124.371 117.4 125.229 118.429 126.086 118.429C126.658 118.429 127.23 117.4 127.23 116.371C127.23 115.343 126.658 114.828 125.515 113.8C124.371 113.285 123.513 111.742 123.513 109.685C123.513 108.142 124.085 106.084 125.801 106.084C126.944 106.084 127.802 107.113 127.802 107.113V107.627L127.516 108.142H127.23C127.23 108.142 126.372 107.113 125.801 107.113C124.943 107.113 124.657 108.142 124.657 108.656C124.657 109.685 125.229 110.713 126.086 111.228C127.23 112.256 128.374 113.285 128.374 115.857C128.374 117.915 127.23 119.458 125.801 119.458ZM136.379 119.458L135.522 118.943H135.236V107.113H133.52C133.234 107.113 133.234 106.598 133.234 106.598V105.57C133.234 105.055 133.52 105.055 133.52 105.055H138.381C138.667 105.055 138.667 105.57 138.667 105.57V106.598C138.667 107.113 138.381 107.113 138.381 107.113H136.665V118.943C136.665 119.458 136.379 119.458 136.379 119.458ZM144.099 118.943H143.527C143.241 118.943 143.241 118.943 142.955 118.429L146.386 105.055H146.672H146.958L150.389 118.429C150.389 118.429 150.389 118.943 150.103 118.943H149.531C149.245 118.943 149.245 118.429 149.245 118.429L148.673 115.857H144.957C144.957 116.372 144.671 117.4 144.385 118.429C144.385 118.943 144.099 118.943 144.099 118.943ZM146.958 108.656L145.528 114.314H148.388L146.958 108.656ZM159.252 118.943C157.537 118.943 156.393 116.886 156.393 113.8H156.107V105.57C156.107 105.055 156.393 105.055 156.393 105.055H157.251C157.537 105.055 157.537 105.57 157.537 105.57V113.8C157.537 115.857 158.109 117.4 159.252 117.4C160.396 117.4 160.968 115.857 160.968 113.8V105.57C160.968 105.055 161.254 105.055 161.254 105.055H162.111C162.397 105.055 162.397 105.57 162.397 105.57V113.8C162.397 116.371 160.968 118.943 159.252 118.943ZM170.117 119.458L169.259 118.943H169.831V105.57C169.831 105.055 170.117 105.055 170.117 105.055H172.976C174.12 105.055 175.263 106.598 175.263 109.17C175.263 111.228 174.405 112.771 173.548 113.285L174.977 118.429C174.977 118.429 174.977 118.943 174.691 118.943H173.834H173.548L172.118 113.8H170.403V118.943C170.403 119.458 170.117 119.458 170.117 119.458ZM170.403 107.113V111.742V112.257H172.404C173.262 112.257 173.834 111.228 173.834 109.685C173.834 108.142 173.262 107.113 172.404 107.113H170.403ZM180.981 118.943H180.41C180.41 118.943 180.124 118.943 179.838 118.429L183.269 105.055H183.555H183.84L187.271 118.429C187.271 118.429 187.271 118.943 186.986 118.943H186.414C186.128 118.943 186.128 118.429 186.128 118.429L185.556 115.857H181.839C181.839 116.372 181.553 117.4 181.267 118.429C181.267 118.943 180.981 118.943 180.981 118.943ZM183.84 108.656L182.411 114.314H185.27L183.84 108.656ZM194.419 119.458L193.561 118.943V105.57C193.561 105.055 193.847 105.055 193.847 105.055H194.133L198.994 114.828V105.57C198.994 105.055 199.28 105.055 199.28 105.055H199.852C200.137 105.055 200.137 105.57 200.137 105.57V118.943C200.137 119.458 199.852 119.458 199.852 119.458H199.566L194.705 109.17V118.943C194.705 119.458 194.419 119.458 194.419 119.458ZM208.715 119.458L207.857 118.943H207.571V107.113H205.856C205.57 107.113 205.57 106.598 205.57 106.598V105.57C205.57 105.055 205.856 105.055 205.856 105.055H210.716C211.002 105.055 211.002 105.57 211.002 105.57V106.598C211.002 107.113 210.716 107.113 210.716 107.113H209.001V118.943C209.001 119.458 208.715 119.458 208.715 119.458ZM222.153 118.943H221.867L218.15 105.57C218.15 105.57 218.15 105.055 218.436 105.055H219.293H219.579L222.153 114.828L224.44 105.055H224.726H225.583C225.869 105.055 225.869 105.57 225.869 105.57L222.438 118.943H222.153ZM236.162 119.458L231.588 118.943V105.57C231.588 105.055 231.874 105.055 231.874 105.055H236.162C236.448 105.055 236.448 105.57 236.448 105.57V106.598C236.448 107.113 236.162 107.113 236.162 107.113H232.731V111.228H235.59C235.876 111.228 235.876 111.742 235.876 111.742V112.771C235.876 113.285 235.59 113.285 235.59 113.285H232.731V117.4H236.162C236.448 117.4 236.448 117.915 236.448 117.915V118.943C236.448 119.458 236.162 119.458 236.162 119.458ZM246.169 119.458C243.882 119.458 242.166 116.372 242.166 112.257C242.166 108.142 244.168 105.055 246.455 104.541C247.313 104.541 248.17 105.57 249.028 106.598V107.113L248.456 108.142H248.17C247.599 107.113 246.741 106.598 246.169 106.598C244.454 106.598 243.31 109.17 243.31 111.742C243.31 114.314 244.74 116.886 246.169 116.886C247.027 116.886 247.885 116.371 247.885 116.371V114.314H246.741C246.455 114.314 246.455 113.8 246.455 113.8V112.771C246.455 112.257 246.741 112.257 246.741 112.257H248.742C249.028 112.257 249.028 112.771 249.028 112.771V117.4V117.915C249.028 117.915 247.885 119.458 246.169 119.458ZM259.035 119.458C256.748 119.458 255.032 116.372 255.032 112.257C255.032 108.142 256.748 105.055 259.321 104.541C260.179 104.541 261.036 105.57 261.894 106.598V107.113L261.322 108.142H261.036C260.465 107.113 259.607 106.598 259.035 106.598C257.32 106.598 256.176 109.17 256.176 111.742C256.176 114.314 257.32 116.886 259.035 116.886C259.893 116.886 260.751 116.371 260.751 116.371V114.314H259.607C259.321 114.314 259.321 113.8 259.321 113.8V112.771C259.321 112.257 259.607 112.257 259.607 112.257H261.608C261.894 112.257 261.894 112.771 261.894 112.771V117.4V117.915C261.894 117.915 260.751 119.458 259.035 119.458ZM269.328 119.458L268.47 118.943H268.184V105.57C268.184 105.055 268.47 105.055 268.47 105.055H269.328C269.614 105.055 269.614 105.57 269.614 105.57V118.943C269.614 119.458 269.328 119.458 269.328 119.458ZM281.05 119.458L276.476 118.943V105.57C276.476 105.055 276.762 105.055 276.762 105.055H281.05C281.336 105.055 281.336 105.57 281.336 105.57V106.598C281.336 107.113 281.05 107.113 281.05 107.113H277.619V111.228H280.478C280.764 111.228 280.764 111.742 280.764 111.742V112.771C280.764 113.285 280.478 113.285 280.478 113.285H277.619V117.4H281.05C281.336 117.4 281.336 117.915 281.336 117.915V118.943C281.336 119.458 281.05 119.458 281.05 119.458Z" fill="#313030"/>
</svg>
