<svg width="282" height="130" viewBox="0 0 282 130" fill="none" xmlns="http://www.w3.org/2000/svg">
<path fill-rule="evenodd" clip-rule="evenodd" d="M115.917 0.335052C115.615 0.167527 115.312 0 115.009 0H113.193H112.891C111.983 0.670102 111.075 1.3402 110.167 2.68041C106.232 7.37112 105.324 17.4226 108.048 25.4639C108.956 28.1443 109.864 30.1546 111.075 32.1649C111.831 33.5049 112.664 34.845 113.496 36.1851L113.496 36.1855L113.496 36.1856L113.496 36.1857L113.496 36.1858L113.496 36.186L113.496 36.1861L113.496 36.1862L113.497 36.1863L113.497 36.1865L113.497 36.1866L113.497 36.1867L113.497 36.1868L113.497 36.187L113.497 36.1871L113.497 36.1872L113.497 36.1873L113.497 36.1875L113.497 36.1876L113.497 36.1877L113.497 36.1878L113.497 36.188L113.497 36.1881L113.498 36.1882L113.498 36.1883L113.498 36.1885L113.498 36.1886L113.498 36.1887C114.33 37.5279 115.161 38.867 115.917 40.2061C117.431 42.8865 118.641 46.237 119.247 50.9277C119.852 56.9587 118.944 62.3195 116.22 64.9999C113.799 67.0102 111.68 67.0102 109.259 64.3298C108.048 62.9896 107.14 60.9793 106.535 58.2989C106.371 57.5733 106.296 56.6514 106.214 55.6395L106.213 55.6393C106.144 54.782 106.068 53.86 105.93 52.938C105.93 51.5978 105.93 50.9277 106.232 50.9277L106.535 51.5978C107.443 54.9484 109.864 56.2886 111.377 53.6082C112.891 51.5978 113.496 45.5669 112.285 42.2164C110.167 35.5154 105.324 36.8556 103.811 43.5566C102.903 46.9071 102.903 50.9277 103.508 54.2783C104.114 62.3195 106.232 67.6803 109.562 70.3607C113.193 73.7112 116.825 72.371 120.457 68.3504C124.392 63.6597 126.208 54.9484 125.905 44.8968C125.602 38.8659 124.089 33.5051 122.576 30.1546C121.809 28.4572 120.921 27.0286 119.989 25.5283L119.989 25.5283C119.449 24.6594 118.894 23.7665 118.339 22.7835L114.707 16.7525C114.101 15.4123 113.496 13.402 113.193 11.3917C112.891 7.37112 113.799 5.36082 115.312 5.36082C116.825 6.03092 118.036 7.37112 118.944 9.38143C119.852 11.3917 120.457 13.402 120.76 15.4123C120.826 15.5592 120.878 15.7061 120.925 15.8389C121.092 16.3118 121.195 16.6056 121.668 16.0824C121.819 15.7474 122.046 15.5799 122.273 15.4123C122.5 15.2448 122.727 15.0773 122.878 14.7422C123.181 14.7422 123.181 14.0721 123.181 13.402C122.878 11.3917 122.651 9.38143 122.424 7.37112L122.424 7.37052C122.197 5.36042 121.97 3.35031 121.668 1.3402C121.668 0.670102 121.062 0 120.76 0.670102L120.154 2.01031C119.549 3.35051 119.247 3.35051 118.944 2.68041C118.641 2.34535 118.263 2.0103 117.885 1.67524L117.884 1.67514C117.506 1.34013 117.128 1.00511 116.825 0.670102C116.523 0.670102 116.22 0.502585 115.917 0.335064L115.917 0.335052ZM123.181 45.5669C123.181 48.2473 123.181 50.9277 122.576 52.938C122.273 48.2473 121.668 44.2267 120.457 40.8762C120.003 39.8711 119.549 39.0334 119.095 38.1958C118.641 37.3582 118.187 36.5205 117.733 35.5154C116.825 33.8403 115.917 32.3326 115.01 30.825L115.009 30.8247L115.009 30.8244C114.101 29.3168 113.193 27.8091 112.285 26.134C111.377 24.1237 110.469 22.1134 109.864 20.1031C109.259 17.4226 108.956 14.7422 109.864 11.3917V12.7319C110.167 16.0824 111.075 18.0928 111.983 20.1031C113.496 22.1133 115.009 24.7936 116.522 27.474L116.523 27.4742C118.339 30.1546 119.852 32.835 121.062 36.1855C122.273 38.8659 122.878 41.5463 123.181 45.5669ZM281.47 43.5566V39.536V31.4948C281.47 29.4845 281.47 28.1443 281.167 26.8041C280.562 18.7629 279.351 12.7319 276.627 7.37112C274.509 4.02061 272.39 1.3402 269.666 0.670102C268.758 0 268.153 0 267.548 0H266.034C265.429 0 264.824 0 264.218 0.670102C258.771 2.68041 255.139 9.38142 253.323 20.7732C252.415 26.1339 252.415 31.4946 252.415 37.5254V37.5257C252.415 42.8865 252.717 47.5772 253.625 52.2679C255.139 60.9793 257.863 67.6803 262.1 70.3607C265.126 72.371 268.153 72.371 271.18 71.0308C273.601 69.6906 276.022 67.0102 277.838 62.3195C279.957 56.9587 280.865 50.9277 281.47 43.5566ZM260.284 47.5772C260.284 43.5566 260.284 40.2061 259.981 36.1855C260.128 33.5888 260.203 30.992 260.277 28.4715C260.355 25.7885 260.431 23.1917 260.587 20.7732L260.587 20.7725C260.889 18.0923 261.192 15.4122 261.797 13.402C263.008 8.04122 264.824 6.03092 267.245 6.03092C269.364 6.70102 271.18 8.71132 272.087 12.7319C272.693 15.4123 272.995 18.7629 273.298 22.1134C273.601 30.8247 273.601 38.8659 273.298 47.5772C273.298 50.9277 272.693 54.9484 272.087 58.2989C271.18 62.3195 269.969 64.9999 267.85 65.67C264.824 67.0102 262.705 64.3298 261.495 57.6288C260.889 54.2783 260.284 50.9277 260.284 47.5772ZM277.535 51.5978C276.93 54.9484 276.022 57.6288 274.811 60.3092C275.114 57.6288 275.417 54.9484 275.417 53.6082C276.022 47.5772 276.325 42.2164 276.325 36.1855C276.022 28.1443 275.719 21.4433 274.509 14.0721C274.509 13.7371 274.433 13.402 274.357 13.067C274.282 12.7319 274.206 12.3969 274.206 12.0618C274.206 11.7268 274.13 11.3917 274.055 11.0567C273.979 10.7216 273.903 10.3866 273.903 10.0515C274.055 10.0515 274.13 10.2191 274.206 10.3866C274.282 10.5541 274.357 10.7216 274.509 10.7216C275.719 12.7319 276.627 15.4123 277.233 18.7629C278.443 25.4639 279.049 32.1649 278.746 39.536C278.746 43.5566 278.443 47.5772 277.535 51.5978ZM257.257 35.5154C257.257 44.2267 257.56 52.938 259.376 61.6494C258.165 58.969 257.257 56.9587 256.652 54.2783C255.744 50.2576 255.441 45.5669 255.139 40.8762C254.836 36.1855 254.836 32.1649 255.139 28.1443C255.744 22.1134 256.652 16.0824 258.771 11.3917L259.376 10.0515C259.376 9.38143 259.679 9.38143 259.679 9.38143C257.863 18.0928 257.257 26.8041 257.257 35.5154ZM0 2.01018C0.302656 1.34008 0.605312 1.34008 0.907968 1.34008H12.1062C12.7116 1.34008 13.0142 2.01018 13.0142 3.35039V6.03079C13.0142 6.70089 13.0142 6.7009 12.4089 6.7009H11.1983C10.8956 6.7009 10.593 7.371 10.593 8.0411V8.7112V62.3194V62.9895C10.593 63.6596 10.8956 64.3297 11.1983 64.3297H12.4089C13.0142 64.3297 13.0142 64.9998 13.0142 65.6699V68.3503C13.0142 69.6905 12.7116 70.3606 12.1062 70.3606H2.11859H0.907968C0.605312 70.3606 0.302656 70.3606 0 69.6905V66.34C0.302656 65.6699 0.605312 65.6699 1.21062 65.6699H1.81594C2.7239 65.6699 3.02656 65.6699 3.02656 62.9895V50.9276V8.7112C2.7239 7.371 2.42125 6.7009 1.81594 6.7009H0.907968C0.605312 7.371 0.302656 6.70089 0 6.03079V2.01018ZM5.44781 64.9998H7.86906V7.371H5.44781V64.9998ZM111.983 111.237C114.706 117.268 117.128 123.299 119.549 129.33V130H120.154L120.154 130L120.154 129.999C120.312 129.65 120.388 129.483 120.424 129.307C120.457 129.147 120.457 128.98 120.457 128.66V121.288V103.196C120.457 102.352 120.457 102.039 120.306 101.924C120.217 101.855 120.076 101.855 119.852 101.855H118.641C118.036 101.855 118.036 101.855 118.036 103.196V117.938V118.608L117.733 117.938C117.494 117.342 117.258 116.754 117.024 116.17L117.01 116.135L117.008 116.13C114.881 110.824 112.949 106.005 110.772 101.185C110.469 100.515 110.167 100.515 109.864 100.515C109.561 100.515 109.561 101.185 109.561 101.855V117.268V127.319C109.561 128.66 109.864 128.66 110.167 128.66H111.377C111.983 128.66 111.983 128.66 111.983 127.319V112.577V111.237ZM201.569 129.33C200.964 127.319 200.358 125.979 199.45 123.969C197.865 120.46 196.511 116.951 194.985 112.996L194.984 112.995L194.984 112.994L194.984 112.993C194.762 112.417 194.536 111.833 194.305 111.237C194.305 111.237 194.305 110.567 194.003 110.567V111.237V127.319C194.003 128.163 194.003 128.476 193.852 128.591C193.763 128.66 193.622 128.66 193.397 128.66H192.187C191.884 128.66 191.581 128.66 191.581 127.319V117.268V101.855C191.581 101.185 191.581 100.515 191.884 100.515C192.187 100.515 192.489 100.515 192.792 101.185C194.003 103.866 195.137 106.546 196.272 109.226C197.407 111.907 198.542 114.587 199.753 117.268L200.056 117.938V116.598V101.855C200.056 101.012 200.056 100.699 200.207 100.583C200.296 100.515 200.437 100.515 200.661 100.515H201.872C202.174 100.515 202.477 100.515 202.477 101.855V127.319V128.66H201.569V129.33ZM82.4739 128.995C82.6252 129.162 82.7765 129.33 82.9279 129.33V128.66H84.1385C84.7438 128.66 85.3491 127.989 85.9544 127.319C87.4677 124.639 88.3757 121.288 88.3757 117.268V104.536V101.855C88.3757 101.012 88.3757 100.699 88.2247 100.583C88.1358 100.515 87.9946 100.515 87.7704 100.515H86.5597C86.3354 100.515 86.1943 100.515 86.1054 100.583C85.9544 100.699 85.9544 101.012 85.9544 101.855V117.938C85.9544 120.618 85.3491 122.629 84.4411 123.299C83.5332 123.969 82.3225 123.969 81.7172 121.959C81.4146 120.618 81.1119 119.278 81.1119 117.268V101.855V101.855C81.1119 101.012 81.1119 100.699 80.961 100.583C80.8721 100.515 80.7309 100.515 80.5066 100.515H79.296C78.6907 100.515 78.6907 101.185 78.6907 101.855V117.938C78.6907 122.629 80.204 127.319 82.0199 128.66C82.1712 128.66 82.3225 128.827 82.4739 128.995ZM96.5473 129.33C96.2446 129.33 96.0176 129.162 95.7906 128.995C95.5636 128.827 95.3366 128.66 95.034 128.66C92.3101 126.649 90.4941 119.948 90.7968 113.247C91.0995 107.217 93.5207 101.856 96.2446 101.186C98.0605 100.516 99.8765 101.856 101.39 104.536C101.692 105.206 101.692 105.876 101.39 106.546L100.482 108.557C100.179 109.227 99.8765 109.227 99.5738 108.557C98.3632 106.546 96.8499 105.876 95.3366 107.217C93.5207 109.227 92.9154 113.918 93.218 117.938C93.8234 121.959 95.3366 124.639 97.4552 124.639C98.3632 124.639 98.9685 123.969 99.5738 122.629C99.8765 121.959 100.179 121.959 100.482 122.629L101.39 124.639C101.541 124.974 101.617 125.142 101.617 125.309C101.617 125.477 101.541 125.644 101.39 125.979C100.482 127.99 99.5738 128.66 98.3632 129.33H98.0606H96.5473ZM70.3672 128.66C70.7455 128.827 71.1238 128.995 71.4265 129.33V130H73.5451H73.8477C75.0584 129.33 75.9663 128.66 76.8743 126.649C77.177 125.979 77.177 125.309 76.8743 124.639L75.9663 122.629C75.6637 121.959 75.361 121.959 75.0584 122.629C74.1504 124.639 73.2424 125.309 72.0318 124.639C70.5185 123.969 69.0053 121.289 68.7026 117.938C68.3999 113.918 69.0053 109.897 70.2159 107.887C71.7292 105.876 73.5451 105.876 75.0584 108.557C75.2097 108.892 75.2854 109.059 75.361 109.059C75.4367 109.059 75.5124 108.892 75.6637 108.557L76.5717 106.546C76.7649 105.691 76.8348 105.381 76.7812 105.095C76.7509 104.933 76.6811 104.778 76.5717 104.536C75.0584 101.856 73.2424 100.516 71.4265 101.186C68.7026 101.856 66.584 107.217 65.9787 113.247C65.3734 119.278 66.8867 125.309 69.3079 127.99C69.6106 128.325 69.9889 128.492 70.3672 128.66ZM90.1913 53.608H84.4408H82.3223C82.0196 53.608 82.0196 53.608 82.0196 54.2781C81.8683 55.9534 81.7169 57.4611 81.5656 58.9689C81.4143 60.4766 81.2629 61.9843 81.1116 63.6595C81.1116 64.9998 81.1116 65.6699 81.7169 65.6699H82.9276C83.5329 65.6699 83.5329 66.34 83.5329 67.6802V70.3606C83.5329 71.0307 83.2302 71.7008 82.9276 71.7008H76.2691C75.9665 71.7008 75.6638 71.0307 75.6638 70.3606V67.0101C75.6638 66.34 75.9665 65.6699 76.2691 65.6699H77.4798C78.3877 65.6699 78.3877 65.6699 78.3877 63.6595C78.6904 60.309 79.0687 56.791 79.447 53.273L79.4472 53.2716C79.8254 49.754 80.2037 46.2365 80.5063 42.8864C81.1116 37.1906 81.7169 31.6623 82.3222 26.134L82.3222 26.1339C82.9276 20.6055 83.5329 15.0772 84.1382 9.3813C84.1382 8.0411 84.1382 7.371 83.5329 7.371C82.6249 7.371 82.6249 6.70089 82.6249 4.69059V3.35039C82.6249 2.01018 82.9276 1.34008 83.5329 1.34008H85.9541H92.6126C93.2179 1.34008 93.5205 2.01018 93.5205 2.68028C93.7485 4.90153 93.9765 7.10757 94.2035 9.30298L94.205 9.3181L94.2105 9.37072L94.2177 9.44082L94.2212 9.47459L94.2229 9.49065L94.2283 9.54303L94.231 9.56867L94.2323 9.58099C95.5016 21.8587 96.7372 33.8097 97.7577 46.2369C98.363 52.2678 98.9683 58.2987 99.5736 63.6595C99.5736 64.9998 99.8763 64.9998 100.482 64.9998H101.39C101.995 64.9998 101.995 65.6699 101.995 67.0101V69.6905C101.995 71.0307 101.692 71.7008 101.39 71.7008H99.271H89.8886C89.2833 71.7008 88.9807 71.7008 88.9807 69.6905V67.0101C88.9807 65.6699 89.2833 65.6699 89.586 65.6699H90.7966C91.4019 65.6699 91.4019 64.9998 91.4019 64.3297C91.2316 62.0667 90.9654 60.0161 90.7112 58.0582C90.5138 56.5375 90.3236 55.0728 90.1913 53.608ZM88.678 7.371C90.494 26.8039 92.3099 46.2369 94.1258 64.9998H96.8497C95.8259 54.0435 94.7059 43.0872 93.5981 32.251L93.598 32.2502C92.741 23.8667 91.8914 15.5551 91.0993 7.371H88.678ZM86.5594 14.7421C85.3488 25.4637 84.1382 36.8555 82.9276 48.2472H89.8886C88.678 36.8555 87.4674 25.4637 86.5594 14.7421ZM64.7683 50.2575V48.9173C66.2815 48.9173 67.4922 48.2472 68.4001 47.5771C70.5187 46.907 72.3347 44.8967 73.8479 41.5462C75.9665 36.8555 76.8745 31.4947 76.8745 25.4637C76.8745 16.0823 75.0586 8.7112 71.124 4.69059C69.0054 2.68028 66.5842 1.34008 64.1629 1.34008H54.7806C54.478 1.34008 54.1753 2.01018 54.1753 2.68028V5.36069C54.1753 6.34179 54.3375 6.60467 54.5431 6.938C54.6184 7.06 54.6995 7.19144 54.7806 7.371H55.9912C56.5965 7.371 56.8992 8.0411 56.8992 9.3813V30.8246V62.3194C56.8992 63.6596 56.5965 64.3297 55.9912 64.3297H55.0833C54.7806 64.3297 54.478 64.9998 54.478 66.34V69.0204C54.478 69.6905 54.478 70.3606 55.0833 70.3606H66.8868C67.1895 70.3606 67.4922 69.6905 67.4922 69.0204V66.34C67.4922 65.6699 67.4922 64.9998 66.8868 64.9998H65.6762C65.0709 64.9998 64.7683 64.3297 64.7683 62.9895V50.2575ZM64.7683 43.5565V7.371C65.9789 7.371 66.8868 7.371 67.7948 8.7112C69.9134 10.0514 71.4267 12.0617 72.94 15.4122C74.1506 18.7627 74.4533 22.7833 74.4533 26.804C74.4533 28.8143 74.1506 31.4947 73.8479 33.505C73.2426 36.8555 72.3347 38.8658 70.8214 40.8761C69.0054 42.8864 66.8868 43.5565 64.7683 43.5565ZM59.6231 7.371H62.0444V64.9998H59.6231V7.371ZM218.518 40.8768C218.518 42.8871 218.593 45.0649 218.669 47.2427C218.745 49.4206 218.82 51.5984 218.82 53.6087C218.82 55.619 219.123 58.2994 219.728 60.3097C220.636 63.6602 221.847 65.6705 223.36 66.3406C225.176 67.0107 226.689 66.3406 228.203 64.3303C229.111 62.9901 229.716 60.9798 230.321 58.9695C230.624 57.6293 230.624 56.2891 230.019 55.619C230.019 55.619 229.716 54.9489 229.413 54.9489C227.9 53.6087 227.295 50.2582 227.597 46.9077C227.9 43.5572 229.413 41.5469 230.926 41.5469C232.44 41.5469 233.65 44.2273 233.953 47.5778C234.256 50.2582 233.953 53.6087 233.65 56.2891C233.348 60.3097 232.44 63.6602 231.229 67.0107C229.716 70.3613 228.203 71.7015 226.387 72.3716C222.755 73.0417 219.728 71.0314 216.702 66.3406C214.583 62.32 213.07 56.9592 212.162 50.9283C210.649 39.5366 210.649 28.8149 212.767 18.0933C214.28 9.38198 217.307 4.02116 221.241 1.34076C223.965 0.000553442 226.689 0.670655 229.111 2.68096C229.716 3.35106 230.019 3.35106 230.321 2.01086L230.926 0.670655C231.229 0.000570297 231.532 0.670622 231.834 1.34071V1.34076C232.137 5.36137 232.44 9.38198 233.045 13.4026C233.045 14.0727 233.045 14.7428 232.44 15.4129C232.288 15.4129 232.061 15.5804 231.834 15.748C231.607 15.9155 231.38 16.083 231.229 16.083C230.926 16.083 230.624 16.083 230.321 15.4129C230.321 14.6278 230.217 14.0727 230.131 13.6128C230.07 13.2876 230.019 13.0101 230.019 12.7325C229.111 8.04178 227.295 6.03147 225.176 6.03147C223.36 6.03147 222.149 8.04178 221.241 10.7222C220.031 14.0726 219.728 18.0932 219.426 22.1137V22.1139C219.274 24.1242 219.199 26.1345 219.123 28.1448C219.047 30.1551 218.972 32.1654 218.82 34.1758C218.82 36.8562 218.82 38.8665 218.518 40.8768ZM218.215 9.38198L217.912 10.0521C215.491 15.4129 214.28 22.1139 213.978 29.485C213.675 34.8459 213.675 39.5366 214.28 44.8974C214.28 49.5881 214.886 53.6087 216.096 57.6293C216.248 58.2994 216.399 58.802 216.55 59.3046C216.702 59.8072 216.853 60.3097 217.004 60.9798C215.188 43.5572 215.491 26.1345 218.215 9.38198ZM182.199 29.4844H180.383L180.08 8.7112C180.08 8.0411 180.383 7.371 180.685 7.371H181.593H187.647C188.252 7.371 188.555 8.0411 188.555 9.3813V11.3916C188.555 12.7318 188.857 13.4019 189.462 13.4019H190.673C191.278 13.4019 191.581 12.7318 191.581 11.3916V3.35039C191.581 2.01018 191.278 1.34008 190.673 1.34008H186.739H171C170.395 1.34008 170.093 1.34008 170.093 2.68028V5.36069C170.093 6.03079 170.395 6.7009 170.698 6.7009H171.606C172.514 6.7009 172.514 7.371 172.514 8.7112V64.3297V64.9998C172.514 65.6699 172.211 66.34 171.908 66.34H171C170.395 66.34 170.093 67.0101 170.093 68.3503V71.0307C170.093 71.7008 170.093 72.3709 170.698 72.3709H182.501C182.804 72.3709 183.107 71.7008 183.107 70.3606V67.6802C183.107 66.34 182.804 65.6699 182.199 65.6699H180.988C180.383 65.6699 180.08 64.9998 180.08 63.6596V36.8555V35.5153H180.685H185.225C185.831 35.5153 186.133 34.8452 186.133 33.505V31.4947C186.133 30.1545 185.831 29.4844 185.225 29.4844H182.199ZM175.238 7.371H177.659V64.9998H175.238V7.371ZM142.551 6.70102V7.37112V62.3195C142.551 64.3298 142.854 64.3298 143.459 64.3298H144.367C144.972 64.3298 145.275 64.9999 145.275 66.3401V68.3504C145.275 69.6906 144.972 70.3607 144.367 70.3607H140.433H132.866C132.261 70.3607 131.958 69.6906 131.958 68.3504V66.3401C131.958 64.9999 132.261 64.3298 132.866 64.3298H134.077C134.682 64.3298 134.682 63.6597 134.682 62.9896V62.3195V8.04122V7.37112H134.38H130.445C129.84 7.37112 129.537 8.04122 129.537 9.38143V11.3917C129.537 12.7319 129.234 12.7319 128.932 12.7319H127.721C127.116 12.7319 126.813 12.0618 126.813 10.7216V2.01031C126.813 0.670102 127.116 0 127.721 0H150.118C150.723 0 151.026 0.670102 151.026 2.01031V10.0515C151.026 11.3917 150.723 12.0618 150.118 12.0618H148.907C148.302 12.0618 147.999 11.3917 147.999 10.0515V7.37112C147.999 6.70102 147.696 6.03092 147.394 6.03092C145.88 6.70102 144.367 6.70102 142.551 6.70102ZM137.406 64.9999H139.827V7.37112H137.406V64.9999ZM19.0677 9.3813V36.1854H18.765V62.9895C18.765 64.3297 18.4623 64.9998 17.857 64.9998H16.9491C16.868 65.1793 16.7869 65.3107 16.7116 65.4327L16.7116 65.4328C16.5059 65.7661 16.3438 66.029 16.3438 67.0101V69.0204C16.3438 70.3606 16.6464 71.0307 17.2517 71.0307H29.9633H36.9244C37.227 71.0307 37.5297 71.0307 37.5297 69.6905V60.9792C37.5297 60.3091 37.227 59.6389 36.9244 59.6389H35.7137C35.4111 59.6389 35.1084 60.3091 35.1084 60.9792V63.6596C35.1084 64.9998 34.8058 65.6699 34.2005 65.6699H27.8447C27.2394 65.6699 26.9367 64.9998 26.9367 63.6596V44.8967V8.7112C26.9367 7.371 27.2394 6.7009 27.8447 6.7009H28.7526C29.358 6.7009 29.358 6.70089 29.6606 6.03079V3.35039C29.6606 2.01018 29.358 1.34008 28.7526 1.34008H18.4623H16.9491C16.6464 1.34008 16.3438 2.01018 16.3438 2.68028V5.36069C16.3438 6.7009 16.6464 6.7009 16.9491 6.7009H18.1597C18.765 6.7009 19.0677 7.371 19.0677 9.3813ZM24.2128 64.9998H21.7916V7.371H24.2128V64.9998ZM164.342 36.1854V63.6596C164.342 64.9998 164.645 65.6699 165.25 65.6699H166.158C166.763 65.6699 166.763 66.34 166.763 67.0101V69.6905C166.763 71.0307 166.461 71.0307 166.158 71.0307H154.354C153.749 71.0307 153.749 70.3606 153.749 69.6905V67.0101C153.749 65.6699 154.052 64.9998 154.657 64.9998H155.565C156.17 64.9998 156.473 64.3297 156.473 62.9895V11.3916V8.7112C156.473 7.371 156.17 6.7009 155.565 6.7009H154.354C153.749 6.7009 153.447 6.03079 153.447 5.36069V2.68028C153.447 2.01018 153.749 1.34008 154.052 1.34008H165.855C166.158 1.34008 166.461 2.01018 166.461 2.68028V6.03079C167.066 6.70089 166.763 6.7009 166.158 6.7009H164.947C164.342 6.7009 164.342 7.371 164.342 8.0411V36.1854ZM161.618 7.371H159.197V64.9998H161.618V7.371ZM205.201 62.9895V36.1854V8.7112C205.201 7.371 205.201 6.7009 206.109 6.7009H207.017C207.622 6.7009 207.925 6.70089 207.925 6.03079V2.68028C207.925 2.01018 207.622 1.34008 207.319 1.34008H195.516C195.213 1.34008 194.911 2.01018 194.911 2.68028V5.36069C194.911 6.03079 195.213 6.7009 195.516 6.7009H196.726C197.332 6.7009 197.634 7.371 197.634 8.7112V62.9895C197.634 64.3297 197.332 64.9998 196.726 64.9998H195.516C194.911 64.9998 194.608 65.6699 194.608 67.0101V69.0204C194.608 70.3606 194.911 71.0307 195.516 71.0307H207.017H207.319C207.622 71.0307 207.925 70.3606 207.925 69.6905V66.34C207.925 65.6699 207.622 64.9998 207.319 64.9998H206.109C205.504 64.9998 205.201 64.9998 205.201 62.9895ZM200.056 7.371H202.477V64.9998H200.056V7.371ZM248.178 36.1854V62.9895C248.178 64.9998 248.178 64.9998 249.086 64.9998H250.297C250.599 64.9998 250.902 65.6699 250.902 66.34V69.6905C250.902 70.3606 250.599 71.0307 250.297 71.0307H249.994H238.493C237.888 71.0307 237.585 70.3606 237.585 69.0204V67.0101C237.585 65.6699 237.888 64.9998 238.191 64.9998H239.401C240.006 64.9998 240.309 64.3297 240.309 62.9895V8.7112C240.309 7.371 240.006 6.7009 239.704 6.7009H238.493C238.191 6.7009 237.888 6.03079 237.888 5.36069V2.68028C237.888 2.01018 238.191 1.34008 238.493 1.34008H250.297C250.599 1.34008 250.902 2.01018 250.902 2.68028V6.03079C250.599 6.70089 250.297 6.7009 249.994 6.7009H248.783C248.178 6.7009 248.178 7.371 248.178 8.7112V36.1854ZM243.033 64.9998H245.454V7.371H243.033V64.9998ZM2.11841 111.237V116.597H54.4779V112.577C54.4779 111.733 54.4779 111.421 54.3269 111.305C54.2381 111.237 54.0969 111.237 53.8726 111.237H2.42106H2.11841ZM279.352 111.908H226.992V116.598H279.352V111.908ZM187.344 126.649C187.647 127.989 187.949 129.33 188.857 128.66V127.989H190.068C190.37 127.989 190.673 127.989 190.37 126.649C188.555 118.608 186.739 109.897 184.923 101.185C184.771 101.185 184.696 101.018 184.62 100.85C184.544 100.683 184.469 100.515 184.317 100.515C184.015 100.515 183.712 100.515 183.712 101.185C182.804 105.876 181.896 109.897 180.988 113.917C180.534 116.263 180.08 118.44 179.626 120.618L179.626 120.619C179.172 122.796 178.718 124.974 178.264 127.319C177.962 127.989 177.962 128.66 178.567 128.66H179.778C180.08 128.66 180.383 128.66 180.383 127.989C180.383 127.008 180.545 126.386 180.751 125.598L180.751 125.597L180.751 125.597C180.826 125.308 180.907 124.998 180.988 124.639C181.19 124.193 181.257 124.044 181.369 123.994C181.425 123.969 181.492 123.969 181.593 123.969H185.528C186.436 123.969 186.739 123.969 187.041 125.979C187.344 125.979 187.344 126.649 187.344 126.649ZM183.107 114.923L183.107 114.923C183.409 113.415 183.712 111.907 184.015 110.567L184.015 110.568C184.62 113.248 185.225 115.928 185.831 119.278H182.199C182.501 117.938 182.804 116.43 183.107 114.923ZM214.583 128.66C213.675 129.33 213.372 127.99 213.07 126.65C213.07 125.979 212.767 124.639 212.464 123.969C212.269 123.536 211.947 123.663 211.581 123.806C211.38 123.885 211.165 123.969 210.951 123.969H207.319C207.207 123.969 207.136 123.969 207.092 124.003C207.016 124.061 207.016 124.217 207.016 124.639C206.936 124.996 206.855 125.306 206.78 125.593L206.78 125.595L206.779 125.597L206.779 125.597L206.779 125.598C206.573 126.387 206.411 127.009 206.411 127.99C206.411 128.66 206.108 129.33 205.806 129.33H204.595C203.99 129.33 203.99 128.66 204.293 127.99C204.898 124.639 205.503 121.959 206.411 118.608C207.016 115.928 207.546 113.248 208.075 110.568L208.076 110.568L208.076 110.568L208.076 110.568L208.076 110.567L208.076 110.567L208.076 110.567L208.076 110.567L208.076 110.565C208.606 107.885 209.135 105.206 209.74 102.526C209.74 102.112 209.856 101.954 210.016 101.735C210.114 101.6 210.23 101.442 210.346 101.186C210.497 101.186 210.573 101.353 210.648 101.521C210.724 101.688 210.8 101.856 210.951 101.856C212.767 110.567 214.583 119.278 216.399 127.32C216.701 128.66 216.399 128.66 216.096 128.66H214.583ZM209.74 110.567C209.135 113.917 208.53 116.597 207.925 119.277L207.924 119.278H211.556C210.951 115.928 210.346 113.247 209.74 110.567ZM131.05 126.65C131.353 127.99 131.655 129.33 132.563 128.66H134.379C134.682 128.66 134.984 128.66 134.682 127.32C132.866 119.279 131.05 110.567 129.234 101.856L129.234 101.856C129.083 101.856 129.007 101.688 128.931 101.521C128.856 101.353 128.78 101.186 128.629 101.186C128.326 101.186 128.023 101.186 128.023 101.856C127.569 103.531 127.191 105.374 126.813 107.217C126.434 109.059 126.056 110.902 125.602 112.577C125.148 114.923 124.618 117.436 124.089 119.949L124.089 119.949C123.559 122.462 123.029 124.974 122.576 127.32C122.273 127.99 122.273 128.66 122.878 128.66H124.089C124.391 128.66 124.694 128.66 124.694 127.99C124.694 127.009 124.856 126.387 125.062 125.598L125.062 125.598L125.062 125.597L125.062 125.596C125.138 125.308 125.218 124.998 125.299 124.639V124.639C125.299 124.217 125.299 124.061 125.375 124.003C125.419 123.969 125.49 123.969 125.602 123.969H129.839C130.445 123.969 130.747 123.969 130.747 125.309C130.747 125.309 131.05 125.979 131.05 126.65ZM126.813 114.923C127.115 113.415 127.418 111.907 127.721 110.567L127.721 110.568C128.326 113.248 128.931 115.928 129.537 119.278H125.905C126.207 117.938 126.51 116.43 126.813 114.923ZM157.684 123.299H155.262C155.262 123.299 154.96 123.299 154.96 123.969C154.657 125.309 154.354 126.649 154.052 127.319C154.052 127.989 153.749 127.989 153.446 127.989H152.236C151.631 127.989 151.631 127.319 151.933 126.649C152.538 123.969 153.068 121.456 153.598 118.943C154.127 116.43 154.657 113.917 155.262 111.237C155.565 109.562 155.943 107.886 156.322 106.211C156.7 104.536 157.078 102.861 157.381 101.185C157.381 100.515 157.684 100.515 157.986 100.515C158.138 100.515 158.213 100.683 158.289 100.85C158.365 101.018 158.44 101.185 158.592 101.185C160.408 109.897 162.223 118.608 164.039 126.649C164.342 127.989 164.039 127.989 163.737 127.989H162.526C162.223 127.989 161.921 127.989 161.921 127.319C161.84 126.961 161.759 126.65 161.684 126.362L161.683 126.361L161.683 126.361C161.478 125.572 161.316 124.95 161.316 123.969C161.316 123.299 161.013 123.299 161.013 123.299H157.684ZM157.684 110.567C157.381 111.907 157.078 113.415 156.776 114.922C156.473 116.43 156.17 117.938 155.868 119.278H159.5C158.894 115.928 158.289 113.247 157.684 110.567ZM144.367 105.876H146.183V106.546V127.32C146.183 128.163 146.183 128.476 146.334 128.592C146.423 128.66 146.564 128.66 146.788 128.66H147.999C148.223 128.66 148.364 128.66 148.453 128.592C148.604 128.476 148.604 128.163 148.604 127.32V107.217V105.876H151.328C151.933 105.876 151.933 105.206 151.933 104.536V101.856C151.933 101.186 151.933 101.186 151.631 101.186H151.328H144.367C144.143 101.186 144.002 101.186 143.913 101.254C143.762 101.37 143.762 101.682 143.762 102.526V104.536C143.762 105.38 143.762 105.692 143.913 105.808C144.002 105.876 144.143 105.876 144.367 105.876ZM167.369 123.969H168.579H171.606C171.908 123.969 172.211 123.969 172.211 125.309V127.99C172.211 128.66 172.211 128.66 171.908 128.66H165.553C165.471 128.66 165.411 128.66 165.367 128.633C165.25 128.562 165.25 128.297 165.25 127.32V101.186C165.25 100.516 165.25 99.8456 165.553 99.8456H166.763C167.369 99.8456 167.369 99.8456 167.369 101.186V120.619V123.969ZM139.525 101.855V114.587C139.525 119.278 139.525 123.299 139.222 127.319C139.222 128.66 139.525 128.66 139.827 128.66H141.341C141.946 128.66 141.946 127.989 141.946 127.319V121.959V101.855C141.946 101.012 141.946 100.699 141.795 100.583C141.706 100.515 141.565 100.515 141.341 100.515H140.13C139.906 100.515 139.764 100.515 139.676 100.583C139.525 100.699 139.525 101.012 139.525 101.855ZM174.33 114.587V101.855C174.33 101.012 174.33 100.699 174.481 100.583C174.57 100.515 174.711 100.515 174.935 100.515H175.843C176.068 100.515 176.209 100.515 176.298 100.583C176.449 100.699 176.449 101.012 176.449 101.855V117.268V127.319C176.449 128.163 176.449 128.476 176.298 128.591C176.209 128.66 176.068 128.66 175.843 128.66H174.633C174.33 128.66 174.027 128.66 174.027 127.319V114.587H174.33ZM104.114 101.855V114.587V127.319C104.114 128.163 104.114 128.476 104.265 128.591C104.354 128.66 104.495 128.66 104.719 128.66H105.93C106.154 128.66 106.295 128.66 106.384 128.591C106.535 128.476 106.535 128.163 106.535 127.319V107.216V101.855C106.535 101.012 106.535 100.699 106.384 100.583C106.295 100.515 106.154 100.515 105.93 100.515H104.719C104.495 100.515 104.354 100.515 104.265 100.583C104.114 100.699 104.114 101.012 104.114 101.855Z" fill="#313030"/>
</svg>
