<svg width="282" height="130" viewBox="0 0 282 130" fill="none" xmlns="http://www.w3.org/2000/svg">
<path fill-rule="evenodd" clip-rule="evenodd" d="M149.737 0C150.176 0 150.615 1.79125e-05 151.055 0.293472C152.811 0.586925 154.128 1.1738 154.567 2.64107V12.0316C154.567 14.6727 154.567 17.6072 154.128 20.2483V20.5418C154.128 21.1287 154.567 21.4221 155.446 21.4221H155.885C155.885 22.009 155.885 22.8894 154.567 23.1828C153.689 23.4763 152.372 23.4763 151.494 23.4763C150.616 23.1828 150.176 22.8894 150.176 22.3025C150.176 22.2137 150.136 22.098 150.092 21.9717C149.991 21.6807 149.87 21.3333 150.176 21.1287V14.6727C150.083 14.6727 149.87 14.6594 149.581 14.6413C148.509 14.5744 146.383 14.4416 145.346 14.6727V23.1828C144.029 23.4763 143.151 23.4763 141.833 23.4763C141.394 23.4763 140.955 23.1829 140.955 22.8894V21.1287C140.955 17.3138 140.955 13.2054 141.394 9.39051V3.81491C141.394 2.05419 142.711 0.880379 145.346 0.293472C145.785 0.293472 146.224 0.293454 146.663 0H149.737ZM145.785 12.0316H150.615V4.10833C150.615 3.22797 150.176 2.93452 148.859 2.64107H147.542C146.663 2.64107 145.785 3.228 145.785 3.81491V12.0316Z" fill="#313030"/>
<path d="M0 29.9323C0 30.079 0.109784 30.1524 0.219569 30.2257C0.329353 30.2991 0.439137 30.3724 0.439137 30.5192L8.34314 35.8014C16.0117 40.7797 23.7895 45.8312 31.5675 50.8828L31.6169 50.9149C39.4108 55.9767 47.2047 61.0386 54.8888 66.0271C55.3279 66.0271 55.3279 66.0271 55.7669 66.3205L0.878207 103.002L3.95203 105.056L57.9626 68.0813C63.2319 71.3093 68.0621 74.5373 72.8923 77.7653L75.0879 76.298L60.1581 66.3206C62.8496 64.5218 65.4266 62.7231 67.9475 60.9635C70.3615 59.2785 72.7253 57.6286 75.0879 56.0497L72.8923 54.5824C71.2985 55.6476 69.7046 56.7447 68.0949 57.8527C64.8268 60.1023 61.4928 62.3972 57.9626 64.5598L3.07376 27.8781L0 29.9323Z" fill="#313030"/>
<path fill-rule="evenodd" clip-rule="evenodd" d="M281.47 74.5373V74.2438H278.835V71.3093C278.396 69.5486 277.518 67.7879 276.201 66.3206C275.323 65.4402 274.444 64.5598 273.127 63.6795C273.127 63.6795 272.688 63.6795 272.688 63.3861C272.959 63.3861 273.063 63.2739 273.206 63.119C273.295 63.0233 273.398 62.9112 273.566 62.7991C275.762 61.0384 277.518 58.9842 278.396 56.6366C278.835 56.3432 278.835 55.7562 278.835 55.4628V52.5282C278.396 50.7675 277.518 49.0068 275.762 47.833C272.688 45.7788 268.297 44.3115 263.467 45.4854H263.027C263.027 45.3386 263.137 45.2653 263.247 45.1919C263.357 45.1185 263.467 45.0452 263.467 44.8985C263.743 44.5284 264.064 44.1291 264.401 43.7099L264.403 43.7071L264.404 43.7052C265.134 42.7962 265.94 41.7928 266.54 40.7901C266.979 40.2032 267.419 39.3228 267.419 38.4425C267.858 36.0949 266.54 33.4538 263.027 32.2799C261.71 31.693 259.514 31.3996 257.758 31.693C254.684 32.2799 252.05 33.7472 250.732 35.8014C250.293 36.0948 250.293 36.6815 250.293 36.975C250.293 37.8554 251.171 38.7359 252.489 39.0294C253.806 39.3228 255.123 39.0294 256.002 38.4425C256.441 38.4425 256.88 38.149 256.88 37.8555C258.197 36.3883 256.88 34.921 254.245 34.921H253.367C253.367 34.6276 253.367 34.6276 253.806 34.3342C255.562 33.1603 257.758 32.5734 260.393 32.5734C263.027 32.8669 264.784 34.0407 265.223 35.5079C265.516 35.8992 265.418 36.2905 265.321 36.6817C265.272 36.8774 265.223 37.073 265.223 37.2686C264.784 39.0294 263.906 40.4967 262.588 41.9639C261.93 42.8443 261.161 43.798 260.393 44.7517L260.391 44.7534C259.623 45.7065 258.855 46.6597 258.197 47.5395C257.978 47.833 257.758 48.1998 257.539 48.5667C257.319 48.9335 257.099 49.3003 256.88 49.5937C256.441 50.7674 256.002 51.9415 256.002 53.1152C256.002 55.1693 258.197 57.2235 260.832 57.8104C260.904 57.8265 260.975 57.8425 261.044 57.8585C261.139 57.8802 261.232 57.9018 261.322 57.9229C262.383 58.1699 263.198 58.3594 264.345 58.1039C267.858 57.517 270.931 55.4628 271.371 53.1152C271.371 51.9414 270.931 51.061 270.053 50.4741C268.297 49.5937 266.101 49.5937 264.784 50.7675C263.906 51.6479 263.906 52.5282 264.784 53.4086C266.101 54.289 267.418 54.5824 268.736 53.9955C268.955 53.9955 269.065 53.9221 269.175 53.8488C269.285 53.7754 269.395 53.7021 269.614 53.7021C269.175 53.9955 269.175 54.289 269.175 54.5824C268.297 56.0497 266.979 56.9301 264.345 57.2235C260.832 57.517 258.636 55.7562 259.075 53.7021C259.295 53.2619 259.515 52.8951 259.734 52.5283C259.954 52.1616 260.173 51.7944 260.393 51.3544C260.671 50.9827 260.993 50.5816 261.331 50.1603C262.061 49.2514 262.867 48.2486 263.467 47.2461C263.467 47.2461 263.466 46.9526 263.906 46.9526C264.18 46.8914 264.436 46.8302 264.681 46.7716C265.609 46.5495 266.376 46.3657 267.419 46.3657C270.053 46.3657 272.249 46.9526 274.005 48.1264C275.323 49.0068 276.201 49.8871 276.64 51.061C277.466 52.441 277.127 53.5615 276.718 54.9107L276.64 55.1693C275.323 57.8104 273.127 59.8646 270.492 61.6253H270.053C269.834 61.6253 269.724 61.5519 269.614 61.4786C269.504 61.4052 269.395 61.3318 269.175 61.3318C266.54 60.158 263.466 59.2777 259.954 58.9842C254.245 58.3973 249.854 59.8646 246.78 62.7991C246.613 62.9112 246.466 63.0042 246.341 63.0837C245.996 63.3032 245.814 63.4191 245.794 63.5463C245.772 63.6888 245.954 63.8454 246.341 64.1774C246.466 64.2847 246.613 64.4104 246.78 64.5599C250.293 67.7878 255.563 68.9617 261.271 68.3748C264.345 68.0813 266.979 67.2009 269.614 66.0271C270.053 66.0271 270.492 65.7336 270.492 65.7336H270.931C273.566 67.4944 275.323 69.2551 276.64 71.6027C277.079 73.07 277.518 74.5373 277.079 76.0045C276.201 79.2325 270.053 82.1671 264.345 80.4063C264.177 80.2942 264.009 80.225 263.866 80.1658C263.634 80.0701 263.467 80.0008 263.467 79.8194C262.469 78.9304 261.723 77.873 261.038 76.9023C260.819 76.5914 260.606 76.2892 260.393 76.0045L259.075 73.3635C258.636 71.6027 260.393 69.842 263.467 70.1355C266.101 70.1355 268.297 71.0158 269.175 72.7766V73.3635C268.955 73.3635 268.846 73.2901 268.736 73.2167C268.626 73.1434 268.516 73.07 268.297 73.07C267.986 73.07 267.73 73.0332 267.49 72.9987C267.052 72.9357 266.668 72.8805 266.101 73.07C264.784 73.3634 263.906 73.9504 263.906 74.8307C263.906 76.0045 264.784 76.5915 266.101 77.1784C267.418 77.4718 268.736 77.4718 269.614 76.8849C271.371 76.0045 271.81 75.1242 271.371 73.9504C270.492 71.6027 268.297 70.1355 265.223 69.2551C263.027 68.6682 260.832 68.9617 259.075 69.842C256.441 71.0158 255.563 72.7766 256.002 74.8307C256.441 76.0045 257.319 77.4718 258.197 78.6456C258.636 79.0857 258.966 79.5259 259.295 79.966C259.624 80.4061 259.954 80.8466 260.393 81.2867C261.71 82.7538 263.027 84.5143 264.344 86.2748C265.08 87.2581 265.508 88.4479 265.885 89.498L265.887 89.501C265.959 89.7035 266.03 89.9007 266.101 90.0903C266.54 92.1445 265.223 93.9052 262.149 94.1987C259.514 94.7856 256.88 93.9052 255.123 92.438C255.123 92.438 254.684 92.1445 254.684 91.8511H255.563C257.319 91.8511 259.075 91.2642 259.075 89.7969C259.075 88.6231 258.197 87.7427 256.441 87.4493C255.563 87.4493 255.123 87.4493 254.245 87.7427C253.367 88.3296 252.489 89.21 252.928 90.0903C252.928 90.6772 252.928 90.9707 253.367 91.2642C254.684 92.7314 256.441 93.9052 259.075 94.7856C260.393 95.3725 262.149 95.3725 263.906 95.079C267.418 94.4921 270.053 92.1445 270.492 89.7969C270.931 88.3296 270.492 87.1558 269.614 85.982C269.175 85.2485 268.626 84.515 268.077 83.7815C267.529 83.0478 266.979 82.3138 266.54 81.5802C266.54 81.4334 266.43 81.3601 266.321 81.2867C266.211 81.2134 266.101 81.14 266.101 80.9933C266.54 81.2867 266.54 81.2867 266.979 81.2867C268.736 81.8736 270.492 81.8736 272.249 81.5802C276.64 80.9933 281.031 78.3522 281.47 74.5373ZM252.928 63.6795C256.88 65.7337 263.467 65.4402 267.419 63.6795C263.027 61.6253 256.88 61.6253 252.928 63.6795Z" fill="#313030"/>
<path d="M146.477 128.931C146.732 129.372 146.963 129.773 147.98 130H150.176C150.176 129.707 150.615 129.707 150.615 129.707C151.493 129.413 151.932 129.12 151.932 128.239H151.493C151.332 128.186 151.186 128.142 151.054 128.102C150.469 127.926 150.176 127.838 150.176 127.359V124.718C150.615 120.903 150.615 117.088 150.615 113.273V112.099C150.176 111.219 149.298 110.632 147.98 110.339C146.224 110.045 144.468 110.339 143.15 110.926L142.711 111.219C141.394 110.045 140.076 109.752 138.759 110.339C137.881 110.632 137.442 111.219 137.442 111.806H137.881C138.042 111.86 138.189 111.904 138.32 111.943C138.906 112.119 139.198 112.207 139.198 112.686V112.98C138.759 117.088 138.759 120.903 138.759 125.011V129.12C138.759 129.707 138.759 129.707 139.637 129.707H142.272V126.185C142.711 122.077 142.711 117.675 142.711 113.567C142.711 112.98 142.711 112.686 143.589 112.393C144.028 112.099 144.028 112.099 144.468 112.099C145.785 111.806 146.663 112.393 146.663 113.273V116.208C146.224 120.023 146.224 123.838 146.224 127.652V128.533C146.324 128.667 146.401 128.8 146.477 128.931Z" fill="#313030"/>
<path d="M83.431 68.9616H100.117V83.3408H122.512C125.586 83.3408 128.659 83.0474 131.733 82.4605C133.49 82.167 134.807 81.5801 136.124 80.6998C139.198 78.939 140.515 76.5914 140.076 73.9503C140.076 72.7766 139.637 71.8963 139.198 71.016C137.442 68.6684 134.807 67.2009 130.855 66.3205C130.416 66.3205 129.977 66.3205 129.538 66.0271C129.977 66.0271 129.977 66.0271 129.977 65.7338C134.807 64.8534 137.442 62.5056 137.881 59.2776C138.32 56.3431 136.563 53.702 132.611 51.9413C131.294 51.3544 129.977 51.061 128.66 50.7675C128.34 50.7248 128.029 50.682 127.725 50.6402C125.943 50.3949 124.387 50.1806 122.512 50.1806H100.117V63.6794H83.431V44.6049C83.431 42.5508 85.6265 41.0835 88.7003 40.79H151.054C153.25 41.0835 155.006 42.5508 155.006 44.3115V85.6885C154.567 87.1557 152.371 88.3296 150.176 88.3296H87.8221C85.1874 88.0361 83.8701 86.5688 83.431 84.8081V68.9616Z" fill="#313030"/>
<path fill-rule="evenodd" clip-rule="evenodd" d="M199.795 53.1151C194.965 51.061 189.696 50.1806 184.427 50.1806C180.914 50.1806 177.84 50.474 174.766 51.6479C162.471 54.5824 155.884 62.7991 158.958 71.0158C160.714 76.2979 165.545 79.8194 172.57 82.167C178.279 83.9278 183.987 84.2212 190.135 83.3408C195.404 82.4605 199.795 80.9932 203.308 78.6456C209.017 74.8307 211.212 70.1354 210.334 64.8533C209.456 59.8646 205.943 56.0497 199.795 53.1151ZM184.427 55.1693C194.087 55.1693 201.991 60.4515 201.991 66.9074C201.991 73.07 194.965 78.6456 183.987 78.6456C174.327 78.6456 166.423 73.3634 166.423 66.9074C166.423 60.158 174.766 55.1693 184.427 55.1693Z" fill="#313030"/>
<path d="M173.449 24.3566C172.132 24.3566 170.814 24.3566 169.936 24.0632C169.497 24.0632 169.058 23.7697 169.497 23.4763C169.497 22.8894 169.497 22.3025 169.936 22.009C170.375 20.3953 170.705 18.8549 171.034 17.3145C171.363 15.7739 171.693 14.2324 172.132 12.6185L173.449 5.57557V4.69525C173.449 4.10834 173.01 3.81486 172.132 3.52141C170.814 3.22795 169.936 3.5214 169.058 4.1083C169.058 4.1083 168.619 4.40179 168.619 4.69525C168.18 6.16252 167.741 7.92321 167.741 9.39048C167.5 10.8352 167.129 12.28 166.77 13.6767C166.472 14.8332 166.183 15.9569 165.984 17.0203C165.545 18.781 165.106 20.8352 165.106 22.5959V23.4763C163.789 23.4763 162.471 23.4763 161.593 23.1828C161.154 23.1828 161.154 22.8894 161.154 22.5959C161.154 22.009 161.154 21.7155 161.593 21.1286C162.032 19.2212 162.471 17.2403 162.91 15.2595C163.35 13.2789 163.789 11.2977 164.228 9.39048L165.545 4.1083V3.81488C165.545 2.93462 165.545 2.93448 164.228 2.64103H163.789C163.789 1.76067 164.228 1.17377 165.545 1.17377C166.131 0.97813 166.716 1.04334 167.302 1.10855C167.594 1.14116 167.887 1.17377 168.18 1.17377C168.619 1.17377 169.058 1.46714 169.497 1.76053C169.497 1.90726 169.607 1.9808 169.717 2.05416C169.826 2.12752 169.936 2.20088 169.936 2.34761C171.254 1.7607 173.01 1.46726 174.327 1.76071C176.084 2.05416 177.401 2.34759 178.279 3.52141C178.499 3.52141 178.609 3.44805 178.718 3.37469C178.828 3.30133 178.938 3.22798 179.158 3.22798C180.914 2.64107 183.109 2.3476 184.866 2.93451C186.622 3.52141 187.501 4.40176 187.501 5.57557C187.501 6.45593 187.501 7.33632 187.061 8.21668C186.842 9.53723 186.513 10.8578 186.183 12.1783C185.854 13.4988 185.525 14.8194 185.305 16.1399C185.086 17.3124 184.866 18.4116 184.647 19.5108L184.646 19.5142C184.427 20.6146 184.207 21.7156 183.988 22.8894V23.4763C183.988 23.7697 184.427 24.0632 184.866 24.3566H185.305C185.305 24.9435 184.866 25.8239 183.549 25.8239C182.67 26.1174 181.792 26.1174 180.475 25.8239C179.597 25.5305 179.158 24.9435 179.158 24.3566V22.8894C179.597 20.6885 180.036 18.5609 180.475 16.4334L180.476 16.4262C180.915 14.301 181.354 12.1758 181.792 9.97738C182.012 9.39056 182.121 8.80375 182.231 8.21694C182.341 7.63003 182.451 7.04285 182.67 6.45594C182.67 5.86904 182.231 5.28213 181.353 4.98867C180.475 4.69522 179.597 4.98869 178.718 5.28215L177.84 5.86904L176.523 11.1512C176.283 12.5958 175.911 14.0404 175.552 15.437C175.254 16.5936 174.965 17.7176 174.766 18.781C174.327 20.5416 173.888 22.3026 173.888 24.3566H173.449Z" fill="#313030"/>
<path d="M136.125 23.7697C137.003 23.4763 137.881 22.5959 137.442 21.7155C137.003 21.4221 137.003 21.4221 136.564 21.7155C136.402 21.6617 136.256 21.6177 136.124 21.5782C135.539 21.4023 135.246 21.3144 135.246 20.8352V20.5417C135.027 19.0745 134.807 17.6806 134.588 16.2867C134.368 14.8928 134.149 13.4989 133.929 12.0316L132.612 4.98867C132.612 4.40177 132.612 3.81489 132.172 3.22798C131.733 2.34762 130.416 1.76069 129.099 1.46724C127.342 1.17378 125.586 1.46725 123.829 2.34761L122.951 2.93451L122.512 2.64104C122.073 2.34758 121.634 2.05414 121.195 2.05414C120.317 2.05414 119.438 2.05415 118.56 2.34761C117.682 2.64106 117.243 3.22794 117.682 4.1083H118.121C118.999 4.1083 119.438 4.40177 119.438 4.98867V5.28215C119.438 5.72233 119.548 6.23587 119.658 6.74942C119.768 7.26296 119.877 7.7765 119.877 8.21668C119.877 10.2706 120.316 12.3245 120.756 14.3784C120.975 15.5522 121.195 16.8002 121.414 18.0474C121.634 19.2945 121.853 20.5417 122.073 21.7155C122.073 22.1557 122.183 22.5225 122.293 22.8893C122.402 23.2562 122.512 23.623 122.512 24.0632C122.741 24.3694 122.851 24.5159 123.028 24.5859C123.19 24.6501 123.409 24.6501 123.829 24.6501C124.269 24.6501 124.598 24.5767 124.927 24.5034C125.257 24.43 125.586 24.3566 126.025 24.3566C126.245 24.3566 126.464 24.2833 126.684 24.2099C126.903 24.1365 127.123 24.0632 127.342 24.0632V23.7697C127.123 23.1828 127.013 22.5226 126.903 21.8623C126.793 21.202 126.684 20.5417 126.464 19.9548C126.464 17.9009 126.025 15.8469 125.586 13.793C125.366 12.9126 125.257 12.0316 125.147 11.1512C125.037 10.2708 124.927 9.39047 124.708 8.51011C124.708 8.06993 124.598 7.55639 124.488 7.04284C124.378 6.5293 124.269 6.01575 124.269 5.57557V4.98867C124.708 4.69525 125.147 4.40173 126.025 4.1083C127.342 3.81485 128.66 4.10833 128.66 5.28215C128.879 6.16244 128.989 7.11609 129.099 8.06974C129.209 9.02339 129.318 9.97745 129.538 10.8577C129.742 12.3614 130.042 13.9288 130.349 15.5301C130.7 17.3663 131.06 19.2477 131.294 21.1286C131.294 21.7155 131.294 22.3025 131.733 22.8894C132.173 23.7697 133.051 24.0632 134.368 24.0632C134.882 24.0632 135.246 23.9625 135.548 23.8791C135.761 23.8201 135.943 23.7697 136.125 23.7697Z" fill="#313030"/>
<path d="M108.9 78.3521V68.9616H122.073C123.829 68.9616 125.586 68.9616 126.903 69.5485C127.781 69.8419 128.66 70.1354 129.099 70.4289C132.612 71.8961 132.172 75.4176 129.538 76.8848C128.221 77.4717 126.903 78.0587 125.147 78.0587C124.708 78.0587 124.159 78.132 123.61 78.2054C123.061 78.2788 122.512 78.3521 122.073 78.3521H108.9Z" fill="#313030"/>
<path d="M46.9847 18.1941C46.1065 18.781 45.6674 19.6614 46.5456 20.5418C48.3021 20.2483 48.7412 20.2483 50.0585 20.8352C50.0585 20.8352 50.4976 21.1287 50.4976 21.4221C54.4496 26.7043 59.2798 31.3996 64.9883 35.8014L66.3056 36.6817C66.7447 36.9752 67.6229 36.9752 68.5011 36.6817C68.9403 36.3883 69.8185 36.0948 70.6967 35.8014C71.1358 35.5079 71.5749 35.2145 71.5749 34.6276V33.7472C71.5749 32.8668 71.1358 31.9865 70.6967 31.1061C68.9403 26.9978 66.3056 22.8894 63.6709 18.781C62.7928 17.314 61.9143 15.8463 60.5971 14.3792C60.158 13.7923 59.719 13.7924 58.8407 14.0858C58.4016 14.2325 58.0723 14.3793 57.743 14.526C57.4136 14.6727 57.0843 14.8194 56.6452 14.9662C56.4256 14.9662 56.3158 15.0395 56.206 15.1129C56.0963 15.1862 55.9865 15.2596 55.7669 15.2596C57.5233 16.7269 58.8407 18.1941 59.7189 19.6614C62.7927 24.0632 65.4274 28.7585 67.6229 33.4537V34.0407C67.1838 34.0407 66.7447 33.7472 66.7447 33.7472C64.9882 32.2799 63.2318 30.8126 61.4754 29.0519C57.9625 25.8239 54.8887 22.596 52.2541 19.0745C52.0345 18.9278 51.815 18.7077 51.5954 18.4876C51.3759 18.2676 51.1563 18.0474 50.9367 17.9007C50.0585 17.3138 49.1803 17.3138 48.302 17.6072C47.8629 17.6072 47.4238 17.9007 46.9847 18.1941Z" fill="#313030"/>
<path d="M221.751 16.4335C222.19 15.7732 222.629 15.1129 223.068 14.3793C223.068 14.0858 223.068 14.0858 223.507 13.7924C223.869 13.3095 223.636 13.0252 223.297 12.6126C223.224 12.5239 223.146 12.429 223.068 12.3251C222.629 12.0316 222.19 11.7382 221.312 11.7382C219.995 11.7382 219.556 11.7382 219.116 12.6186C218.238 13.7924 217.36 15.2597 216.921 16.4335C216.482 17.0204 216.482 17.9007 217.36 18.4876C218.018 19.0743 218.567 19.5877 219.116 20.101C219.665 20.6145 220.214 21.1287 220.873 21.7156C222.19 22.8894 222.19 24.0633 221.312 25.2371L218.677 29.6389C217.799 31.3996 215.604 31.9865 212.53 31.9865C210.773 31.693 209.017 31.3996 207.7 30.5192C206.821 29.9323 205.943 29.3454 205.943 28.7585C205.504 28.1716 205.504 27.5847 205.943 26.9978C206.382 26.2642 206.821 25.6039 207.26 24.9437C207.7 24.2834 208.139 23.6231 208.578 22.8894C209.017 22.3025 209.456 22.3026 209.895 22.3026C211.212 22.3026 212.091 22.596 212.969 22.8894C212.53 23.6231 212.091 24.2834 211.652 24.9437C211.212 25.6039 210.773 26.2642 210.334 26.9978C209.895 27.5847 209.895 28.1716 210.334 28.7585C211.213 29.3454 212.091 29.6389 213.408 29.3454C213.847 29.3454 214.725 29.052 214.725 28.4651C215.604 27.2912 216.482 25.824 216.921 24.6501C217.36 23.7698 217.36 23.1829 216.482 22.596C215.986 22.154 215.552 21.712 215.134 21.2857C214.441 20.5798 213.79 19.9169 212.969 19.368C212.091 18.4877 211.652 17.3138 212.53 16.4335C213.093 15.3046 213.836 14.1758 214.529 13.1243C214.917 12.5357 215.288 11.9713 215.604 11.4447C216.482 9.97746 218.677 9.39056 220.873 9.39056C223.068 9.39056 224.825 9.97747 226.142 10.8578C226.581 11.1513 227.02 11.4448 227.46 12.0317C228.338 12.912 228.338 13.4989 227.899 14.3793C227.46 15.1129 227.02 15.7732 226.581 16.4335C226.142 17.0935 225.703 17.7543 225.264 18.4876C224.825 18.7811 224.386 19.0745 223.947 19.0745C222.629 19.0745 221.312 19.0745 220.434 18.4876C220.873 17.7543 221.312 17.0935 221.751 16.4335Z" fill="#313030"/>
<path d="M93.0915 18.7811L91.7742 17.0204C91.3351 17.1671 90.7862 17.3139 90.2373 17.4606C89.6884 17.6073 89.1395 17.754 88.7004 17.9008C87.383 18.1942 86.5049 17.9008 86.0658 17.0204V16.7269L83.4311 11.4447C82.992 11.1513 82.992 11.1513 82.992 10.8579C82.992 10.271 82.992 9.68403 83.8702 9.39058C83.8702 9.39058 84.3093 9.09715 84.7484 9.09715C86.0657 8.8037 86.944 9.09712 87.3831 9.97748L88.7004 12.6186C89.1395 12.6186 89.1395 12.912 89.1395 13.2055C90.4568 13.2055 91.335 12.912 92.2133 12.3251C92.6524 12.0317 92.6524 11.7382 92.6524 11.4447L91.3351 8.80368C90.896 7.62987 89.5786 7.04297 87.8222 6.74951C85.1875 6.45606 82.992 7.04297 80.7964 8.21678C79.4791 8.80369 79.04 9.39059 79.04 10.271C79.04 10.8579 79.04 11.4448 79.4791 12.0317L82.1137 17.3138C82.5528 18.1942 82.992 19.0746 84.7484 19.6615C83.8702 20.5418 83.8702 21.4222 84.3093 22.3026C84.7483 23.036 85.1873 23.8428 85.6263 24.6496C86.0654 25.4566 86.5049 26.2642 86.944 26.9978C86.944 27.1445 87.0537 27.2179 87.1635 27.2913C87.2733 27.3646 87.3831 27.438 87.3831 27.5847C88.2613 28.7585 90.0178 29.3454 91.7742 29.3454C93.9697 29.3454 95.7261 29.052 97.4826 28.1716C98.3608 27.8782 98.8 27.5847 99.2391 26.9978C99.2958 26.8841 99.3525 26.7753 99.4073 26.6702C99.7769 25.961 100.061 25.4168 99.6781 24.6502C99.6781 24.0633 99.239 23.1829 98.7999 22.596C98.3608 22.3025 97.9217 22.0091 97.4826 22.0091C96.1652 22.0091 94.848 22.3025 93.9697 22.596C94.4088 22.8894 94.4088 22.8894 94.4088 23.1828C94.4088 24.0632 94.8479 24.6502 95.287 25.2371C95.7261 25.824 95.287 26.4109 94.4088 26.7044C94.1893 26.7044 93.9697 26.7777 93.7501 26.8511C93.5306 26.9245 93.311 26.9978 93.0915 26.9978C91.7741 27.2913 90.896 26.9978 90.4569 26.1174C90.0177 25.3838 89.6884 24.6502 89.3591 23.9165C89.0297 23.1829 88.7004 22.4493 88.2613 21.7156C87.8222 20.8353 88.2613 20.2484 89.5786 19.9549H90.0177C90.4568 19.8082 90.896 19.7348 91.3351 19.6615C91.7742 19.5881 92.2133 19.5148 92.6524 19.368C93.0915 19.368 93.0915 19.0745 93.0915 18.7811Z" fill="#313030"/>
<path d="M198.478 22.3025C199.796 22.3025 201.113 22.5959 201.991 23.1828C202.43 23.4762 202.43 23.7696 202.43 24.063C202.211 24.5032 202.101 24.8702 201.991 25.2371C201.881 25.6039 201.772 25.9707 201.552 26.4109C201.113 27.5847 199.357 28.1716 197.6 28.465C195.405 28.7585 193.209 28.1716 191.453 27.2912C189.696 26.4109 188.818 24.9436 189.257 23.4763C189.696 22.5959 190.025 21.7889 190.355 20.9819C190.684 20.1749 191.013 19.368 191.453 18.4876C191.892 17.6073 192.331 17.3138 193.648 16.4334C193.648 16.4334 193.648 16.14 193.209 16.14C192.77 15.5531 192.77 14.6727 193.209 14.0858L193.211 14.0807C194.089 12.0283 194.966 9.97601 195.844 8.21673C196.722 6.45601 198.478 5.57562 201.113 5.57562C202.869 5.57562 204.626 5.8691 206.382 6.74946C207.7 7.33637 208.578 7.92329 208.578 9.0971V10.2709L207.261 12.912C207.18 13.0195 207.114 13.1173 207.055 13.2051C206.792 13.5964 206.66 13.7923 205.943 13.7923C205.065 13.7923 203.748 13.7923 202.869 13.2054V12.912L202.87 12.9104C203.309 12.0306 203.748 11.1506 204.187 9.97743C204.626 9.09707 204.187 8.80361 202.869 8.51016H201.991C200.674 8.2167 199.796 8.80362 199.357 9.39053C199.137 10.1242 198.808 10.7844 198.478 11.4447C198.149 12.105 197.82 12.7653 197.6 13.4989C197.381 13.7924 197.271 14.0858 197.161 14.3793C197.051 14.6727 196.941 14.9662 196.722 15.2596C196.283 16.14 196.722 16.7269 198.039 17.0203C198.259 17.0203 198.588 17.0937 198.917 17.1671C199.247 17.2404 199.576 17.3138 199.796 17.3138C200.235 17.3138 201.113 17.3138 201.552 17.6072C201.552 18.1941 201.552 19.0745 201.113 19.6614C201.113 19.9549 200.674 19.9549 200.235 19.9549C199.796 19.8082 199.357 19.7348 198.917 19.6614C198.478 19.5881 198.039 19.5147 197.6 19.368H196.722C195.405 19.368 194.965 19.6614 194.526 20.2483L193.209 22.8894C192.99 23.1829 192.88 23.4763 192.77 23.7698C192.66 24.0632 192.55 24.3567 192.331 24.6501C191.892 25.5305 192.331 26.1174 193.648 26.4109C193.868 26.4109 194.087 26.4842 194.307 26.5576C194.526 26.631 194.746 26.7043 194.965 26.7043C195.844 26.7043 196.722 26.4109 196.722 25.824C196.941 25.5305 197.051 25.237 197.161 24.9436C197.271 24.6501 197.381 24.3567 197.6 24.0632C197.671 23.8267 197.73 23.6206 197.782 23.4414C198.05 22.5101 198.11 22.3025 198.478 22.3025Z" fill="#313030"/>
<path d="M230.094 22.596C229.216 23.4763 228.777 24.3567 229.216 25.5305C227.899 25.8239 227.021 26.1174 227.46 26.9978C226.142 28.465 224.825 29.9323 223.508 31.693C222.629 32.8668 222.63 34.0407 223.947 35.2145C223.947 35.5079 224.386 35.8014 224.825 36.0948C225.703 36.6817 227.02 36.9751 228.338 37.2686C229.216 37.562 230.094 37.5621 230.972 37.5621C232.29 37.5621 233.168 37.2686 234.046 36.3883C234.266 36.0948 234.595 35.728 234.924 35.3612C235.254 34.9944 235.583 34.6276 235.803 34.3341C236.242 34.0406 236.242 33.7472 235.803 33.4537C234.925 32.5734 234.046 32.2799 232.729 31.9865C232.729 32.1332 232.619 32.2066 232.509 32.2799C232.4 32.3533 232.29 32.4267 232.29 32.5734L230.972 34.3341C230.972 34.6276 230.533 34.921 230.094 34.921C229.216 35.2145 227.899 34.921 227.021 34.3341C226.581 33.7472 226.581 33.1603 227.021 32.5734C227.46 31.3996 228.338 30.5192 229.216 29.6389C229.436 29.4921 229.545 29.272 229.655 29.0519C229.765 28.8318 229.875 28.6118 230.094 28.465C230.533 27.8781 231.851 27.5847 232.729 27.8781C232.949 27.8781 233.058 27.9515 233.168 28.0249C233.278 28.0982 233.388 28.1716 233.607 28.1716C234.046 28.3183 234.376 28.465 234.705 28.6118C235.034 28.7585 235.364 28.9052 235.803 29.0519C236.242 29.3454 236.242 29.3454 236.681 29.0519C237.559 28.465 237.998 27.5847 237.998 26.9978C237.779 26.851 237.449 26.7777 237.12 26.7043C236.791 26.6309 236.461 26.5576 236.242 26.4109C235.906 26.2988 235.635 26.2295 235.403 26.1703C235.028 26.0746 234.757 26.0053 234.485 25.824C233.168 25.5305 233.168 24.9436 233.607 24.0632C234.266 23.183 235.034 22.3028 235.802 21.4225C236.571 20.5422 237.34 19.6614 237.998 18.781C238.877 18.1941 239.755 17.9007 240.633 18.1941C241.072 18.1941 241.511 18.1942 241.95 18.4876C242.028 18.5916 242.106 18.6863 242.179 18.7752C242.517 19.1877 242.751 19.4719 242.389 19.9549C242.389 20.1016 242.28 20.175 242.17 20.2483C242.06 20.3217 241.95 20.3951 241.95 20.5418C241.511 20.982 241.182 21.4221 240.853 21.8623C240.523 22.3024 240.194 22.7427 239.755 23.1829C240.633 23.7698 241.511 24.0632 242.829 24.0632C243.268 24.0632 243.707 23.7698 244.146 23.4764C244.585 23.0362 244.914 22.5959 245.244 22.1558C245.573 21.7156 245.902 21.2754 246.341 20.8353C246.78 19.9549 246.78 19.0745 246.341 18.1941C246.122 18.0474 245.902 17.8273 245.683 17.6072C245.463 17.3872 245.244 17.1671 245.024 17.0203C243.707 16.4334 242.389 15.8465 240.633 15.5531C239.316 15.2596 238.437 15.2596 237.559 15.5531C236.242 15.8465 235.364 16.4334 234.485 17.3138C232.729 19.0744 231.412 20.8353 230.094 22.596Z" fill="#313030"/>
<path d="M108.9 63.9729V55.1693H121.634C122.951 55.1693 124.708 55.1693 126.025 55.4627C127.781 55.7561 129.538 56.6365 129.977 58.1038C130.855 59.8645 130.416 62.2122 126.464 63.386C125.147 63.6794 123.829 63.9729 122.512 63.9729H108.9Z" fill="#313030"/>
<path fill-rule="evenodd" clip-rule="evenodd" d="M99.6782 105.056C98.8 105.056 97.9218 105.35 97.4827 106.23C98.5986 106.479 98.7692 106.727 99.0623 107.154L99.0635 107.156C99.1161 107.233 99.1725 107.315 99.2391 107.404C98.8002 107.697 98.8 107.697 98.8 107.991C97.7026 110.485 96.4954 112.978 95.2882 115.472L95.2867 115.475C94.0795 117.968 92.8717 120.463 91.7743 122.957C91.3352 122.957 91.3351 123.25 91.3351 123.544C91.7741 123.837 91.7743 123.837 92.2133 123.837C93.0916 123.984 93.86 124.131 94.6285 124.278C95.3969 124.424 96.1654 124.571 97.0436 124.718C97.2631 124.718 97.5925 124.791 97.9218 124.864C98.2511 124.938 98.5804 125.011 98.8 125.011C101.435 125.305 103.191 124.424 104.069 122.664C104.289 122.077 104.508 121.563 104.728 121.05C104.947 120.537 105.167 120.022 105.387 119.436C105.826 118.555 105.826 117.675 104.948 116.794C106.265 116.501 106.704 115.621 107.143 114.74C107.363 114.153 107.582 113.64 107.802 113.126C108.021 112.613 108.241 112.099 108.46 111.512C108.653 111.126 108.761 110.797 108.859 110.499C108.984 110.117 109.092 109.788 109.339 109.458C109.778 108.578 109.778 107.697 108.46 107.11C107.143 106.23 105.826 105.937 104.069 106.23C103.85 106.23 103.63 106.304 103.411 106.377C103.191 106.45 102.972 106.524 102.752 106.524C102.313 105.35 100.996 105.056 99.6782 105.056ZM100.117 114.74C99.6781 114.667 99.239 114.594 98.8 114.447C99.2391 114.447 99.2391 114.153 98.8 113.86L101.435 108.578C101.435 108.284 101.874 107.991 102.313 107.991C102.624 107.991 102.88 107.954 103.12 107.92C103.557 107.857 103.941 107.801 104.508 107.991C105.387 108.284 105.387 108.578 105.387 109.165V109.458C104.948 110.192 104.618 110.999 104.289 111.806C103.96 112.613 103.63 113.42 103.191 114.153C103.191 114.3 103.081 114.373 102.972 114.447C102.862 114.52 102.752 114.594 102.752 114.74C102.313 115.034 101.874 115.034 101.435 115.034C100.996 114.887 100.556 114.814 100.117 114.74ZM96.4053 122.636C96.0572 122.571 95.6722 122.499 95.2871 122.37C96.1653 120.316 97.0436 118.555 97.9218 116.794C98.8 116.794 99.6783 117.088 100.556 117.381C101.435 117.381 101.874 117.968 101.435 118.555C101.182 119.4 100.784 120.147 100.408 120.853C100.13 121.374 99.8646 121.872 99.6782 122.37C99.6782 122.664 99.2392 122.957 98.3609 122.957H97.4827C97.2361 122.792 96.851 122.72 96.4053 122.636Z" fill="#313030"/>
<path d="M80.7963 118.555C80.767 118.634 80.7339 118.709 80.6969 118.782C80.3602 118.555 80.3933 118.555 80.7963 118.555Z" fill="#313030"/>
<path fill-rule="evenodd" clip-rule="evenodd" d="M80.683 118.809C80.1573 119.812 78.9083 120.294 77.2834 120.023C77.2834 120.023 76.8443 120.023 76.8443 119.729C75.5269 119.142 75.0878 118.555 75.5269 117.675C75.7465 116.941 76.0758 116.208 76.4052 115.474C76.7345 114.74 77.0639 114.007 77.2834 113.273C77.2834 112.98 77.2834 112.98 77.7225 112.686C77.4511 112.505 77.1797 112.436 76.8047 112.34C76.5729 112.281 76.3015 112.211 75.9661 112.099C75.3075 113.126 74.649 114.08 73.9904 115.033C73.3318 115.987 72.6728 116.941 72.0141 117.968C71.7215 117.871 71.4289 117.806 71.1362 117.74C70.5507 117.61 69.9649 117.479 69.3794 117.088C68.9403 117.088 68.9403 116.795 68.9403 116.501C68.9403 116.354 69.0501 116.281 69.1598 116.208C69.2696 116.134 69.3794 116.061 69.3794 115.914C70.7989 114.017 72.1466 112.12 73.4806 110.242C75.448 107.473 77.3855 104.745 79.479 102.122V101.828C79.9181 100.948 79.918 100.655 79.0398 100.068C79.4789 99.4809 80.3572 98.894 81.2354 99.1874C82.9918 99.4809 83.8701 99.7743 83.8701 100.948H85.1874C86.5047 100.948 87.822 101.242 89.1394 101.828C90.4567 102.415 90.8958 103.296 90.4567 104.47C90.4567 104.616 90.3469 104.763 90.2372 104.91C90.1274 105.056 90.0176 105.203 90.0176 105.35C89.3589 106.377 88.5905 107.404 87.8221 108.431C87.0536 109.458 86.2852 110.485 85.6265 111.512C85.1874 112.099 84.7483 112.686 83.8701 112.98C83.6235 113.145 83.2384 113.217 82.7927 113.3C82.4446 113.366 82.0596 113.438 81.6745 113.567C81.6745 113.86 81.6745 113.86 81.2355 114.153C81.016 114.594 80.7963 115.107 80.5767 115.621C80.3572 116.134 80.1376 116.648 79.918 117.088V117.675C79.918 118.236 79.9181 118.528 80.683 118.809ZM77.2834 110.339C77.503 110.485 77.8323 110.559 78.1616 110.632C78.4909 110.705 78.8203 110.779 79.0398 110.926C80.3572 111.219 81.2354 111.219 82.1136 110.339C82.7722 109.458 83.4309 108.505 84.0896 107.551C84.7482 106.597 85.4069 105.643 86.0656 104.763C86.0656 104.763 86.0656 104.47 86.5047 104.47C86.9438 103.883 86.5047 103.589 86.0656 103.296C85.1875 103.002 84.7484 103.002 83.8703 103.002C83.4312 103.002 82.9918 103.296 82.5527 103.589C81.6745 104.616 80.906 105.717 80.1376 106.817L80.1366 106.819C79.3685 107.919 78.6003 109.019 77.7225 110.045L77.2834 110.339Z" fill="#313030"/>
<path d="M80.683 118.809C80.7191 118.822 80.7568 118.836 80.7963 118.849L80.6969 118.782L80.683 118.809Z" fill="#313030"/>
<path fill-rule="evenodd" clip-rule="evenodd" d="M124.707 129.12C126.025 129.12 126.903 128.533 126.903 127.652C125.586 127.359 125.586 127.066 125.586 125.892V125.011C126.464 122.37 127.342 119.436 127.781 116.795C128.22 115.327 128.659 113.567 129.099 111.806C129.099 110.339 128.22 109.458 126.464 108.871C125.147 108.578 123.829 108.285 122.512 108.285C119.877 108.285 118.121 109.165 117.682 110.926C117.242 112.98 116.803 114.74 116.364 116.501C115.925 117.822 115.596 119.216 115.267 120.61C114.937 122.003 114.608 123.397 114.169 124.718C114.169 125.011 114.059 125.378 113.949 125.745C113.839 126.112 113.73 126.479 113.73 126.772C113.73 127.359 113.73 127.652 114.608 127.652H117.242C117.462 126.479 117.791 125.231 118.121 123.984C118.45 122.737 118.779 121.49 118.999 120.316C119.658 120.463 120.316 120.536 120.975 120.61C121.634 120.683 122.292 120.756 122.951 120.903C122.731 121.637 122.622 122.297 122.512 122.957C122.402 123.617 122.292 124.278 122.073 125.011C122.073 125.452 121.963 125.818 121.853 126.185C121.743 126.552 121.634 126.919 121.634 127.359C121.634 128.533 122.512 129.12 123.829 129.12H124.707ZM123.829 118.555V119.142C123.093 119.019 122.435 118.948 121.853 118.885C121.046 118.797 120.388 118.726 119.877 118.555C119.877 118.115 119.987 117.675 120.097 117.235C120.207 116.795 120.316 116.355 120.316 115.914C120.316 114.447 120.755 112.98 121.194 111.513C121.194 110.632 121.634 110.339 122.512 110.339C123.829 110.339 124.707 110.339 125.147 110.926C125.586 111.219 125.586 111.512 125.586 111.806C124.707 114.153 124.268 116.208 123.829 118.555Z" fill="#313030"/>
<path d="M59.7188 112.099C58.8406 112.686 58.4015 112.98 57.0841 112.98C55.7668 112.686 54.8886 112.099 54.8886 111.219C52.693 111.512 50.9366 110.632 49.6193 109.752C48.741 109.165 48.741 108.285 49.1801 107.698C49.3997 107.551 49.5095 107.331 49.6193 107.111C49.7291 106.891 49.8388 106.671 50.0584 106.524C54.0104 102.709 57.9623 98.894 61.4752 95.0791C61.4752 94.9323 61.585 94.859 61.6948 94.7856C61.8046 94.7123 61.9144 94.6389 61.9144 94.4922C62.3535 93.9053 62.3534 93.6118 61.4752 93.3184L61.0362 93.0249C61.4753 92.438 62.3534 92.1445 63.6708 92.1445C64.1099 92.1445 64.9881 92.438 65.4273 92.7315C66.3055 93.0249 66.3054 93.6118 65.8663 94.1988C65.5949 94.3801 65.4913 94.5615 65.348 94.8121C65.2595 94.967 65.1558 95.1484 64.9881 95.3725C63.0122 97.28 61.0362 99.2607 59.0602 101.242C57.0845 103.222 55.1079 105.204 53.1322 107.111C53.1322 107.257 53.0224 107.331 52.9126 107.404C52.8028 107.478 52.693 107.551 52.693 107.698C52.2539 108.285 52.2539 108.578 53.1322 108.871C54.0104 109.458 54.8886 109.458 55.7668 109.165C56.2059 109.165 56.2059 108.871 56.2059 108.871C60.1579 104.763 64.1099 100.948 68.501 96.8398C68.9401 96.253 69.3793 95.6659 70.2574 95.0791C71.1357 95.3725 72.0139 95.666 72.8921 96.2529C73.1116 96.3996 73.2215 96.473 73.2215 96.5464C73.2215 96.6197 73.1117 96.6931 72.8921 96.8398C72.8921 96.8398 72.453 97.1333 72.453 97.4267L72.4516 97.4281L72.4504 97.4293C68.0601 101.83 63.6699 106.231 59.2797 110.339C59.2797 110.485 59.1699 110.559 59.0601 110.632C58.9504 110.706 58.8406 110.779 58.8406 110.926C58.4015 111.219 58.8406 111.512 59.7188 112.099Z" fill="#313030"/>
<path fill-rule="evenodd" clip-rule="evenodd" d="M238.657 110.339C238.767 110.412 238.876 110.485 238.876 110.632C240.633 109.752 241.95 109.165 244.146 108.578L245.463 107.697C247.219 106.23 247.219 105.056 245.902 103.589C242.389 99.7743 238.438 96.253 234.486 92.7316L233.168 91.8509C232.29 91.264 230.972 91.264 229.655 91.5575C227.899 91.8509 226.581 92.4378 226.142 93.6116C225.703 93.9051 225.703 93.9051 225.703 94.1986C224.825 93.9051 224.386 93.9051 223.508 94.1986C223.068 94.1986 222.629 94.492 222.19 94.7855C221.312 95.3724 221.312 95.9593 222.19 96.5462H222.629C223.507 96.2527 223.947 96.2527 224.386 96.8396C224.386 96.9864 224.495 97.0597 224.605 97.1331C224.715 97.2065 224.825 97.2798 224.825 97.4265C227.019 99.4796 229.323 101.606 231.627 103.732L231.635 103.739C233.939 105.866 236.243 107.992 238.437 110.045C238.437 110.192 238.547 110.265 238.657 110.339ZM240.633 107.257C240.303 107.404 239.974 107.551 239.755 107.697C239.755 107.551 239.755 107.477 239.7 107.441C239.645 107.404 239.535 107.404 239.316 107.404C237.34 105.497 235.364 103.663 233.388 101.828C231.412 99.9943 229.436 98.1602 227.459 96.2528C227.459 96.0286 227.395 95.8472 227.341 95.6923C227.252 95.4416 227.188 95.2603 227.459 95.0789C227.459 94.492 227.899 94.1986 228.777 93.9051C229.655 93.9051 230.094 93.9051 230.533 94.1986L230.972 94.492C231.714 95.1734 232.475 95.8679 233.247 96.5727L233.249 96.5744C236.135 99.2079 239.179 101.985 241.95 104.763C242.828 105.643 242.828 106.23 241.511 106.817C241.291 106.964 240.962 107.111 240.633 107.257Z" fill="#313030"/>
<path fill-rule="evenodd" clip-rule="evenodd" d="M219.555 117.968C218.238 117.968 216.921 117.675 216.482 116.795C216.262 116.648 216.152 116.501 216.042 116.354C215.933 116.208 215.823 116.061 215.603 115.914C214.066 114.007 212.53 112.026 210.993 110.045C209.456 108.064 207.919 106.083 206.382 104.176C206.382 104.176 206.382 103.883 205.943 103.883C205.065 102.709 205.065 101.241 206.821 100.361C208.138 99.4807 209.895 98.8938 211.651 98.6004C213.408 98.6004 214.286 98.8938 215.164 99.7742C215.603 100.068 215.603 100.361 215.603 100.361C217.14 102.269 218.677 104.249 220.214 106.23C221.751 108.211 223.288 110.192 224.825 112.099C226.142 113.86 225.264 115.327 223.507 116.208C223.068 117.381 220.873 117.968 219.555 117.968ZM220.433 115.621C222.19 115.621 223.068 114.447 222.19 113.566C220.433 111.512 218.677 109.165 217.36 107.111L213.408 101.828C212.969 101.241 212.09 100.948 211.212 101.241C210.773 101.241 210.334 101.535 209.895 101.828C209.456 102.122 209.456 102.709 209.456 103.002C209.456 103.002 209.456 103.296 209.895 103.296C212.969 107.11 216.043 110.926 219.116 115.034C219.116 115.18 219.226 115.254 219.336 115.327C219.446 115.401 219.555 115.474 219.555 115.621C219.116 115.621 219.555 115.914 220.433 115.621Z" fill="#313030"/>
<path fill-rule="evenodd" clip-rule="evenodd" d="M194.965 122.077C195.404 123.251 196.722 123.838 199.356 123.838C200.674 123.838 202.43 123.544 204.187 122.957C205.504 122.37 205.943 121.49 205.943 120.316C205.943 120.169 205.833 120.023 205.724 119.876C205.614 119.729 205.504 119.582 205.504 119.436C204.406 117.382 203.308 115.254 202.211 113.126C201.113 110.999 200.015 108.871 198.917 106.817C198.917 106.67 198.808 106.524 198.698 106.377C198.588 106.23 198.478 106.084 198.478 105.937C197.6 105.056 196.722 104.47 195.404 104.47C192.77 104.176 190.574 104.763 188.818 105.937C187.94 106.524 187.5 107.111 187.5 107.698C187.5 108.284 187.5 108.578 187.94 109.165C189.696 112.099 191.452 115.327 193.209 118.555C193.648 119.729 194.087 120.903 194.965 122.077ZM191.452 106.817C192.331 106.524 192.77 106.524 193.209 106.524C194.087 106.524 194.526 106.524 194.526 107.111C194.965 107.991 195.514 108.945 196.063 109.898C196.612 110.852 197.161 111.806 197.6 112.686C198.259 113.86 198.807 114.96 199.356 116.06C199.905 117.161 200.454 118.262 201.113 119.436V119.729C201.991 120.903 201.113 121.783 199.356 121.783C198.478 121.783 198.039 121.49 197.6 120.903C197.38 120.316 197.051 119.803 196.722 119.289C196.392 118.775 196.063 118.262 195.843 117.675C194.088 114.742 192.333 111.517 190.578 108.291L190.574 108.284V107.991C190.574 107.698 190.574 107.111 191.452 106.817Z" fill="#313030"/>
<path d="M106.852 8.89917C108.715 14.4166 110.627 20.0782 112.852 25.5305C112.632 25.5305 112.413 25.6039 112.193 25.6772C111.974 25.7506 111.754 25.824 111.534 25.824C111.353 25.824 111.171 25.8743 110.958 25.9333C110.656 26.0167 110.293 26.1174 109.778 26.1174C108.9 26.1174 108.461 26.1174 108.461 25.5305C108.241 24.6501 107.912 23.6964 107.582 22.7427C107.253 21.789 106.924 20.8352 106.704 19.9549C106.114 17.9811 105.435 16.0072 104.746 14.007C103.9 11.5467 103.04 9.0455 102.313 6.45599V6.16257C101.874 6.26039 101.435 6.3256 100.996 6.39081C100.118 6.52122 99.2394 6.65163 98.3612 7.04289L97.0438 5.2822C97.0438 4.98874 97.0438 4.6953 97.922 4.6953C98.5807 4.54857 99.1296 4.4752 99.6785 4.40183C100.227 4.32846 100.776 4.25508 101.435 4.10836C102.533 3.96163 103.521 3.81491 104.509 3.66819C105.497 3.52148 106.485 3.37476 107.583 3.22803C108.461 3.22803 109.338 2.93469 110.216 2.64131C110.655 3.22816 111.095 3.81497 111.095 4.40183C111.095 4.69528 111.095 4.98873 110.217 4.98873C109.724 5.15352 109.231 5.22576 108.66 5.30941C108.214 5.37471 107.721 5.44696 107.143 5.57562C106.704 5.57562 106.265 5.57564 105.826 5.8691C106.167 6.87255 106.509 7.88374 106.852 8.89917Z" fill="#313030"/>
<path d="M170.815 108.578C169.497 108.871 168.619 109.458 169.058 110.632C169.453 110.632 169.759 110.691 170.096 110.757C170.508 110.837 170.967 110.925 171.693 110.925V111.219C171.912 112.246 172.242 113.273 172.571 114.3C172.9 115.327 173.23 116.354 173.449 117.381C173.888 118.849 174.327 120.242 174.766 121.636C175.206 123.03 175.645 124.424 176.084 125.892C176.084 126.479 176.084 126.772 176.523 127.065C176.962 127.359 177.401 127.652 178.279 127.652C178.718 127.652 179.597 127.652 180.036 127.359C180.914 127.065 181.353 126.478 180.914 125.598H180.475C180.055 125.598 179.836 125.598 179.673 125.534C179.496 125.464 179.387 125.318 179.158 125.011V124.718C179.158 123.838 178.719 122.664 178.28 121.49C178.06 121.05 177.95 120.683 177.84 120.316C177.731 119.949 177.621 119.582 177.401 119.142H177.84C178.499 118.995 179.048 118.922 179.597 118.849C180.146 118.775 180.694 118.702 181.353 118.555C181.792 118.555 181.792 118.262 181.792 117.968C181.792 117.675 181.353 117.088 180.914 116.501C179.976 116.919 179.038 117.039 177.941 117.18C177.497 117.237 177.028 117.297 176.523 117.381C176.084 116.208 175.754 115.034 175.425 113.86C175.096 112.686 174.766 111.512 174.327 110.339C174.766 110.045 175.206 110.045 175.645 110.045C176.523 110.045 177.84 110.045 178.718 109.752C179.596 109.458 179.597 109.458 179.597 109.165C179.597 108.578 179.158 107.991 178.719 107.404C178.06 107.551 177.511 107.624 176.962 107.697C176.413 107.771 175.864 107.844 175.206 107.991C174.547 108.138 173.779 108.211 173.011 108.284C172.242 108.358 171.473 108.431 170.815 108.578Z" fill="#313030"/>
<path d="M83.8701 31.693C83.431 31.8398 82.8821 32.0598 82.3332 32.2799C81.7843 32.5 81.2355 32.7201 80.7964 32.8668C80.3573 32.8668 79.9181 32.8668 79.9181 32.5734C79.9181 32.5734 79.9181 32.2799 79.479 32.2799C75.9661 26.7043 72.4532 21.1287 68.5013 15.5531C68.2177 14.9846 67.751 14.4161 67.2195 13.7686C66.9279 13.4134 66.6168 13.0344 66.3057 12.6185C66.3057 12.4718 66.1959 12.3984 66.0861 12.3251C65.9764 12.2517 65.8666 12.1784 65.8666 12.0316C66.3057 11.8849 66.8546 11.6648 67.4034 11.4447C67.9523 11.2246 68.5012 11.0045 68.9403 10.8578C69.3794 10.8578 69.8186 10.8578 69.8186 11.1513C69.8186 11.298 69.9284 11.3714 70.0381 11.4447C70.1479 11.5181 70.2577 11.5914 70.2577 11.7382C73.7706 17.3138 77.2834 22.8894 81.2354 28.465C81.455 28.9052 81.7843 29.3454 82.1137 29.7856C82.443 30.2258 82.7724 30.666 82.9919 31.1061C83.8701 31.1061 83.8701 31.3996 83.8701 31.693Z" fill="#313030"/>
<path d="M175.205 41.377H193.209V45.1919H175.205V41.377Z" fill="#313030"/>
</svg>
