<svg width="282" height="130" viewBox="0 0 282 130" fill="none" xmlns="http://www.w3.org/2000/svg">
<path d="M7.2559 45.694L0 23.7608L4.83727 21.9331C6.04658 21.6284 7.55823 21.6284 8.76754 21.9331C9.97686 22.2377 10.8838 22.8469 11.4885 24.0655C12.0932 24.6747 12.3955 25.284 12.6978 26.1979C13.3025 27.721 13.3025 28.9395 12.6978 30.158C12.3955 30.4626 12.0932 31.0719 11.7908 31.3765C12.6978 31.3765 13.3025 31.6811 14.2095 32.2904C14.8141 32.8997 15.1165 33.5089 15.7211 34.1182C16.0234 34.4228 16.0234 35.0321 16.3258 35.6413C16.9304 37.1644 16.9304 38.383 16.6281 39.2968C16.6281 40.2107 16.0234 41.1246 15.4188 41.7339C15.1165 42.6477 14.2095 43.257 13.3025 43.5616L7.2559 45.694ZM6.65124 31.3765L8.16289 30.7673C9.06987 30.4626 9.67453 29.5488 9.67453 28.6349C9.67453 28.3302 9.67453 27.721 9.3722 27.1117C8.76754 26.5025 8.46521 25.8932 7.86056 25.5886C7.2559 25.284 6.65124 25.284 6.04658 25.5886L4.53494 25.8932L6.65124 31.3765ZM9.67453 41.1246L11.1862 40.5154C12.3955 40.2107 13.0002 39.2968 13.0002 38.0783C13.0002 37.7737 13.0002 37.1644 12.6978 36.5552C12.3955 35.3367 11.7908 34.4228 11.1862 34.1182C10.5815 33.8135 9.97686 33.8135 9.06987 34.1182L7.55823 34.7274L9.67453 41.1246Z" fill="#313030"/>
<path d="M35.6745 37.1645C34.1628 37.4692 32.9535 37.4692 31.4418 36.5553C30.2325 35.946 29.3255 34.7275 29.0232 33.2044L24.4883 16.1452L27.8139 15.2313L32.3488 32.2905C32.3488 32.8997 32.6512 33.2044 33.2558 33.509C33.8605 33.8136 34.1628 33.8136 34.7675 33.8136C35.3721 33.8136 35.6745 33.509 35.9768 32.8997C36.2791 32.2905 36.2791 31.9859 36.2791 31.3766L31.7442 14.3174L35.0698 13.4036L39.6047 30.7673C39.9071 32.2905 39.9071 33.509 39.0001 35.0321C38.0931 35.946 36.8838 36.8599 35.6745 37.1645Z" fill="#313030"/>
<path d="M53.8146 9.13879C55.6285 8.83417 57.1402 9.13879 58.3495 9.74805C59.2565 10.3573 59.8611 11.5758 60.1635 13.4036L60.7681 16.7545C61.0705 18.2776 60.7681 19.8008 59.8611 21.3239L64.3961 30.7674L60.7681 31.3766L57.1402 23.1517H56.8378L55.0239 23.4563L56.8378 31.9859L53.5122 32.5951L48.9773 10.0527L53.8146 9.13879ZM57.1402 14.0128C56.8378 12.7943 56.2332 12.1851 54.7215 12.4897L52.6052 12.7943L54.1169 20.1054L56.2332 19.8008C56.8379 19.8008 57.1402 19.4961 57.4425 18.8869C57.7448 18.2776 57.7448 17.973 57.7448 17.3637L57.1402 14.0128Z" fill="#313030"/>
<path d="M81.629 28.0262C80.1173 28.3308 78.908 28.0262 77.6987 27.1123C76.4894 26.1984 75.8847 24.9799 75.5824 23.4568L73.7684 10.967C73.4661 9.4439 73.7684 8.22539 74.6754 7.00688C75.5824 5.78837 76.7917 5.17912 78.3033 4.87449C79.815 4.56986 81.0243 4.87449 82.2336 5.78837C83.4429 6.70226 84.0476 7.92077 84.3499 9.4439L84.6522 11.8809L81.0243 12.4902L80.722 9.74853C80.722 9.13928 80.4196 8.83465 79.815 8.53002C79.5127 8.22539 78.908 7.92077 78.3033 8.22539C77.6987 8.22539 77.3964 8.53002 77.094 9.13928C76.7917 9.4439 76.7917 10.0532 76.7917 10.6624L78.6057 22.8475C78.6057 23.4568 78.908 23.7614 79.5127 24.066C79.815 24.3707 80.4196 24.6753 81.0243 24.3707C81.629 24.3707 81.9313 24.066 82.2336 23.4568C82.5359 23.1522 82.8383 22.5429 82.5359 21.9336L81.9313 17.3642L80.1173 17.6689L79.5127 14.3179L84.9546 13.4041L86.1639 21.3244C86.4662 22.8475 86.1639 24.066 85.2569 25.2845C84.3499 27.1123 83.1406 27.7216 81.629 28.0262Z" fill="#313030"/>
<path d="M99.1641 25.589L97.3501 2.43732L107.025 1.52344L107.327 5.17897L100.978 5.78823L101.583 11.8808L106.118 11.5762L106.42 14.9271L101.885 15.5363L102.49 21.6289L108.839 21.0196L109.141 24.6751L99.1641 25.589Z" fill="#313030"/>
<path d="M125.467 0.609375C127.281 0.609375 128.792 0.914003 129.699 2.13251C130.606 3.0464 131.211 4.26491 131.211 6.09267V9.44358C131.211 10.9667 130.606 12.4899 129.397 13.7084L132.42 23.7611H128.792L126.374 15.2315H126.071H123.955L124.257 23.7611H120.932L120.025 0.609375H125.467ZM127.885 6.09267C127.885 4.87416 127.281 4.26491 125.769 4.26491H123.653L123.955 11.576H126.071C126.676 11.576 126.978 11.2713 127.583 10.9667C127.885 10.6621 128.188 10.0528 128.188 9.44358L127.885 6.09267Z" fill="#313030"/>
<path d="M179.583 19.8011C179.583 21.3242 178.979 22.5427 177.769 23.4566C176.56 24.3705 175.351 24.9798 173.839 24.6751L168.397 24.3705L170.211 1.52344L175.653 1.82807C177.165 1.82807 178.374 2.43732 179.281 3.65583C180.188 4.87434 180.793 6.09285 180.49 7.61599L179.583 19.8011ZM172.025 21.0196L174.141 21.3242C174.746 21.3242 175.048 21.3242 175.653 20.715C175.955 20.4104 176.258 19.8011 176.258 19.4965L177.165 7.61599C177.165 7.00674 177.165 6.70211 176.56 6.09285C176.258 5.78823 175.653 5.4836 175.351 5.4836L173.234 5.17897L172.025 21.0196Z" fill="#313030"/>
<path d="M194.095 0L197.421 0.304628L196.212 5.4833L194.095 5.17867V0Z" fill="#313030"/>
<path d="M215.258 30.1581L205.886 28.6349L209.817 5.78784L213.142 6.3971L209.817 25.5886L215.863 26.8072L215.258 30.1581Z" fill="#313030"/>
<path d="M231.677 9.77718L226.873 32.4172L230.125 33.1179L234.929 10.4779L231.677 9.77718Z" fill="#313030"/>
<path d="M247.608 37.7737C246.096 37.4691 244.887 36.5552 244.282 35.3367C243.677 34.1182 243.375 32.595 243.677 31.0719L247.003 18.8868C247.305 17.3637 248.212 16.1451 249.422 15.5359C250.631 14.9266 252.143 14.622 253.654 14.9266C255.166 15.2313 256.375 16.1451 256.98 17.3637C257.585 18.5822 257.887 20.1053 257.585 21.6284L256.98 24.0655L253.654 23.1516L254.259 20.4099C254.259 19.8007 254.259 19.4961 253.957 18.8868C253.654 18.5822 253.352 18.2775 252.747 18.2775C252.143 18.2775 251.84 18.2775 251.236 18.5822C250.631 18.8868 250.329 19.1914 250.329 19.8007L247.003 31.9858C247.003 32.595 247.003 32.8997 247.305 33.5089C247.608 34.1182 247.91 34.4228 248.515 34.4228C249.119 34.4228 249.422 34.4228 250.026 34.1182C250.631 33.8136 250.933 33.5089 250.933 32.8997L251.84 29.8534L255.166 30.7673L254.259 33.8136C253.957 35.3367 253.05 36.5552 251.84 37.1645C250.631 37.7737 249.119 38.0783 247.608 37.7737Z" fill="#313030"/>
<path d="M264.84 42.3432L272.096 20.7146L281.468 23.7609L280.259 27.1118L274.213 24.9794L272.399 31.0719L276.631 32.5951L275.422 35.946L271.189 34.4228L269.073 40.2108L275.12 42.3432L273.91 45.6941L264.84 42.3432Z" fill="#313030"/>
<path d="M43.2328 102.355C43.2328 103.269 42.6282 103.574 42.0235 103.574C41.4189 103.574 40.8142 102.964 40.8142 102.355C40.8142 101.746 41.4189 101.137 42.0235 101.137C42.6282 100.832 43.2328 101.441 43.2328 102.355Z" fill="#313030"/>
<path d="M51.0934 103.878L50.4888 105.096H48.6748L51.6981 97.7854H53.5121L56.5354 105.096H54.7214L54.1167 103.878H51.0934ZM52.6051 99.6132L51.3958 102.355H53.5121L52.6051 99.6132Z" fill="#313030"/>
<path d="M68.6285 105.096V100.527L66.8145 104.487H65.6052L63.7912 100.527V105.096H62.2795V97.7854H64.0935L66.2098 102.05L68.0238 97.7854H70.1401V105.096H68.6285Z" fill="#313030"/>
<path d="M78.3035 99.3085V100.832H81.9314V102.05H78.3035V103.573H82.2338V105.096H76.4895V97.7854H82.2338V99.3085H78.3035Z" fill="#313030"/>
<path d="M91.6054 102.964H90.0938V105.096H88.2798V97.7854H91.6054C93.4194 97.7854 94.6287 98.6993 94.6287 100.222C94.6287 101.441 94.024 102.05 93.4194 102.659L94.931 105.096H92.8147L91.6054 102.964ZM91.6054 101.746C92.5124 101.746 92.8147 101.441 92.8147 100.527C92.8147 99.9178 92.2101 99.3085 91.6054 99.3085H90.0938V101.746H91.6054Z" fill="#313030"/>
<path d="M102.792 97.7854H100.978V105.096H102.792V97.7854Z" fill="#313030"/>
<path d="M115.187 99.0039L113.978 100.222C113.373 99.6132 112.769 99.3085 112.164 99.3085C110.955 99.3085 110.048 100.222 110.048 101.441C110.048 102.659 110.955 103.573 112.164 103.573C112.769 103.573 113.373 103.269 113.978 102.659L115.187 103.878C114.28 104.792 113.373 105.096 112.164 105.096C110.048 105.096 108.234 103.573 108.234 101.441C108.234 99.3085 109.745 97.7854 112.164 97.7854C113.373 97.7854 114.583 98.3947 115.187 99.0039Z" fill="#313030"/>
<path d="M122.746 103.878L122.141 105.096H120.327L123.35 97.7854H125.164L128.187 105.096H126.373L125.769 103.878H122.746ZM124.257 99.6132L123.35 102.355H125.467L124.257 99.6132Z" fill="#313030"/>
<path d="M139.071 105.096L135.746 100.527V105.096H133.932V97.7854H135.443L138.769 102.355V97.7854H140.583V105.096H139.071Z" fill="#313030"/>
<path d="M156.002 99.3085V100.832H159.327V102.355H156.002V105.096H154.188V97.7854H159.63V99.3085H156.002Z" fill="#313030"/>
<path d="M172.933 101.441C172.933 103.573 171.119 105.096 169.002 105.096C166.886 105.096 165.072 103.573 165.072 101.441C165.072 99.3085 166.886 97.7854 169.002 97.7854C171.119 97.7854 172.933 99.3085 172.933 101.441ZM166.886 101.441C166.886 102.659 167.793 103.573 169.002 103.573C170.212 103.573 171.119 102.659 171.119 101.441C171.119 100.222 170.212 99.3085 169.002 99.3085C167.793 99.3085 166.886 100.222 166.886 101.441Z" fill="#313030"/>
<path d="M185.933 101.441C185.933 103.573 184.119 105.096 182.002 105.096C179.886 105.096 178.072 103.573 178.072 101.441C178.072 99.3085 179.886 97.7854 182.002 97.7854C184.119 97.7854 185.933 99.3085 185.933 101.441ZM179.886 101.441C179.886 102.659 180.793 103.573 182.002 103.573C183.212 103.573 184.119 102.659 184.119 101.441C184.119 100.222 183.212 99.3085 182.002 99.3085C180.793 99.3085 179.886 100.222 179.886 101.441Z" fill="#313030"/>
<path d="M195.002 97.7854C197.421 97.7854 198.933 99.3085 198.933 101.441C198.933 103.573 197.421 105.096 195.002 105.096H191.979V97.7854H195.002V97.7854ZM193.793 103.573H195.002C196.212 103.573 196.816 102.659 196.816 101.441C196.816 100.222 195.909 99.3085 194.7 99.3085H193.491V103.573H193.793Z" fill="#313030"/>
<path d="M206.491 97.7854H204.677V105.096H206.491V97.7854Z" fill="#313030"/>
<path d="M217.979 105.096L214.653 100.527V105.096H212.839V97.7854H214.653L217.979 102.355V97.7854H219.491V105.096H217.979Z" fill="#313030"/>
<path d="M232.189 101.441V104.183C231.282 104.792 230.072 105.096 229.165 105.096C227.049 105.096 225.235 103.573 225.235 101.441C225.235 99.3085 227.049 97.7854 229.165 97.7854C230.375 97.7854 231.282 98.09 232.189 99.0039L231.282 100.222C230.677 99.6132 230.072 99.3085 229.468 99.3085C228.258 99.3085 227.351 100.222 227.351 101.441C227.351 102.659 228.258 103.573 229.468 103.573C229.77 103.573 230.375 103.573 230.677 103.269V101.441H232.189V101.441Z" fill="#313030"/>
<path d="M240.654 102.355C240.654 103.269 240.049 103.574 239.445 103.574C238.84 103.574 238.235 102.964 238.235 102.355C238.235 101.746 238.84 101.137 239.445 101.137C240.352 100.832 240.654 101.441 240.654 102.355Z" fill="#313030"/>
<path d="M66.2097 68.846V61.5349H69.5353V62.4488H67.419V64.5812H68.9307V65.7997H67.419V67.6275H69.5353V68.846H66.2097Z" fill="#313030"/>
<path d="M78.0012 67.018C78.0012 67.6273 78.0012 67.9319 77.6988 68.2365C77.3965 68.5412 77.3965 68.5412 76.7918 68.8458C76.4895 68.8458 76.4895 68.8458 76.1872 68.8458C75.8849 68.8458 75.2802 68.8458 74.9779 68.5412C74.6755 68.2365 74.6755 68.2365 74.3732 67.9319C74.3732 67.6273 74.0709 67.3227 74.0709 67.018H74.9779C74.9779 67.3227 75.2802 67.6273 75.2802 67.9319L75.5825 68.2365C75.8849 68.2365 75.8849 68.2365 76.1872 67.9319C76.1872 67.9319 76.1872 67.6273 76.1872 67.3227C76.1872 67.018 76.1872 66.7134 75.8849 66.4088C75.5825 66.1041 75.2802 65.7995 74.9779 65.4949C74.6755 65.1903 74.3732 64.8856 74.0709 64.581C73.7686 64.2764 73.7686 63.9718 73.7686 63.6671C73.7686 63.0579 74.0709 62.4486 74.3732 62.144C74.6755 61.8394 74.9779 61.8394 75.2802 61.8394C75.5825 61.8394 75.8849 61.8394 76.1872 62.144C76.4895 62.144 76.4895 62.4486 76.7918 62.7532C76.7918 63.0579 77.0942 63.3625 77.0942 63.6671L76.1872 63.9718C76.1872 63.6671 76.1872 63.3625 75.8849 63.3625L75.5825 63.0579C75.2802 63.0579 75.2802 63.0579 74.9779 63.3625C74.9779 63.3625 74.9779 63.6671 74.9779 63.9718C74.9779 64.2764 74.9779 64.581 75.2802 64.8856C75.2802 64.8856 75.5825 65.1903 75.8849 65.4949C76.1872 65.7995 76.1872 65.7995 76.4895 65.7995C76.7918 66.1041 77.0942 66.4088 77.0942 66.7134C77.0942 66.7134 77.0942 67.018 77.3965 67.018C77.6988 66.7134 78.0012 66.7134 78.0012 67.018Z" fill="#313030"/>
<path d="M83.745 62.4488H82.5356V61.5349H86.1636V62.4488H84.9543V68.846H83.745V62.4488Z" fill="#313030"/>
<path d="M91.908 67.6272H90.6987V68.8457H91.908V67.6272Z" fill="#313030"/>
<path d="M188.955 63.6673C188.955 63.058 189.258 62.4488 189.56 62.1442C189.862 61.8395 190.165 61.5349 190.769 61.5349C191.374 61.5349 191.676 61.8395 191.979 62.1442C192.281 62.4488 192.583 63.058 192.583 63.3627C192.583 63.9719 192.583 64.2766 192.281 64.8858C192.281 65.1904 191.979 65.4951 191.374 66.1043C191.374 66.409 191.072 66.409 190.769 67.0182L190.467 67.3228C190.467 67.6275 190.165 67.6275 190.165 67.9321H192.281V69.1506H188.653V68.2367C188.653 68.2367 188.653 67.9321 188.955 67.9321L189.258 67.6275L189.56 67.3228C189.862 67.0182 189.862 66.7136 190.467 66.1043C190.769 65.4951 191.072 65.1904 191.374 64.8858C191.374 64.5812 191.676 64.2766 191.676 63.9719C191.676 63.6673 191.676 63.6673 191.374 63.3627C191.374 63.058 191.072 63.0581 190.769 63.0581C190.467 63.0581 190.165 63.3627 190.165 63.6673V63.9719V64.2766L188.955 63.6673Z" fill="#313030"/>
<path d="M200.746 67.3228C200.746 67.9321 200.444 68.2367 200.142 68.5413C199.839 68.846 199.537 69.1506 198.932 69.1506C198.328 69.1506 198.025 68.846 197.723 68.5413C197.421 68.2367 197.118 67.9321 197.118 67.3228V63.3627C197.118 62.7534 197.421 62.4488 197.723 62.1442C198.025 61.8395 198.328 61.5349 198.932 61.5349C199.537 61.5349 199.839 61.8395 200.142 62.1442C200.444 62.4488 200.746 63.058 200.746 63.3627V67.3228ZM199.537 63.0581C199.537 62.7534 199.537 62.7534 199.235 62.7534L198.932 62.4488C198.63 62.4488 198.63 62.4488 198.63 62.7534L198.328 63.0581V67.0182C198.328 67.3228 198.328 67.3228 198.63 67.3228L198.932 67.6275C199.235 67.6275 199.235 67.6275 199.235 67.3228L199.537 67.0182V63.0581Z" fill="#313030"/>
<path d="M206.188 68.8462V63.0582H205.281V62.1443C205.584 62.1443 205.886 62.1443 206.188 61.8397C206.491 61.5351 206.491 61.5351 206.793 61.2305H207.7V68.5415H206.188V68.8462Z" fill="#313030"/>
<path d="M214.049 63.3626C214.049 63.0579 214.049 62.7533 214.049 62.7533L213.747 62.4487C213.444 62.4487 213.444 62.4487 213.444 62.7533C213.444 62.7533 213.444 63.0579 213.444 63.3626V64.8857C213.747 64.5811 214.049 64.5811 214.351 64.5811C214.956 64.5811 215.258 64.8857 215.561 65.1903C215.863 65.4949 215.863 65.7996 215.863 66.4088V67.6273C215.863 68.2366 215.561 68.5412 215.258 68.8459C214.956 69.1505 214.654 69.4551 214.049 69.4551C213.444 69.4551 213.142 69.1505 212.84 68.8459C212.537 68.5412 212.235 68.2366 212.235 67.6273V63.6672C212.235 63.3626 212.235 63.0579 212.537 62.7533C212.84 62.4487 212.84 62.144 213.142 62.144C213.444 62.144 213.444 62.144 213.747 62.144C214.351 62.144 214.654 62.4487 214.956 62.7533C215.258 63.0579 215.561 63.3626 215.561 63.9718V64.2764H214.049V63.3626ZM212.84 67.0181C212.84 67.3227 212.84 67.3227 212.84 67.3227L213.142 67.6273C213.444 67.6273 213.444 67.6273 213.444 67.3227V67.0181V65.7996C213.444 65.495 213.444 65.4949 213.142 65.1903H212.84C212.537 65.1903 212.537 65.1903 212.537 65.495V65.7996V67.0181H212.84Z" fill="#313030"/>
<path d="M171.118 58.7931C170.211 58.7931 169.909 58.4885 169.304 57.8792C168.397 57.27 167.188 56.0515 165.072 56.0515C162.955 56.0515 161.746 56.9653 160.839 57.8792C160.235 58.4885 159.932 58.7931 159.025 58.7931C158.118 58.7931 157.816 58.4885 157.211 57.8792C156.304 57.27 155.095 56.0515 152.979 56.0515C150.862 56.0515 149.653 56.9653 148.746 57.8792C148.141 58.4885 147.839 58.7931 146.932 58.7931C146.025 58.7931 145.723 58.4885 145.118 57.8792C144.211 57.27 143.002 56.0515 140.885 56.0515C138.769 56.0515 137.56 56.9653 136.653 57.8792C136.048 58.4885 135.746 58.7931 134.839 58.7931C133.932 58.7931 133.63 58.4885 133.025 57.8792C132.118 57.27 130.909 56.0515 128.792 56.0515C126.676 56.0515 125.467 56.9653 124.56 57.8792C123.955 58.4885 123.653 58.7931 122.746 58.7931C121.839 58.7931 121.536 58.4885 120.932 57.8792C120.025 57.27 118.815 56.0515 116.699 56.0515C114.583 56.0515 113.374 56.9653 112.467 57.8792C111.862 58.4885 111.56 58.7931 110.653 58.7931C109.141 58.7931 107.932 57.5746 107.932 56.0515C107.932 52.3959 120.932 42.0386 141.188 42.0386C161.444 42.0386 174.444 52.3959 174.444 56.0515C174.444 56.9653 175.351 57.8792 176.258 57.8792C177.165 57.8792 178.072 56.9653 178.072 56.0515C178.072 49.045 161.444 38.3831 141.188 38.3831C120.932 38.3831 104.304 49.045 104.304 56.0515C104.304 59.707 107.327 62.7533 110.955 62.7533C113.071 62.7533 114.28 61.8394 115.187 60.9255C115.792 60.3162 116.094 60.0116 117.001 60.0116C117.908 60.0116 118.211 60.3162 118.815 60.9255C119.722 61.5348 120.932 62.7533 123.048 62.7533C125.164 62.7533 126.374 61.8394 127.281 60.9255C127.885 60.3162 128.188 60.0116 129.095 60.0116C130.002 60.0116 130.304 60.3162 130.909 60.9255C131.816 61.5348 133.025 62.7533 135.141 62.7533C137.258 62.7533 138.467 61.8394 139.374 60.9255C139.978 60.3162 140.281 60.0116 141.188 60.0116C142.095 60.0116 142.397 60.3162 143.002 60.9255C143.909 61.5348 145.118 62.7533 147.234 62.7533C149.351 62.7533 150.56 61.8394 151.467 60.9255C152.072 60.3162 152.374 60.0116 153.281 60.0116C154.188 60.0116 154.49 60.3162 155.095 60.9255C156.002 61.5348 157.211 62.7533 159.328 62.7533C161.444 62.7533 162.653 61.8394 163.56 60.9255C164.165 60.3162 164.467 60.0116 165.374 60.0116C166.281 60.0116 166.583 60.3162 167.188 60.9255C168.095 61.5348 169.304 62.7533 171.421 62.7533C173.235 62.7533 174.142 63.6672 174.142 63.9718C174.142 64.2764 173.839 64.2764 173.537 64.581C172.932 64.8857 172.025 65.1903 171.421 65.1903H110.35C106.722 65.1903 103.699 68.2366 103.699 71.8921V73.7199C103.699 77.3754 106.722 80.4217 110.35 80.4217H171.118C174.746 80.4217 177.77 77.3754 177.77 73.7199C177.77 72.806 176.863 71.8921 175.956 71.8921C175.049 71.8921 174.142 72.806 174.142 73.7199C174.142 75.243 172.932 76.4615 171.421 76.4615H110.35C108.839 76.4615 107.629 75.243 107.629 73.7199V71.8921C107.629 70.369 108.839 69.1505 110.35 69.1505H171.118C172.63 69.1505 174.142 68.8458 175.351 67.9319C176.56 67.0181 177.467 65.7995 177.467 64.2764C177.467 64.2764 177.467 64.2764 177.467 63.9718C177.467 63.9718 177.467 63.9718 177.467 63.6672C177.467 60.9255 174.746 58.7931 171.118 58.7931ZM123.955 49.045L122.443 49.6543C122.141 49.9589 121.839 50.2635 121.839 50.5682C121.839 50.8728 121.839 51.1774 121.839 51.482C122.141 51.7867 122.141 52.0913 122.746 52.0913H123.048C123.653 52.0913 124.257 51.7867 124.257 51.1774L124.56 49.6543C124.56 49.3496 124.56 49.3497 124.56 49.045C124.257 49.045 124.257 49.045 123.955 49.045ZM141.49 49.045L139.978 49.6543C139.676 49.9589 139.374 50.2635 139.374 50.5682C139.071 51.1774 139.676 52.0913 140.281 52.0913H140.583C141.188 52.0913 141.792 51.7867 141.792 51.1774L142.095 49.6543C142.095 49.3496 142.095 49.3497 142.095 49.045C141.792 49.045 141.792 49.045 141.49 49.045ZM159.025 49.045L157.514 49.6543C157.211 49.9589 156.909 50.2635 156.909 50.5682C156.607 51.1774 157.211 52.0913 157.816 52.0913H158.118C158.723 52.0913 159.328 51.7867 159.328 51.1774L159.63 49.6543C159.63 49.3496 159.63 49.3497 159.63 49.045C159.328 49.045 159.328 49.045 159.025 49.045ZM132.723 46.608L131.211 47.2173C130.909 47.2173 130.606 47.8265 130.606 48.1311C130.304 48.7404 130.909 49.6543 131.513 49.6543H131.816C132.42 49.6543 133.025 49.3497 133.025 48.7404L133.327 47.2173C133.327 46.9126 133.327 46.9126 133.025 46.608C133.025 46.608 133.025 46.608 132.723 46.608ZM150.258 46.608L148.746 47.2173C148.444 47.5219 148.141 47.8265 148.141 48.1311C148.141 48.4358 148.141 48.7404 148.141 49.045C148.444 49.3497 148.444 49.6543 149.048 49.6543H149.351C149.955 49.6543 150.56 49.3497 150.56 48.7404L150.862 47.2173C150.862 46.9126 150.862 46.9126 150.862 46.608C150.56 46.608 150.56 46.608 150.258 46.608Z" fill="#313030"/>
<path d="M148.746 120.024C148.746 119.719 148.444 119.414 148.141 119.414L143.304 119.11L141.49 114.54C141.188 113.931 140.281 113.931 139.978 114.54L138.164 119.11L133.327 119.414C133.025 119.414 132.722 119.719 132.722 120.024C132.722 120.328 132.722 120.633 133.025 120.937L136.955 123.984L135.746 128.858C135.746 129.162 135.746 129.467 136.048 129.772C136.35 130.076 136.653 130.076 136.955 129.772L141.188 127.03L145.42 129.772H145.723C146.025 129.772 146.63 129.467 146.63 128.858V128.553L145.42 123.984L149.351 120.937C148.746 120.937 149.048 120.328 148.746 120.024Z" fill="#313030"/>
<path d="M171.421 122.765H155.699C155.397 122.765 154.792 122.46 154.792 122.156C154.792 121.851 155.095 121.242 155.699 121.242H171.421C171.723 121.242 172.328 121.547 172.328 122.156C172.328 122.765 172.025 122.765 171.421 122.765Z" fill="#313030"/>
<path d="M169.002 126.725H153.281C152.978 126.725 152.374 126.42 152.374 125.811C152.374 125.506 152.676 124.897 153.281 124.897H169.002C169.304 124.897 169.909 125.202 169.909 125.811C169.607 126.42 169.304 126.725 169.002 126.725Z" fill="#313030"/>
<path d="M125.769 122.765H110.048C109.746 122.765 109.141 122.46 109.141 122.156C109.141 121.851 109.443 121.242 110.048 121.242H125.769C126.072 121.242 126.676 121.547 126.676 122.156C126.676 122.765 126.072 122.765 125.769 122.765Z" fill="#313030"/>
<path d="M128.188 126.725H112.467C112.164 126.725 111.56 126.42 111.56 125.811C111.56 125.506 111.862 124.897 112.467 124.897H128.188C128.49 124.897 129.095 125.202 129.095 125.811C129.095 126.42 128.792 126.725 128.188 126.725Z" fill="#313030"/>
</svg>
