<svg width="1287" height="1133" viewBox="0 0 1287 1133" fill="none" xmlns="http://www.w3.org/2000/svg">
<path opacity="0.1" d="M975.778 722.485C959.019 767.898 911.576 802.572 864.289 827.027C715.759 903.839 547.553 914.063 392.043 905.565C335.747 902.488 278.884 896.974 231.126 875.551C133.906 831.941 90.1025 719.058 129.655 614.055C143.112 578.329 164.82 544.365 188.407 511.749C230.345 453.757 279.635 398.182 340.493 355.328C383.892 324.768 432.174 301.366 481.013 280.849C617.466 223.524 762.829 187.043 902.595 187.523C963.896 187.734 1026.31 195.961 1070.16 228.238C1114.01 260.516 1133.51 322.243 1101.42 374.862C1088.15 396.624 1067.74 414.777 1047.65 432.357C1018.07 458.235 987.903 484.328 965.521 515.144C942.403 546.972 921.029 595.052 944.904 622.175C970.521 651.276 992.517 677.124 975.778 722.485Z" fill="#6C63FF"/>
<path d="M761.163 183H508.232C488.391 183.022 469.369 190.912 455.34 204.938C441.31 218.964 433.418 237.981 433.396 257.817V280.673C432.876 280.531 432.331 280.51 431.803 280.614C431.275 280.718 430.778 280.944 430.351 281.272C429.925 281.601 429.581 282.025 429.347 282.509C429.112 282.994 428.994 283.526 429 284.064V301.641C428.994 302.179 429.112 302.712 429.347 303.196C429.581 303.681 429.925 304.104 430.351 304.433C430.778 304.762 431.275 304.987 431.803 305.091C432.331 305.195 432.876 305.175 433.396 305.032V331.645C432.876 331.502 432.331 331.482 431.803 331.586C431.275 331.69 430.778 331.915 430.351 332.244C429.925 332.573 429.581 332.996 429.347 333.481C429.112 333.965 428.994 334.498 429 335.036V378.977C428.994 379.515 429.112 380.048 429.347 380.532C429.581 381.017 429.925 381.44 430.351 381.769C430.778 382.098 431.275 382.323 431.803 382.427C432.331 382.531 432.876 382.511 433.396 382.368V398.436C432.876 398.293 432.331 398.272 431.803 398.376C431.275 398.48 430.778 398.706 430.351 399.034C429.925 399.363 429.581 399.787 429.347 400.271C429.112 400.756 428.994 401.288 429 401.827V445.768C428.994 446.306 429.112 446.838 429.347 447.323C429.581 447.807 429.925 448.231 430.351 448.56C430.778 448.889 431.275 449.114 431.803 449.218C432.331 449.322 432.876 449.301 433.396 449.159V913.183C433.418 933.019 441.31 952.036 455.34 966.062C469.369 980.088 488.391 987.978 508.232 988H761.163C781.004 987.978 800.026 980.088 814.056 966.062C828.086 952.036 835.978 933.019 836 913.183V257.817C835.978 237.981 828.086 218.964 814.056 204.938C800.026 190.912 781.004 183.022 761.163 183ZM820.177 913.183C820.159 928.825 813.936 943.821 802.873 954.881C791.809 965.942 776.809 972.164 761.163 972.181H508.232C492.586 972.163 477.586 965.942 466.523 954.881C455.459 943.821 449.236 928.825 449.219 913.183V257.817C449.236 242.175 455.459 227.179 466.523 216.119C477.586 205.058 492.586 198.837 508.232 198.819H761.163C776.809 198.837 791.809 205.058 802.873 216.119C813.936 227.179 820.159 242.175 820.177 257.817V913.183Z" fill="#3F3D56"/>
<path d="M761.115 981H507.885C489.887 980.98 472.632 973.831 459.906 961.122C447.179 948.413 440.02 931.181 440 913.208V257.792C440.02 239.819 447.179 222.587 459.906 209.878C472.632 197.169 489.887 190.02 507.885 190H761.115C779.113 190.02 796.368 197.169 809.094 209.878C821.821 222.587 828.98 239.819 829 257.792V913.208C828.98 931.181 821.821 948.413 809.094 961.122C796.368 973.831 779.113 980.98 761.115 981Z" fill="#E6E6E6"/>
<path d="M767.255 970H501.745C489.617 969.986 477.99 965.17 469.414 956.609C460.838 948.047 456.014 936.439 456 924.331V246.669C456.014 234.561 460.838 222.953 469.414 214.391C477.989 205.83 489.617 201.014 501.745 201H536.37C538.375 201.002 540.297 201.798 541.714 203.213C543.131 204.629 543.929 206.547 543.931 208.548C543.938 214.46 546.293 220.128 550.48 224.309C554.668 228.489 560.345 230.84 566.267 230.847H699.216C705.138 230.84 710.815 228.489 715.002 224.309C719.19 220.128 721.545 214.46 721.552 208.548C721.554 206.547 722.351 204.629 723.769 203.213C725.186 201.798 727.108 201.002 729.112 201H767.255C779.383 201.014 791.01 205.83 799.586 214.391C808.162 222.953 812.986 234.561 813 246.669V924.331C812.986 936.439 808.162 948.047 799.586 956.609C791.011 965.17 779.383 969.986 767.255 970Z" fill="white"/>
<path d="M645.545 216H614.455C613.538 216 612.66 215.631 612.012 214.975C611.364 214.319 611 213.428 611 212.5C611 211.572 611.364 210.681 612.012 210.025C612.66 209.369 613.538 209 614.455 209H645.545C646.462 209 647.34 209.369 647.988 210.025C648.636 210.681 649 211.572 649 212.5C649 213.428 648.636 214.319 647.988 214.975C647.34 215.631 646.462 216 645.545 216Z" fill="white"/>
<path d="M667.5 215C668.328 215 669 214.328 669 213.5C669 212.672 668.328 212 667.5 212C666.672 212 666 212.672 666 213.5C666 214.328 666.672 215 667.5 215Z" fill="white"/>
<path d="M821 338H447V342H821V338Z" fill="#3F3D56"/>
<path d="M821 418H447V422H821V418Z" fill="#3F3D56"/>
<path d="M821 584H447V588H821V584Z" fill="#3F3D56"/>
<path d="M821 749H447V753H821V749Z" fill="#3F3D56"/>
<path d="M821 879H447V883H821V879Z" fill="#3F3D56"/>
<path d="M719 340H715V586H719V340Z" fill="#3F3D56"/>
<path d="M531 586H527V881H531V586Z" fill="#3F3D56"/>
<path d="M813 666H529V670H813V666Z" fill="#3F3D56"/>
<path d="M719 881H715V970H719V881Z" fill="#3F3D56"/>
<path d="M716 502H455V506H716V502Z" fill="#3F3D56"/>
<path d="M509.695 198.046L506 199.592L565.037 340.663L568.732 339.116L509.695 198.046Z" fill="#3F3D56"/>
<path d="M692 230H688V340H692V230Z" fill="#3F3D56"/>
<path d="M795 400.892C795 436.682 739.587 520.077 723.394 543.685C722.905 544.398 722.25 544.982 721.484 545.386C720.718 545.789 719.866 546 719 546C718.134 546 717.282 545.789 716.516 545.386C715.75 544.982 715.095 544.398 714.606 543.685C698.413 520.077 643 436.682 643 400.892C643 380.764 651.007 361.461 665.26 347.228C679.513 332.996 698.844 325 719 325C739.156 325 758.487 332.996 772.74 347.228C786.993 361.461 795 380.764 795 400.892Z" fill="#FF8A68"/>
<path d="M718.5 434C739.763 434 757 416.763 757 395.5C757 374.237 739.763 357 718.5 357C697.237 357 680 374.237 680 395.5C680 416.763 697.237 434 718.5 434Z" fill="white"/>
<path d="M716.164 586.723L569.521 879.716L573.103 881.509L719.746 588.516L716.164 586.723Z" fill="#3F3D56"/>
<path d="M718.5 602C728.165 602 736 594.389 736 585C736 575.611 728.165 568 718.5 568C708.835 568 701 575.611 701 585C701 594.389 708.835 602 718.5 602Z" fill="#FF8A68"/>
<path d="M327.886 659.727C338.554 676.044 338.213 730.575 337.886 746.162C337.876 746.633 337.752 747.095 337.524 747.507C337.296 747.919 336.972 748.269 336.578 748.527C336.184 748.785 335.734 748.943 335.265 748.987C334.797 749.031 334.324 748.961 333.89 748.781C319.488 742.844 269.428 721.336 258.76 705.019C255.785 700.476 253.733 695.39 252.723 690.052C251.712 684.715 251.762 679.23 252.869 673.912C253.977 668.594 256.12 663.546 259.177 659.058C262.234 654.569 266.145 650.727 270.686 647.752C275.227 644.777 280.308 642.727 285.641 641.719C290.974 640.71 296.452 640.764 301.764 641.876C307.076 642.988 312.118 645.137 316.6 648.2C321.082 651.263 324.917 655.18 327.886 659.727Z" fill="#F2F2F2"/>
<path d="M292 701C303.598 701 313 691.598 313 680C313 668.402 303.598 659 292 659C280.402 659 271 668.402 271 680C271 691.598 280.402 701 292 701Z" fill="white"/>
<path d="M348 776C352.971 776 357 771.747 357 766.5C357 761.253 352.971 757 348 757C343.029 757 339 761.253 339 766.5C339 771.747 343.029 776 348 776Z" fill="#F2F2F2"/>
<path d="M425.042 409.453H423.957C422.533 409.453 421.377 410.608 421.377 412.033V437.081C421.377 438.506 422.533 439.661 423.957 439.661H425.042C426.467 439.661 427.622 438.506 427.622 437.081V412.033C427.622 410.608 426.467 409.453 425.042 409.453Z" fill="#3F3D56"/>
<path d="M425.608 464.767H423.731C422.306 464.767 421.151 465.922 421.151 467.347V514.762C421.151 516.187 422.306 517.342 423.731 517.342H425.608C427.033 517.342 428.188 516.187 428.188 514.762V467.347C428.188 465.922 427.033 464.767 425.608 464.767Z" fill="#3F3D56"/>
<path d="M425.381 535.739H423.843C422.418 535.739 421.263 536.894 421.263 538.319V586.186C421.263 587.611 422.418 588.766 423.843 588.766H425.381C426.805 588.766 427.961 587.611 427.961 586.186V538.319C427.961 536.894 426.805 535.739 425.381 535.739Z" fill="#3F3D56"/>
<path d="M338.267 675.96C338.446 676.133 338.676 676.244 338.922 676.275C339.169 676.307 339.42 676.258 339.637 676.136C339.174 676.143 338.713 676.084 338.267 675.96Z" fill="url(#paint0_linear)"/>
<path d="M390.051 696.216L388.699 703.58L387.655 709.213L385.758 719.517L367.361 732.397C367.361 732.397 365.703 730.977 362.968 728.74C355.428 722.532 339.582 709.891 327.946 703.106C324.953 701.198 321.715 699.706 318.32 698.67L390.051 696.216Z" fill="#FEB9B9"/>
<path d="M376.554 701.695C376.554 701.695 398.004 705.377 399.26 696.216C400.516 687.055 388.219 682.105 377.798 681.489C367.377 680.872 304.828 685.171 304.828 685.171C304.828 685.171 293.795 699.885 333.642 702.348L376.554 701.695Z" fill="#3F3D56"/>
<path d="M423.463 399.412H311.25V532.472H423.463V399.412Z" fill="#2F2E41"/>
<path opacity="0.1" d="M423.463 400.016H311.25V533.076H423.463V400.016Z" fill="black"/>
<path d="M179.738 627.192C177.89 627.657 175.528 629.445 172.902 632.03C161.593 643.226 145.396 669.502 145.396 669.502C124.687 644.834 147.603 625.344 157.371 618.647C159.745 617.025 161.341 616.133 161.341 616.133L179.738 627.192Z" fill="#FEB9B9"/>
<path d="M388.818 441.407C388.818 441.407 394.339 480.035 413.346 489.233C432.354 498.431 388.818 515.621 388.818 515.621L329.345 493.53C329.345 493.53 363.072 482.489 356.323 449.989L388.818 441.407Z" fill="#FEB9B9"/>
<path d="M325.049 673.799L323.704 681.137L322.611 686.792L320.714 697.096L302.317 709.963C302.317 709.963 300.658 708.556 297.923 706.32C290.384 700.112 274.539 687.471 262.885 680.686C259.893 678.775 256.655 677.283 253.259 676.25L325.049 673.799Z" fill="#FEB9B9"/>
<path d="M309.134 682.849C309.134 682.849 328.385 682.985 329.543 673.798C330.701 664.612 319.052 659.687 309.134 659.071C299.216 658.455 238.957 663.039 238.957 663.039C238.957 663.039 230.409 680.389 268.312 682.848L309.134 682.849Z" fill="#2F2E41"/>
<path d="M444.108 827.164C443.266 826.75 442.424 826.323 441.595 825.908L439.332 823.055L409.665 785.434V786.087C409.464 792.371 407.328 842.156 390.665 846.755C372.885 851.656 351.435 852.888 341.657 819.777C331.879 786.666 314.013 714.312 295.666 710.015L322.958 687.636C322.958 687.636 341.028 708.771 348.391 729.002C348.115 727.746 335.636 669.441 345.877 659.124H435.416C435.416 659.124 449.239 698.493 458.713 717.995C466.089 733.137 477.159 768.937 484.287 793.164C491.343 817.087 466.551 838.21 444.108 827.164Z" fill="#3F3D56"/>
<path opacity="0.1" d="M441.557 670.117C427.735 678.297 367.054 674.967 347.314 673.635L341.935 673.245C341.357 673.245 342.023 672.919 342.023 672.919L342.576 667.352L357.291 629.956L436.079 584.266C434.482 589.079 433.955 596.443 434.081 604.875C434.445 631.967 441.557 670.117 441.557 670.117Z" fill="black"/>
<path d="M441.558 668.27C427.735 676.451 367.055 673.12 347.314 671.789L341.936 671.411L341.043 671.336L342.024 671.085L346.874 669.828L357.291 628.135L436.078 582.458C434.483 587.271 433.954 594.635 434.081 603.067C434.446 630.133 441.558 668.27 441.558 668.27Z" fill="#FF8A68"/>
<path opacity="0.1" d="M434.03 603.041C418.008 606.735 382.749 617.574 369.202 643.754C360.168 661.183 352.565 668.659 347.262 671.788L341.884 671.41C341.919 671.303 341.948 671.194 341.972 671.084L346.822 669.827L357.239 628.134L436.026 582.458C434.449 587.245 433.904 594.609 434.03 603.041Z" fill="black"/>
<path opacity="0.1" d="M161.341 616.16L179.738 627.193C177.89 627.658 175.529 629.446 172.902 632.031C171.369 627.557 161.749 621.312 157.371 618.649C159.744 617.052 161.341 616.16 161.341 616.16Z" fill="black"/>
<path opacity="0.1" d="M338.606 672.128C338.405 672.233 338.175 672.272 337.95 672.241C337.725 672.209 337.515 672.108 337.35 671.952C337.758 672.071 338.181 672.131 338.606 672.128Z" fill="black"/>
<path d="M380.237 486.782C380.237 486.782 363.676 488.617 352.028 476.353C352.028 476.353 303.019 490.464 286.422 522.343C269.824 554.222 156.993 616.775 156.993 616.775C156.993 616.775 176.621 627.808 174.774 633.324L248.975 590.4C248.975 590.4 275.363 571.4 282.689 567.103C290.016 562.806 330.527 536.443 339.11 608.181C347.692 679.919 339.11 671.337 339.11 671.337C339.11 671.337 351.374 675.635 369.155 641.292C386.935 606.949 442.112 598.982 442.112 598.982L445.177 562.818C445.177 562.818 456.123 538.842 447.691 528.89C445.136 525.944 443.437 522.354 442.778 518.511C441.383 509.325 442.778 494.02 462.304 481.304C492.349 461.675 503.998 445.743 503.998 445.743C503.998 445.743 504.613 434.082 486.217 428.565C467.821 423.048 393.017 393.004 393.017 393.004L390.503 403.433L449.525 445.089C449.525 445.089 420.096 468.964 396.749 468.386C396.748 468.386 401.083 486.166 380.237 486.782Z" fill="#5F3973"/>
<path opacity="0.1" d="M391.596 458.22C390.146 453.305 389.013 448.302 388.204 443.241L355.708 451.826C357.141 458.03 356.885 464.504 354.967 470.575C361.611 472.347 368.63 472.121 375.145 469.923C381.661 467.726 387.383 463.655 391.596 458.22Z" fill="black"/>
<path d="M364.605 469.92C383.905 469.92 399.551 454.274 399.551 434.974C399.551 415.674 383.905 400.029 364.605 400.029C345.305 400.029 329.659 415.674 329.659 434.974C329.659 454.274 345.305 469.92 364.605 469.92Z" fill="#FEB9B9"/>
<path opacity="0.1" d="M402.616 716.409C402.616 716.409 422.847 756.268 416.715 768.519L402.616 716.409Z" fill="black"/>
<path d="M383.189 354.264C392.889 355.37 402.1 359.528 411.651 361.803C414.038 362.545 416.579 362.64 419.015 362.079C422.721 360.935 425.737 357.053 429.582 357.166C431.948 357.241 434.043 358.85 435.991 360.395C439.114 362.785 442.054 365.406 444.786 368.236C451.37 375.386 455.454 385.012 461.46 392.79C467.466 400.568 476.032 409.689 484.564 406.122C478.76 428.741 460.656 442.89 440.087 444.298C431.882 444.862 423.475 443.155 415.533 445.554C413.555 446.365 411.466 446.874 409.337 447.062C404.763 447.062 401.081 442.865 398.228 438.781C391.543 429.181 386.253 418.287 378.726 409.528C376.213 406.626 373.311 403.874 369.792 403.346C366.274 402.819 363.045 404.502 359.916 406.123C354.752 408.8 349.474 411.564 345.466 416.176C341.457 420.789 338.931 427.598 340.59 433.769C341.482 437.111 343.519 440.127 343.555 443.62C343.631 449.199 338.705 453.271 337.737 458.699C337.519 460.979 337.439 463.27 337.498 465.56C337.071 472.996 332.203 479.08 327.133 483.767C325.148 485.577 322.965 487.537 322.383 490.339C321.994 492.261 322.383 494.282 322.132 496.232C321.391 501.058 316.578 503.508 312.318 504.137C307.341 504.874 302.258 504.271 297.591 502.391C303.547 499.574 307.217 491.559 305.834 484.384C303.937 474.431 293.935 467.281 294.793 457.154C295.264 454.047 296.195 451.027 297.558 448.195C299.738 442.722 301.322 437.031 302.283 431.219C303.037 426.733 303.402 421.971 301.994 417.686C300.737 413.79 298.111 410.687 295.886 407.394C292.871 402.914 290.49 398.039 288.812 392.906C288.204 391.383 287.972 389.737 288.136 388.105C288.64 386.179 289.713 384.449 291.215 383.141C296.682 377.396 302.524 371.43 309.851 369.784C313.346 369.204 316.901 369.068 320.431 369.382C326.57 369.574 332.714 369.314 338.814 368.602C343.84 368.012 352.334 368.087 356.595 364.832C360.565 361.791 362.802 357.971 367.69 356.037C372.639 354.202 377.96 353.594 383.196 354.265L383.189 354.264Z" fill="#2F2E41"/>
<path d="M1183 1003C1183 1003.26 1182.86 1003.52 1182.62 1003.71C1182.39 1003.89 1182.06 1004 1181.72 1004H98.2776C97.9388 1004 97.6138 1003.89 97.3742 1003.71C97.1346 1003.52 97 1003.27 97 1003C97 1002.73 97.1346 1002.48 97.3742 1002.29C97.6138 1002.11 97.9388 1002 98.2776 1002H1181.72C1182.06 1002 1182.39 1002.11 1182.62 1002.29C1182.86 1002.48 1183 1002.74 1183 1003Z" fill="#CCCCCC"/>
<path d="M858.029 849.911C858.029 845.811 859.927 842.251 863.723 839.23C867.519 836.208 872.484 834.806 878.616 835.022L1174.71 835.022C1178.22 835.022 1180.7 836.208 1182.16 838.582C1183.62 840.956 1183.18 843.114 1180.84 845.056L1113.39 901.378C1112.51 902.241 1112.51 902.996 1113.39 903.644L1180.84 959.966C1183.18 961.908 1183.62 964.066 1182.16 966.439C1180.7 968.813 1178.22 970 1174.71 970L878.616 970C872.776 970 867.811 968.489 863.723 965.468C859.635 962.447 857.737 958.995 858.029 955.11L858.029 849.911Z" fill="#5F3973"/>
<path d="M926.156 910.109H899.156V938H885.094V869.75H929.531V881.141H899.156V898.766H926.156V910.109ZM962.953 913.016H951.75V938H937.688V869.75H963.047C971.109 869.75 977.328 871.547 981.703 875.141C986.078 878.734 988.266 883.812 988.266 890.375C988.266 895.031 987.25 898.922 985.219 902.047C983.219 905.141 980.172 907.609 976.078 909.453L990.844 937.344V938H975.75L962.953 913.016ZM951.75 901.625H963.094C966.625 901.625 969.359 900.734 971.297 898.953C973.234 897.141 974.203 894.656 974.203 891.5C974.203 888.281 973.281 885.75 971.438 883.906C969.625 882.062 966.828 881.141 963.047 881.141H951.75V901.625ZM1040.06 908.422H1013.06V926.703H1044.75V938H999V869.75H1044.66V881.141H1013.06V897.406H1040.06V908.422ZM1094.06 908.422H1067.06V926.703H1098.75V938H1053V869.75H1098.66V881.141H1067.06V897.406H1094.06V908.422Z" fill="white"/>
<path d="M1096.95 269.141C1096.95 269.141 988.241 262.606 1001.05 338.5C1001.05 338.5 998.467 351.916 1010.71 358C1010.71 358 1010.9 352.379 1021.86 354.295C1025.76 354.939 1029.73 355.129 1033.67 354.861C1039 354.512 1044.06 352.449 1048.11 348.982C1048.11 348.982 1078.67 336.402 1090.55 286.647C1090.55 286.647 1099.34 275.791 1098.99 272.999L1080.64 280.806C1080.64 280.806 1086.92 293.991 1081.94 304.946C1081.94 304.946 1081.34 281.278 1077.82 281.793C1077.11 281.896 1068.29 286.359 1068.29 286.359C1068.29 286.359 1079.07 309.319 1070.94 326.017C1070.94 326.017 1074.02 297.718 1064.92 288.018L1052.01 295.531C1052.01 295.531 1064.61 319.251 1056.06 338.61C1056.06 338.61 1058.25 308.921 1049.28 297.357L1037.59 306.451C1037.59 306.451 1049.43 329.823 1042.21 345.879C1042.21 345.879 1041.27 311.328 1035.06 308.718C1035.06 308.718 1024.82 317.722 1023.25 321.4C1023.25 321.4 1031.36 338.38 1026.33 347.332C1026.33 347.332 1023.24 324.308 1020.71 324.179C1020.71 324.179 1010.51 339.434 1009.45 349.905C1009.45 349.905 1009.89 334.353 1018.24 322.739C1018.24 322.739 1008.38 324.424 1002.62 330.785C1002.62 330.785 1004.21 320.006 1020.76 319.054C1020.76 319.054 1029.19 307.477 1031.44 306.783C1031.44 306.783 1014.99 305.404 1005.01 309.819C1005.01 309.819 1013.79 299.645 1034.46 304.275L1046.02 294.872C1046.02 294.872 1024.35 291.926 1015.16 295.181C1015.16 295.181 1025.73 286.177 1049.13 292.737L1061.7 285.25C1061.7 285.25 1043.23 281.288 1032.23 282.678C1032.23 282.678 1043.85 276.439 1065.4 283.205L1074.43 279.182C1074.43 279.182 1060.9 276.532 1056.94 276.108C1052.97 275.684 1052.77 274.604 1052.77 274.604C1061.34 273.18 1070.14 274.155 1078.19 277.421C1078.19 277.421 1097.27 270.338 1096.95 269.141Z" fill="#00703F"/>
<path d="M948.084 229.063C948.084 229.063 899.819 226.133 905.458 260.238C905.458 260.238 904.323 266.263 909.751 269C909.751 269 909.84 266.442 914.717 267.324C916.449 267.618 918.21 267.704 919.962 267.58C922.331 267.422 924.584 266.488 926.376 264.919C926.376 264.919 939.966 259.265 945.25 236.904C945.25 236.904 949.149 232.031 948.996 230.777L940.841 234.282C940.841 234.282 943.623 240.204 941.438 245.129C941.438 245.129 941.172 234.498 939.61 234.742C939.292 234.742 935.367 236.8 935.367 236.8C935.367 236.8 940.168 247.123 936.549 254.62C936.549 254.62 937.92 241.904 933.869 237.542L928.128 240.972C928.128 240.972 933.729 251.627 929.931 260.327C929.931 260.327 930.91 246.985 926.921 241.791L921.726 245.885C921.726 245.885 926.985 256.387 923.784 263.604C923.784 263.604 923.352 248.074 920.595 246.898C920.595 246.898 916.048 250.94 915.349 252.603C915.349 252.603 918.956 260.279 916.721 264.257C916.721 264.257 915.349 253.908 914.181 253.854C914.181 253.854 909.647 260.713 909.177 265.367C909.404 261.025 910.752 256.819 913.089 253.164C910.473 253.663 908.058 254.921 906.142 256.784C906.142 256.784 906.853 251.936 914.207 251.514C914.207 251.514 918.018 246.308 918.957 245.988C918.957 245.988 911.642 245.374 907.209 247.36C907.209 247.36 911.107 242.793 920.291 244.865L925.372 240.643C925.372 240.643 915.735 239.352 911.649 240.776C911.649 240.776 916.348 236.734 926.751 239.676L932.34 236.312C932.34 236.312 924.122 234.534 919.232 235.169C919.232 235.169 924.401 232.367 933.979 235.397L937.98 233.593C937.98 233.593 931.964 232.403 930.193 232.211C928.423 232.019 928.339 231.533 928.339 231.533C932.152 230.895 936.066 231.338 939.643 232.813C939.643 232.813 948.233 229.596 948.084 229.063Z" fill="#00703F"/>
<path d="M194.063 753.063C194.063 753.063 144.702 750.133 150.469 784.238C150.469 784.238 149.308 790.263 154.859 793C154.859 793 154.95 790.442 159.938 791.324C161.709 791.618 163.51 791.704 165.302 791.58C167.725 791.422 170.029 790.488 171.862 788.919C171.862 788.919 185.761 783.265 191.165 760.904C191.165 760.904 195.152 756.031 194.995 754.777L186.656 758.282C186.656 758.282 189.501 764.204 187.267 769.129C187.267 769.129 186.994 758.498 185.396 758.742C185.071 758.742 181.057 760.8 181.057 760.8C181.057 760.8 185.968 771.123 182.266 778.62C182.266 778.62 183.668 765.904 179.525 761.542L173.653 764.972C173.653 764.972 179.382 775.627 175.498 784.327C175.498 784.327 176.498 770.985 172.419 765.791L167.106 769.885C167.106 769.885 172.484 780.387 169.211 787.604C169.211 787.604 168.77 772.074 165.95 770.898C165.95 770.898 161.299 774.94 160.584 776.603C160.584 776.603 164.274 784.279 161.988 788.257C161.988 788.257 160.584 777.908 159.39 777.854C159.39 777.854 154.752 784.713 154.272 789.367C154.504 785.025 155.883 780.819 158.273 777.164C155.597 777.663 153.127 778.921 151.167 780.784C151.167 780.784 151.895 775.936 159.417 775.514C159.417 775.514 163.314 770.308 164.275 769.988C164.275 769.988 156.793 769.374 152.259 771.36C152.259 771.36 156.246 766.793 165.639 768.865L170.835 764.643C170.835 764.643 160.979 763.352 156.8 764.776C156.8 764.776 161.606 760.734 172.245 763.676L177.961 760.312C177.961 760.312 169.557 758.534 164.556 759.169C164.556 759.169 169.842 756.367 179.637 759.397L183.729 757.593C183.729 757.593 177.577 756.403 175.766 756.211C173.955 756.019 173.869 755.533 173.869 755.533C177.769 754.895 181.772 755.338 185.43 756.813C185.43 756.813 194.215 753.596 194.063 753.063Z" fill="#00703F"/>
<defs>
<linearGradient id="paint0_linear" x1="338.958" y1="676.287" x2="338.958" y2="675.96" gradientUnits="userSpaceOnUse">
<stop stop-color="#808080" stop-opacity="0.251"/>
<stop offset="0.54" stop-color="#808080" stop-opacity="0.122"/>
<stop offset="1" stop-color="#808080" stop-opacity="0.102"/>
</linearGradient>
</defs>
</svg>
